<mxfile host="app.diagrams.net" modified="2021-03-19T05:04:01.151Z" agent="5.0 (Windows NT 10.0; Win64; x64) AppleWebKit/537.36 (KHTML, like Gecko) Chrome/89.0.4389.90 Safari/537.36" etag="hUwvyY3WAN59W5w0GoYJ" version="14.4.8" type="github">
  <diagram id="Sx8AlUsd3kmjBUEoW_Ly" name="ページ1">
    <mxGraphModel dx="1483" dy="1952" grid="1" gridSize="10" guides="1" tooltips="1" connect="1" arrows="1" fold="1" page="1" pageScale="1" pageWidth="827" pageHeight="1169" math="0" shadow="0">
      <root>
        <mxCell id="0" />
        <mxCell id="1" parent="0" />
        <mxCell id="g6JMP2Gnu98_ucFOvaJN-1" value="" style="shape=image;verticalLabelPosition=bottom;labelBackgroundColor=#ffffff;verticalAlign=top;aspect=fixed;imageAspect=0;image=data:image/png,iVBORw0KGgoAAAANSUhEUgAAAgwAAALyCAYAAAC2HoxmAAAgAElEQVR4Aey9bXQdx5kmpv/5k83M7pzNySZxzibZzX4EQM4cIAfL4dBaZbTDZWZusGcDDnMwUCYhlzvAcEakaYHWjGjSQ4A2gYFlkjMmSJsmJROgTV9DpnC9NGmHA9g0YFnUpUwB1seFRV2KlHxFSlfiUNeC/eS81V3d1dVV/XE/gAvyxTkX3V1dn09V1/vUW29VPYB74O+Bx34C/jEG3Aa4DXAb4DbAbaCBbeAe4AtMFpgwcRvgNsBtgNsAt4FGtwEmDA1kY42uPI6fOwhuA9wGuA1wG1iuNsCEgQkDq/C4DXAb4DbAbYDbQGwbYMLAjSS2kSwXe+V0eKTEbYDbALeB5m0DTBiYMDBh4DbAbYDbALcBbgOxbYAJQ/WNpPdrRXz9xffw+u1fYOmXvxI/uic3ehcLPjNpxojbALcBbgPcBlZLG2DCkJ4wEBkgYhD3R36YOKTHl4kWY8ZtgNsAt4EmbANxQm81vF/OhvXkD95JDQmFWc48clpN+KGtlhEE55O/VW4DTd0G/rPHnsM//eSzWLfzBP7dzoPo/cRnsfkT+7DlE38prvRM7vSe/JH/usmE1NKvCQPUDYyYD6UasiDhYtLAQny52imnw22N28C91wb+0Se/i9/ZeUwQAyIHaX4UjsLX3C6kQFvN15pBiCEKFD9NLUT9vfXtk/i1jSfx9bftvnh64t77iJej7d1TaZz9ALexhAtnV7gt1JKP5z4EmqEMCfot0XZqKWvSNNhf7cLYguHfe+xS1URBJxVEHCi+qvsUu3hbPW+qLrylgkzx2W0WXsLwxkP4w29fxHAMYaA4THGz2woLjxTtgOsqrq5u4aVQ16EQhBUSXttfWwLwIY7Kuq4lHwkIw1HjwEFJX+ZjOa61lHU58tfEaYh6vPsBtq9QHmlKQU436MK/2meKj+Ktqi8Lfdur0KGqgqdoAHHaBQcyIg7RGgbyx1qGOIHD7xvdnhsWvxCkwEvPBevw6Nv3EWFwMcDbt8IdctS7FP1RVP0JAaenzYQhXBcJ8V5JwvCbO7+WatohLYGg+KPakvHdKuQHoSwbC5awQSQJS8sk4/+SEQaKK0ma7CcodBiPZsfjBi7cBYyCUv0Wm0V41ZIPm4bB5q6W/7GEOAXCJK97JgzJsWrmPiWOLPyHnfvQNzCER/9iGDv3jOKTez8vfnS//YkR9O/an4hspCYN8YKw+X00uuLt0xEqNskIA09L3BsfdKPb3OqL35mKuP3ajWhCXIugrlKIGrGsJR9GYuCUX9euGNN+LI3fdN8LE4Z0eJnrZ2XjoOmCKG0BkYU/+dRnsftzf4Oxk1/HN86ew7e+fUH86P7Lp7L4y78aE6SB/EbFRe9STU+oIq+a+0+d+jH+wf9zqqrf9xfeqibJUJhGVzptyhT/l4wwUFyNzq+M/z/fPY8/PF3E5TfvBqZCaFqE3Ogd+ZH+m/1K+c5eLeP23SXxo3sqQ7PnW82fLMPiLX8fD7pfjWVRy0X3QlipdgImAa8Iase//LKC8/shmwMZlyashT8xx6zZTmhq+VB8Sj68coi4AQTmrLV4qXxaHii8iD+QpqtJcIv30mtk7OmXUfeftBwPuGRDokZXQVJk3tUXMj2lrEHMw9NHAotQXMqUEtVD3HvZFgiPgF8Zj4ZpADcXS6oDkW+/QA4ZC+IarCu79kaUW6nXpHjr4by2Ittjna9kkBhns/Bnf34ABw4dR/bZc5icOu+RBUkansmdxzfO/id88Sun8YlPj2JrDGmg9BIbQvrVkf7uxWu3BFHoOfi3+Ozki2j75DP4/c9eEPf0bPv1f+mHIlyzE4b/dv9P8cR33sKvkvAFNBdh2H3+bSFUf3b7FxidKeHdu0uCHBBBIIFLbvSO7slvoz+EWuKnPH/vtQ9EGSjfv31kUfxkuehdsxOf3z/xOogYUD0c//Ft/Om3bnjloPtvXi2Ld+SH/NaC18qF9QWBVdOgCAF/NO529HqHLgWe2ikLASQFjytcRNflC+MH3DTUPAgBocanCFGBlyvY1DCmeHwB6OfhAXeaIVQeTxCGy+fE4+fZyR8VxHcLp+/gG8jjcx8GbEaEgPPSdUfKbllv3w0SBJmmn28fz6Dbh96qFodwqGU3h3H8qVNUEoOl4CoZa10FiZtMN1gGt7155U1JGBK0G5Gu0i4b/W3FLZv848eGsHfkCL42mQsRBUkY5JW0DU+OPY3tu0ditQyUbqKypacJfggS+KRdkIJfkgXfh/lOD2f2ldw1UUHVTifBPXXq9Od05L9MkJlkhGG5piSIBFAZJDZUDhKs9FPd6b7ZCQPl/YU37xpJAREFekcjdFnWZrpS/r78nNOWiOBEERt6R37oj8I0UznS5MUTFgACwo2+O4OAEHEbiYAiPOU3a/QXFGAUn97RRxIGE1mQcXjCyFdTO3EpaRrJRzDvIowqeEQY308oTre8gXLo6UhMlKvwr+fZhrkso8yX608lC4F6j0g/kE8Zr0p+KI9ROMs8SG2NvmzVzZtuIxOs17SEQalDE96yHEreAngouNfDnfZJiJs+eOwzT+Jvjk/EkgVJGk5/cwp7DnwR//Gxwdi4E+3TkEASWr3ogv9eIQxSQJGGgRrCajR6pFE4TTvIhkzC6P8rfCB+qtAiYdvMI9qWz78q2h+VR5ZFv9I7+iO/+ruVfiZCRlqFNKtjyC/9rWbSQLgLIUIFUQWYTehowiooCHxh7Qgdv6MPCWK3E9fD688OcVnChedoqsBAbKLsDDTS4sSlCX+1zFIIqm6ivFoYg2AK5ltqcPxwevu2EwYfMzWMGr96r/qR9+K9IY/ivYaJPR9BLQeF1cmGOR2DdkXi6hGTlITBUBYdAz1vEotGXOO0C0QmyDZhIvtsYsJAxOHzR56qn5ZB9ExV/CNyIG0X6J7+7gXCQOphUtWrQlV24FXAFAqSRnCkbZSkKaAplLVfXBT5p8TVcujx0Tv6I0FLQpfCNpu2gfJDpEbPu/5MfqjudPeVfCYiRn/V1Llsc81M5hJh644qvVFrUxEGUT2azYKqxg8LN1FmTTh65MPdjIqEjK5ZEYJIJQwiDl/wm4WkVPf7/uT0h5vzwHQE5c0uqOMJQ5xwjHyvYWLPRxhTPV4zFvc2YaDtm+O0C2TAOHz4K0a7BalRMF2/9PQZPD50KDZ+Sj92G2nZ8NJeT32/AGmLQLYK9HcvEAYiC6YOPtlKiWgUGzkdQcKf7BFoREvCk/6SCH/yQ38UhjQrFEcUyUgkJOqoqiMSkKQcpD1J4m858y/tR6pNk6YnyKah2vDNEU4b9SUkDPocv1cWTTCZhUtY0Ap/3khUTo2QEHVH7aHRpuPuER21TWt5cAwRfYEcFpYaBnJkrBCIpOXwcJBxaNqRcNpqWRVNjaqJcctuy4NMM/K9hok9H40kDBbCJImUUse2sgh3pZ3oZEZiUe9r3MoIEuZkvzD6xZOptAtEIJ762jNiWiKOkND72BUTQlpU+e9em5KgKQj6MwlMOeKrEioRzERE6tXwKG4SUDI+vQz0nlTc9NNXFqh+bYRJxtusVyI8zUQYCG9paCoxIzfS4sipLulOV2lgS36kO9VL2ukMGbZ5ro6w9EbcqQiDL4RleUQHrsxvJ+34dUEQ1AqYSENYyNvyQO6UL6+MmvCktF96+0Nfk2HAIGk5ZB7kVRfM+rPwJ9JT8ueRH62MWr5lGt414r1IVxHIUfnQSZge1oxFEg1DeHrDyXu4fs1phImmnjcPCw/DMAmrxg8dFBUn0GlvhSePPJWaMHz162eFoWRc/PSe8hGZ/1oEYLWE4VrpA7GCgq71+IssYIqKlXPhtvia+fApEpg0IjXlXc6jk0ClHwkh2/w4xaHaPpjiazY3SfSayYaBtDWEu4qVbOsmYkNu8k8NQ/Whx6O+b5576pRV1bnTkYoOV3U3CEtRBleo+cIk3MlLozn1HIekHb/wF5UPN/3AMj0hIDVB67qpeRD5F+5++Z30nBp1iIRbHuEUJkKJynH2A7wU2OfCidMjKp7Wwc+Hiq2eZ6dugnkxuW1/LckqCUM8igZFzYdfx0obUciGGYtwWSnOUL0a6swpU3DVhTmNcHwirJI3Jy4F3xAZc0mYEkaUPUYO0emSSQT68F9/JTVh+NJXv4E/TzglQfmIzK/spKq5xhEGev/9n8b/aHlmLX+RBYypKDVsHGEgv9WQhuU4qZJU95IIqBoDGrGS1kB1o3siGPpollYarLYRLZWFCA5NSah1udL3pikSEv5EJNS6kPkkskNh1Dqhd/TcbGWTeQ5eVYGofM16x5mYMEhVuhIXCSAhEHzhlLTjDwkWUz4kaVA0GD5JcfNhyIPEQRcu0j3JNVE5vPz5mKhkwUlHrQdXsHllVd9RHIrgU/pJBys/jQCJ8oS08t4Qj8BiJQiDIX9EUPS6SYS3YSqjUYSBjqROQhgGnzyGrz/z7VSk4a+/PC52gUwSP+Ujsr2q1Z72Po4wSKPIuKs0mkybvvQfWUDlQ4jzl4QwUBzUiSexaSA/ugCIy0Mt72mkTURAFTAkoGwjWnon06Mw9DMJM+mn2a6SLFCZmy3f1DbrYbCYtE02W93cr/lxBIqmlZB9EAlunUDJd3z1+qL7se3EbdYkhf2ufV/AkRNfS0wYaAOnwc8fRd9Asq2iKR+R+EuhW801jjD84/6v4+Of/rY16nfvVPDf/8kZ0MZPtfxFFjDFh5i2c6Y8XyzcEeSBdnCkH5EEWoa5nERBlp+EJu2zUC1hIAM7wkDG18zXZiYLhBv9MWGoz/xuM7dDc95ctXSoU/M1I+Zw9yteXG5JCOKuZMdASyvHv5FsaSXt9rhz72gi7YVMO7Jthtp0Coc4wiDf0/bRpj/SLBCpqNWWIbKADSYMzSJgiaDIVRLqaFu6q26El2lKgubK6c9m31AvnOsRD5GiZtQsyLJR/kyaHfk+6ZXqTyWAScOxPxZC3AZWTxtIqmEgof7oE8NieSWRBtoGWl9KSW7Zs+dw/FRW2C788cBQYsLQMA0DCXs51SCnFOgql1hKgkDP5I+WYap/8gyKqeffUJ2ruq/Xh1GNhqFZCAMJzyijR5rnJwt9+tG9zZBOzrPXC9NGxCPrybTaoBHpVROnbvRINgqEfVxcRDJU483VY/S4ejrnuDrg91yXy90G4mwYtn5yEP2f+iz+9M8PiIOn6Pq5Q8dx8vQkJrJTOD2ZE9tF086OT3/9W+IciYG/fNIL82d/MSzCxe342DAbhjT7MNCUA009SONGIglEInRyURVbAGI74aSVLwVRUv+U32YhDDQSVdfs6xoFek8kgX50r5ZR9UsGks1SJjWP6j0J1WYfdRPG6p4WRALoL2pzKSoXGZ1KIkT1QnHUY2pDxY/vWSByG2iuNmBbJbH1k/tAGoKdez+PoSeP4eCxr4qDp7Y/MYz/+MlB/Onjn8OnD3wR+7/wJXz20Jexb/QoBj7zJGiTJyIHZPNw6NgpfPErE9h/8EvimeKznWK5oqskJAEgWwU6mEraKtA0hNRKSD+1XOvV+FczYSDhIldJkAaB/pJMLchpCApDqyTUvRzqhWu946FRd7MTBiozYalqfYhEUB2RncnvnXhdGGpSvdE9uekrVCjsaqiPetcvx9dcwozro/H1YdqHgQwV6QjrExOTOPPMt/HNZ7+DyanviOmGkxOT+MzImCANRCqIPNCPNBFEFIhQ0JbQpH2gMHSqJYWnFRbHnj6DT37mSeP5EsuyD4OcVjBNSXxzMoff+/0etP6rLvzj9n+H8+cvCu0C2TfU668eDZpGd9X+Udh65KHWOCgf9KMRqSQ/qvZAj5/e0R8JMvIvw+n+mu2ZyrgaCAPhKfGVGJKmgaYr9D9yU6ciqE7oj7ULje+sZd3wlbFeqTag7/T4J5/6LD4zcgTj2WfxzanvhOwUyI3IwLGnvi7sGfZ9/ij+cnRMaBoOHjslpiWIHOg2Ds/kLohjsU+efkZsF63bNzR0p0fq0EhzIG0ZTNdf+ye/g4sXL4nf1NR5/MGm/9CUhIHUwCQ01R+NvuXKAXKn0R65qX7oXqqQV6qxmdKlfJFdg3xH5IBGsfRTSQT5WW1CifBWhassYzNeqb3QtAIRAD1/VAaqJ91dkgUKq7/jZxZq3AbuvTagnyVBp1KSJkA3aNSfSWtAxOGrZ84KknDqG2cT7dNAROLQl8bxiU//VcAgsmFnScgREk03fPE7C8IegWwS9N+v/f3/EUtLS+JXqfwCv/Ff/jP8/f/7pHcktoynlmujPiASTFLN/1czJXHfjOTAVH4ahasCh0awNCqnn+5Ofk1xsFvtHRORM8Kb/miKKKr9kF9qZ/Sn1hHXQ+31wBgyhs3eBuRplWRf8OkDf4Mz3/pPsYRBJxBpnslA8i/2H/YIA6Ufi5HonRr479f/wT9ZtYSBwKNRIHXe9Fsto1rKN5EAIjukIZFkhwQS/cid3Ogd3a82wrCaNAzyAyQtDmmo6I+Iw7Zv3RCnitLJonRP9UGaCPKz2jQ+sox8ZaGcpA2EdpJU5Y/Y2Mq8j4Xc1fJjp0q4cGsJd3/pBvzlr1C48oa7C6gamXovd7V8GX8w/T5e+uBX/ksZ3l2C3/rMu3j+3SX//UdLKLxWwh98zq9fvwwf4dmv+e6y/B+zbSEescz/H33yu0J4k+3C0JNfaihZkMSCpjHI7oGWa1L6Mv/Wq49KY+7+i1//HwIR0zNNXTSbDYMVoIgKbvYwRA5Iva1PO0g3upKfZi+Hnj8iOKvBhkHPNz0T5qTtkeSBPg451UXvTGHYLdwhMyarF5OPT72Dp59/V/x+IMx5PsIP3OenL93Axx9zCUPlQzwr3Z9/FwenFvHA50p4/iMAv1zCSwtOHGde+xAvLdzAA19724v32beJEPzK8/P082/jjx57GdtfpsAAPvoIL732Hp5+/j1ceKPihH/sJ/jY9+5A6AMpfvH+ffzglkMe7t56F3/kygOfMJh29VzE046iEPr5HXHtlkb5j/7FcFWnUkoSkOZ64PBXsO3xzyGRdoHK7qDXuP8mwlDv1OIqgd+v3s6F647rjtvAvdsGQmczCIEccYCTe55G4UrY9kdtJ45AD+6s+bELd0Drx+6+/W5AW+CHews/qBCZ+BBHv6Ji/rJ7yBVQeMFJV8Z/myKs3MGnXCIh4vra+7gB4EaZiEYwD35aavz+/d977BI+sWdULIVMI/ir9fvk2NPYvvuvQOnG5U28r7fw1uMzEYb/d/Oj+OO+T4rfcz/O4/ILL+LKlZf0oImfExVUrVC+T9Y4GCfGidsAt4EGtoHUhGHCEcb44AN86qAvaHUZIAX6hbPSz8vOAVSo4Olj0k27TjvL0W+89Ea4zj/3Dp6nKZBb7+Hj3gFXS7iw4IR5ftqPS6RduYOnX0tPGKgcLX9+LtV5EdWSBQp35MRpkZ6On/U5sVSu0qOJMJz+2jN4+qtnxI+Iw28/mMFv/fbv4a9G/0b8iDykIRDWwjWwoXOa/gfCWDAW3Aa4DVTTBiIJgyZznGOxX8b2lypCU0BTDjfeeBd/bCAOYcIQobVw5cTHr5B6YQkXpkx1GQzvx+9qJd58Bx8T8TjPNxauu1qJdBoGiWHX5/92WWwYKB2ZZqKrVid1f2TCYGp87JaocTLhS/cxM16M1yprA5GEQbNh+IxiXNj6zC384JZruPjRR3h26uVA3fsCXfa1QYFv6n/+4CWyb0hLGH6CP1qgcI7m4mPfJ42DYwgZzoPMS7Lr//XFHzaUNFD8Jhwi3erOELQITYRB9ULv7969izfeeBP/4n9eK36kbaDfgeHDqlfrfWQBV9kHxGVJ9jExTowTt4HV3wYiCUOCo8Bbn3kPBZoqKL+PP1D6+rCwXsSZW2QseRcHldUOgTbkTkkY7SPklETpXaFJCMTv2iwUXviZM+1Rejc4beFNi6Svr9/5/I/wzLcv1JU4UHwUb6DsCnaR7lYpXKcXcYThv/nv/hcvJfJLvw8+uIM337yJf/bP/5X3LuomsoBJgWB/1TUgxo1x4zbAbaDKNlArYXjgsZfdFQly2aQjlAMC3c3bx1+gKQfg9uJbaDXlV67ASGH06NhIuKsi7i6JFRYvPedoO0x5qEZW/dd7X8DjT83UhTRQPBRfNfkQYaIEcT3epSEMRB50ApEkD1UX3tRo2K36xsTYMXbcBrgNpGgDkYRBm5IQSy7n7uL2rTvecsszix85Kx9u3hKjeikLzML6Bs68605j3K3gB2JZ5nu4cPMjFGhZ5mM/we8+96FjH+Etu3wfz5edMHffvoXfdcumx+9MRQQ1GLofmbdqr22ffb5q4kBEgcJXm7YXLolArsWPThhop0f17zc7fsd7ZMKQXmXlVWSKj5TDMM7cBrgNNEMbiCQMnmRwb2iK4tz7uHHXFfrk/Mslx/BRm2awCuvPvYEDCx/itrsdg4j5oyU8P+evjKCNmwIbO31Eez6UPLJAuIXjL4lVFHcX/SPsw37q0+Z+7YkrYkrhz77yfXz+6xdx6uz3vGkLmm6gZ3Kn9zT1QP7rVtd6ndT7mQlDfRpJ3SqciUX9Ph7GkrHkNsBt4H5qA/UmCJVKBfSTfzphINsE9e+99/yT+777vRnQT/7pYaW7fmVhyqSE2wC3AW4D3Aa4DTS4DejCt9rnb509h/+jq1ccLkXTDp/ec0AQh6RC35Ru0rDcSBrcSO4nBs1l5REjtwFuA9wGzG3AJKircSOyQNoB0hjQ77Fdn8Gv/8Y/FaseqomPwjBhYCLAZJDbALcBbgPcBpqkDVQrzPVw//Z/34TpmbmA88WLl9D2m/864JbmgQlDkzQSZttmts24MC7cBrgN3E9tII0Aj/LLhIGFO48CuA1wG+A2wG3gHm4DUSQgzbtvfOMs/qd/sQZvvfVz8ZNh6bnaP9Yw3MMN735i5VxWHoVyG+A2cC+0gV/96lf45S9/mfq3tLQE/Tc49Hn8m/Ubxa9S+UW1PEGEo/C/8Q+DezbUFCEHZgQYAUaAEWAEGIGqEXigXmRBkofHBvaCftt3PFF1piggnS3xz//lb9UUBwdmBBgBRoARYAQYgfogkJowSGIQdf3oo4/Q1/8YTpw8XXUu6Qjs3kf6qw7PARkBRoARYAQYAUagfgikIgxRJEG+I7LAhKF+FcQxMQKMACPACDACzYBAYsIgCUHUVZIFuv7oucv4h//Vv8TCwitVlfN/e/jf4zvf+V5VYTkQI8AIMAKMACPACNQXgUSEIYokyHcqWaD7X/ziF/jrvzmO3/rt3/M2c0qa9aNfelpMady+fTtpEPbHCDACjAAjwAgwAg1EIJYwSEIQddXJgiQMRBqe2P1ZtLR9XPxeeOEn1qJQ/PuGPi9+tEPkD3/4I9y6dcvqn18wAowAI8AIMAKMwPIhEEkYokiCfBdFFogw0EFUX/ryV8WPpihoy+hLP3wOV1/6qfjRbpAHDx3Dbz+YwZ/+2afE79VXC4IslEql5UOCU2IEGAFGgBFgBBgBKwJWwiAJQdTVRBakdkGeWpmWMGz70114+eVXQWTh5z+vftMna4n5BSPACDACjAAjwAikRsBIGKJIgnxnIwvkrpIFuv/www/F7/btd/HkF8bwO//m/8T/2vm74vdvN2zCJz75acx8/4cgmwWahpBk4e23305dIA7ACDACjAAjwAgwAvVHIEQYJCGIuqYhCyph+Lu/+zvQ786dO/jggw/w/vvvi997773nkYV33nlHEAYiC2+99Vb9S8wxMgKMACPACDACjEBqBAKEIYokyHdRZEHaLJg0DHfv3hVkQScMRBbeffddjzBI7QKRhZs3b6YuEAdgBBgBRoARYAQYgfojkIowxJEFG2EgsiAJA2kXpIahXC5DJQy6duHNN9+sf4mXIcbywhQOPd6DLaeLy5AaJ8EIrCwCpUtj2LU147b3ChZObcfGTDdGLldWNmP3cup3Csju68Ha1ha0rctgx5FZlJbu5QJz2ZoBAY8wSA2C7ZqELJgIgyQLOmGg6QhJGKTtAhEGMnQk7cKNGzewaghDpYgLhwfQmxnGHPWR18bRSx9y56Dz3Aw1zXlgBBqFgGzv68ewQELr6hg2UPvvGQdT5kaAXkJuWzva1m3GyOQ0cscHsLGzBV2jeTBFawTeHKdEoGbCQCRB/anTEWTsKAmDar+gkgV1OoLIAtku0FQEkYXr16/LfDb5tYK5/e1oa21Br9AqlJHb2SKed+TKTZ53zh4jUCsCJWT7qL23Y+QyxVXERA89r8fRq7XGzeFDCFweRkdrH7JK91iZGXTceBY3BBc71A8BQRhsWgXpbtMuqERB3kvCIFdGqIRBTkWYCINuu0CEoVhcReMTOapyR1mVS/QBt6CtL4vVv5tEBTP71qBrUzd27DuIQ7lCzSOZ/KhDqIhktY3m69ei76OYVAz7J22tLI8Rwlj8+pBtkEApTfaJNDrcuizntjvP+2drbis1VeniOHof7sbGrQMYOXwCczaYakpkeQM7WA8j8NXczKK/tcUlbMubH07t/kHgAUkKbFcbWSB3SRLUq7oqQtUwqLYLKmGg6Qhpu6BOR5B24Y033lj+mrg87HauspONvzqdtRxVtWPoUgWozGKok8L2YOJaY4ohO2lHGGgdSD2TXMpjRJTFwcIunJInqgq7mglD6Tz2bOrGRvHbjQtRQsHtWB3MVncHq2Jor5PlIQxYHMdGIiWdw8jTtMTtKezJbMauA+dXdFoi8I3IvCVvporPPE56bawbJ68or0K3KuYtsNdNKGAih9JZImcpNAy3z2NPpg9Dp6dR4N32E2HMnswIVE0YVJKg3kvNgrxKDYOJMMjpCEkY5FJKsl8g7cK1aw2StGYsHNeqCQMgO6cOMaqqYG60B7uOT6N4JyrB6t/J9BpOGIQKVBKn7cjVodNRhV3NhCFAAmJG0QG/TBiCrU9OLci6ruLa2YOJxWCs/lNQkErSlvTaMXAe6Sb4guXZcGTez0rqu9iw7R4AACAASURBVGDenakXWyRBv0bCoLXDpBgE/CWyYSjjwoAzXeqEbcdD24aRu5oOSVtJ6+deQm5nD/ZMzqPMxpv1g7XOMVkJQzWaBV27QKRBtV2QUxLS2JEIA23UpBIGIgukXVgxwnDlhDtSlSPW+Ouec+6Q9uYUdj0ygJMXi8uihl0ewuDbZwQ6K0/NbRYq/Weip5OYMNT+JasYGoWSSEIVXjFkCkEBm6a+Hb+bY7Rpal7M7SY6zQFcSCPnpDFmTFsNpLl+GHNGgh/Me1MQBlmuqFUS185jzyMPOtOj0r97XdsziOxCGkBrb7O2GIqTfV4eOx7uw8krafI1j5MDY5hZTBPGlhN2j0IgNWFQtQnqvYksyJURcu8FIgzqdIRKGFTtgpyOWBENQxRay/xu4dhm7Jm02wssC2G4PYUdWkcT6GBt7zaNoxCBlyrsWMMQAVTEKxXDehGGC3vjCbIz9aP461YEUmYYeaPApYIE1fqheBSVv/Mu4ywblG1sczbV9MbCkfWppxepbQ/NmNYa1JkwBKbRFCxDGGjvHla1BSmmIW8XMHOkDw8pU4vOd5zB0Sum8joNr3h2GEcvRc3xRTTQpK/IzkTWsXdtx8a9WSTiM+Xz2CXCkfZkDHnmDUmRT+3PSBhs2gWVIKj3uqGjarugahiILKiEQS6nJINHE2H42c9+lrpA90qAyuVhdLkfz9qd48YPZzkIw8KxjN/pdj4YqX0JdEb7piO1LKqwY8JQXatVMawPYaguH9DU69Gj7xRpVKYx5AmQFmw4lmJK4fZ57FKE49qMJnhVwZxZ47fx1m7LlEqdCUMKGFSvNX/zlSLmFOKw4UCUUSoZOzuaINJG5BbtxELNY1X3N2dxdKtaD64Gat3meG3DgruMV7SVlFqoqjJ7/wYKEQYbWYgyctQJg7RbUDUM6lbQckpCn46g5ZSq/cL9ShhUsiBGAZZRW82dR1y7DwiCduw6F0XdC5jY5KuZt/CURBy66d4H6sLHOZG2RxG6Yf8pRqm2HF856KmT26wC1xY4wj1gO5NmiWYF+VFFu5Bx94ewJEVLEn1chjFnnENvDsKQP6xoGFJqXALFL+dxcttuXIi0R8rjkEK6QpqXKuy92lqj21vp4rDYU8KvD2rr7eg9lrfaNjhGoO43QavUAgXlh3oikJgwqBoFeS+JgryqmgVJGuR0hE4Y1OkIff8Fab9wPxKGytUx9CofaVtmNy4o663Vym8sYdCMpXrGUTB2pG6OPLWg84EfirQiB9TRMWsY1Fq13DczYQgIjj7k6qTBDkwpyE2hLPAEnBfGPO0cCZuQoAt4BhaOKeRi25RlGXSTEAZ1OXKkESgZEWbQP5rFXLVz+4GRu8H+JVDvSUlsNGEQVVOaxaFHFGLU2gK7JsTXggiSEaPZ1KqeH1MiECAMtWgXiDQkJQxyO2ipYTAtpyT7heUlDMEOIchwk34Mir8q9l8ozWjset125Cxkgeq5kYShfG5AGTVmcChinlO0ucBocBDGaWClcQYIQ98Y5hZLqEQREiVs6DYgTA0dmxog4LcxqyT8eknQOap5i7o3zHl3rfPbWwftNaCq2b171Q6gHQ916/5OBNfzR+XB8s4vL+WnTmVemsfR9X75Eq9woHAZP1yHlQDIwgQNPTeeslneBPuH6GmXoF/7dJHMQ9JrMK8dhwM7MQQicTZyUnB4uA8jk/lU20cXTnX7mheTTVJiA3G1DSZsH0slzOx3p0MtGlZRYG3Jd7QWNADRsjz84R/+Ib785S+nSov89/b2pgqzXJ4TEQapUVCvUqugXqVWQV6ldkGujiD7BUkWpP0CrZAw2S+8/vrrKBRsH28j4Al+5MtLGCoonN4eNPDKDGImZqTWkI6aoL2eRb+i5Uiy5WxglBY58nHqLkAYPJX5GnQ9OoiJiwWU0kyXBkjAPUoYDE1exdAulNR2HYONIY0kTgE1eayAThIj4G18JtrGehxNpGemqQjV5ia4V4Ex5YBmLCodFcc4ohn0a68bY44iHLV4z9o6iBLmDpsMHGmfjG7sOp7k3IngFKOdSEVk13ul5jshYRBhK1g4NoBDUWeSBAYqjWnfXjGquCHh/8ADDyQmDWn9V5GlmoJ4hMGmXVBJgrxXSYK8j9IuSMIgbRfk/gukYTAZPErtwnITBnVjlvjRWgsiDan2nreoNrX6Ks9jYmfQ2KfjkTEsWC3N/fBVE4ZrWYycsqy+uJPHiDJCa4ti915Wgp1Lkg5SFXZmcrYGvY+fQO5qMV7zwIQhYnMgtbNuRIdaRHazP5JNZZjotR/9JjiSTnomhbo0j6Yi+iejl/ZSqgH7hciNnVQcV4gwyM2xkpKopTIKF09gV3dQvS++tzj7B7lzrUir1s3nVOzSEAa9XejP2pLvKrS6eoyNeE5KApL6a0Qek8ZZF8JAZEEnDKp2wbScUt3hUdUwqPYLy0sYkkCmNvy4TiM+Pjrlb4uiVpaCM4nApdirIwzSIKwdGw9rh9XcmcdRde6wM8EIjTIS6FySCaUAYcj0oNeAg8SD1mWP5CI2dGHCsHKEITBCty1JjP8WVB9k9CsOrxLCyt05VfVguC+e263YLSQ9iMk/84XamtzW2hC9WBLqb7Ed9+0H+4mk37M5Xd9VbrctvotIcuOHkXely+MY6pEDk0yMxobsAhSSsXMq5YZZMlV5VfGoI2HQlnw387k9cWQg7r1EcqWvgjDUol2QZEElDOpSSqldMC2nVDdskgdOrR7C0I44wz5r5dqWEIkOMvlWslURBm3N8w7VQq00jRFvNJJJeDyxxvITdi4BwuCeP1C5lkeWTv20kYd1PRg6bZiHZcKwYoSBbF0ksWtrrcOStqWCe3CVq7WIM7YVH1lwSq9jWxbFJPYwgY2d4lZhqEJvJQhDkNy0VWncR4OU/gPRS55pm29/X4RkhM3a14kXKnb1IwwBo9hVcDKwjRTY3KMxXZm3D9RCFmg6QicMkiyoGga5QkJOSaj2CzQlQcdZmwjDa6+9tjKo2FItTYkDXpwOMtlIOhBVeR650c1BWwUa2TxyECPu6ZYUd9IRSWrCsFRElo7FdYlJ2/ph5HVbATI2OtCDXWfj1bmibAGWn7xzMREGD6ulCoqXTmCXNyLyVd5tJkJSNWHYHDjxz0u/xhu/XurXOZqypGJobTMBDUAdBHogI5oQM9VNwH/8Q/GMc4iVbKMbn0pux1ReGMeuRw5GbBwVTD8gcGKP4laFXjrCMDIXTLeqpwC5qY8mx5wPbXVUzJJUcxy6q4pdnb4JsrOS/VhrC7rS7NGhZ28Zn3VyoD8vY1aqSqomwqCSBbpXyYIkDEQWJGEwGTzKFRIqYSCDx8XFRTQdYdAEkzo4j0afRkB9IaJABkhy7/REnb+WiC+YSKDGf4j6HG/tFsVyesMV6CmWvqnljVpWWb46hRFvQxeLKlWrl8gTGdP41fAOPQbiUkiN0pFJwRe41mmuVcXQShjUee/OgzWviAhgEJiKakHNKuHAyFbimVTTFchZ/INWd/F5V4VeSsIgjvyOz5Ldh/adNXA0HVwdFbckVbM1iWv34n18P2XHwX2jD3w6BzGTwOYrNt5l8iBJAq2ESGMQuUzZi0zGSBikcaN6lcaN6jWOMEiyYCMMpiOt6YTKpiUMc+pJlikb/p1p9/RK6gjXoHdfcNvTRJ2/VpVpCIO+GVT6g3y0xMlg7MpBZd44bmOnYHi1vFGEQYYSqtS9lsOHAp1/jOYnsHY8fvmnTN94DaQrBVyC6zIShsCUQZ1WMAgsqNPuU8pq0lYZQbM46sa2qvBJaktjiTrsXEJO1bQlGkWnIAyBdmHbOTKcK6uLRqQaNprWVkelXZIaIMVq/QXuU/abIVC0lTBk3GpdLRIK3DQOtNySyAJdV9NfiDCoJEG9V4mCPhVBxEHd1VHXLhBhkNMRcoWEtF+QGgZ56JRKGF599dWmwjKgwqyi861cPojebWOYuxkulipAraNFLVhSwlB5ZTywTDLZygctMf1R7+ATzTX7kajlTUIY/JC13RXPbFamZGrcFa5SRP7SLOa0X+6AXL++HSe1d8LvlfocTqZiaGsz+VF/Cqo+Kxgc/PWpA1v6iWpLHzG2ZjAyqbXZlO0rKl1d0xa3sVNUXMZ3gYFFjdNA+nfWqNF0aRpD6uqoRCSthGRnj1SxD4MRWIDaXYdCQBLbq1jiWwlnqWGQpIGeV8tfIsKQhCyohIEMHaWxo9QuqIRBbtgkNQxyS2h56JTcg6GpCENAQ9CC2tYlh5tHks5fD5WEMJSvaDtHUmccta5ZT8T0bOjgk62T9yNTy7t8hEGbc6/ScMwvhfnOr5daR1Pm+BO7VmYVrVY7ojcbShwr9BUJtOwxchfQqKhDbclfDqlrxZLsBxKVFL3T46yHpk1PMzCwMG14pAewPRuwqX0a0ZDYtSnsUclCPfqIQDKqdqbKb2KpjPyxngBZqMvAJ5DPxj9IsiBJgv7c+BzUlkKAMKgaBXmvkwWbdkESBkkWJGGwHTglNQy0pFIlDOoeDM1EGAKHMLXWui45XGmqAE06WvMFE6mG9Q8xaDnuqAvrQRaUHdgE0/c7+HCp7C5qeZeNMCyT4ZhfL3qd2PFoxJvCqZ6gNiXJyoGYjBQntQ3GEo1ELZHqy3jJeG1UXeqrq59ra78N0bTpRQuQtBoGFncKmFCnTULY6AlX91zM7dbObqjue45OvUbCYNirpq2Wdhed2Ya9tZEDm3vDMlJDxKkJg263IHd1TEIY5HSE1DCoZ0joh07RHgzNQhjKc/7JkSR4NwQ6tRrQV4KqArRmwmBctpnBUNzWkUp+jLdLReSeUHbSo05s/2xVa7TV8i4LYdBHaw00HGsKwqDNRydtU8Z6J8fyPLJ7u4MjvM7u6F34rJEBlVey2qiWyMJs+IAhXSW/fhhzVRi4hTRtnX2YqPvpizrBqW5gUV4IY1Nv1Xt5cdpwOmQGe84lXB0VUbfhV1UShqUyFiZ1QtOCtnXbkb0WTqWZXeJIQdz7ZimbRxikRkG96tqFKLJAhEHVLtC91C6YtoSW0xFSw/Dmm29C34PhlVdeWWGcKihMBjeEaZQaTBWgSTt3XzA5GoaZ67M4OaB16qQFWLcdE6/o6ydTQntT3aPBMXZbu3Mq2Xp3Q1JqeRtOGJbKmFO3DE6xdNWQ9Vgnv15WRsMQHklHn9YYWSDRaQ+G98bo7MHRq1W0KVItH9eXFtNphPPW49Arc+pGTlEHERlKQvnXt12vgegYUvCc9Pn11AMLEykjUv7E+aq/My9zdEPLlS9nlVVHitFqkmOkA5GleUhJGMg26LShzblL0OdsO2KnydIy+k1KBpL6W8ash5KqG2GQho6SNEjbBUka1CWVcjpCahhIu6ASBrmkciUJQ+W64Xz2BqrBVAFaHWFQPn7FKGjtznEsRJ1KHWoSmoOpwxWahelUB9losdb3tEo9cvXZoG2p92hNTY7uV4wwLJUwd0QTxtW2Weq0J4eNO5Gu3TqGajptsdLlYd8IU0yTdXZjJFbzpe0N0LoeI3PxZKVyPUxySZVdM3nWK9wk6BNtqe5EVLmeR9awP0tbawZ7Ji1buOt5sDxXbhaQz41j5PEePKScD+OvaGjHxr3BFVuWqGpwjicMMp9D2x4MarG8vmwNthxJcgZGDdlsQNC0JCCt/wZkOTJKK2HQtQu67YI6FaFPRxBZUAmDavCobgmtrpCQhEFdUrkihIF2OzRtGJTZjVwD1WD1Jgy0nfLRSzVQcbEPvWnr6to7MWqRannrrmGolFC4lMWIofNJek5H5FcT85IEgLNyolDVdE1M9KHXlVIBM8cHtLno6jVLhdM94T1DqONW9g0JZSLSoYyZvRpRkKNFw4ohY1SBpYotaItaCnkzjwl9+kSmV8MnEcgXjdavTuHk4wasIo6kD8SBAiYekds1Bwm/IGVJsQlG6j/pmHnC19UQbh1GrobRROncbssJqfqJqHGrJKL2c2jHQ5aVZX5Bm/eu2tMqm3W5pSAM6jSEvNcJQ9R0hNywSdUuSMJAZEElDNJ+gaYk1DMkiDCoSypp06YVIQwA9GVXG/dWr3pP2pRVAZpUw1C+pB2HTZ0iEYWLhfBccNKMUPnP7Q6roFtbUJdOzM2HWt66EYbFcfR331sjFGu1VYq4QNto6yN2IRRqHDXqdgOJTzi05jZ4AmqVxMM3PCbSajhbpJzHSQNJrJ7oGMpTnsbIJlUAqoLewb2QwsZCX7WxtmcQE5frxWq0DZ9E23AOdZtZrEXt6ODia9JUDOLuzdN0hIN/fgjFQXvVjCN/PV6TZKgldmoQAnUnDFK7YCIM6pbQcjqCtoU27cFAhOHll19uULHjoq2gcGo7egdOGPdMiAtdzXtVgCYlDCKdm7M49MiD7smOdepoNIFRs7bCAIha3roRBuiqaxoVP4j+0SzytY7WDGVYaacgsaVO1hmN1UMY0KZcvT0DOFkj+VQxqswMo390qvopstvnsSdmtBnEJLxBmpqfau994iKFYy1CuIL84R7x/daj3kJlujaOLQ93Y8e+8WQnv4YisDvUkzCAvt0nMuh9/CCyl2ob8NhzzG9qReABqVFQr9VoF6QNg0oYpHaBruoKCdXgkQgDaRdMezCsHGGoFdZ7IPziOLbUWWAsCyq0OkB0kCfug46HThV8EF1bB3BoMo9iipHtstTFiiRSwcz+TGNJ4p1ZjHRnsOXxYUzk5lHkQfCK1DQnuvwI1JUwqGSBjB2TEAZ5hoQkDD/72c8gl1QyYVj+BsEpMgKMACPACDACJgRChKFe2gWVMEStkFAJg75p009/+lNTntmNEWAEGAFGgBFgBJYZgQBh0MkCPavGjqaVEarBo9QwyKWU0thREgaTwaMkDKY9GJgwLHNr4OQYAUaAEWAEGAELAlUTBkkUpO0CrZColjDQdIRKGOQKCSYMllpjZ0aAEWAEGAFGYJkRiCQMqnaB7lUNg40wSO0CXUmzIH9xKyQkYVA3bWLCsMytgZNjBBgBRoARYAQsCFgJQxRZkBs1qdoFqWGQhEGdjiDSkIQw6Js2LSwsWLLNzowAI8AIMAKMACOwnAh4hEG3X4giDCbtAhEGSRboqhIG25JK9ZRKfdMmWiHBhGE5mwKnxQgwAowAI8AI2BFYVsKgniFB+y9IwkDTESphoFMqmTDYK43fMAKMACPACDACy41AIsKg2i4knY6QGgbSLkgNgyQMcktodYWEJAzqHgysYVju5sDpMQKMACPACDACZgQEYajHdAStkJBTEkQWdMIQt6SSCIO+adP8/Lw51+zKCDACjAAjwAgwAsuKQCxhULULqu2CavCoLqeUZIGuUrtA1zjCYNq0iQnDsrYFTowRYAQYAUaAEbAiUDVhkCdTytURUsMgCYPcrElOR0jCoB86JY+1VgkDnVJJSyqZMFjrjV8wAowAI8AIMALLisAD9ZqOIMIgyQJdTYRBPXRKGjzKY62ZMCxrvXNijAAjwAgwAoxAKgRqJgxyOsJGGGj/BbkHg4kwyEOnJGFQd3l86aWXUhWGPTMCjAAjwAgwAoxAYxAIEIZq9l4wEQa5u6OcjiDCIFdI0JSEuqRSJQz6Lo9MGBpT6RwrI8AIMAKMACOQFoG6EQa5WZOcjpBTElLDYCIMNB0hCYNpl0cmDGmrk/0zAowAI8AIMAKNQcBKGNTVEereC6bVEaRlkIRBahfoKsmCqmHQ92AwEQa5aRMThsZUOsfKCDACjAAjwAikRSA1YbCtjogiDHKFBNkwSMJw48YNSA0D2S9IDYO6y+PVq1fTlof9MwKMACPACDACjEADEPAIQy32C+qGTVLDoNovSMIQtaSSCIO+yyMThgbUOEfJCDACjAAjwAhUgUDVhEE1dpSEQZIFukYRBnVJpTzWWicMtAcDE4YqapSDMAKMACPACDACDUDASBhU+wV1d0fTdIS0XyDSYCIMpF2gn2lJpWnTJpqSkJs2MWFoQI1zlIwAI8AIMAKMQBUI1EwYpHZBJQykXZAahijCQAaPUsOgniPBhKGKmuQgjAAjwAgwAoxAAxGoG2HQl1MSYZBkQdUw6HswEGGg6QhJGNRtoVnD0MCa56gZAUaAEWAEGIEUCAjCkNbg0WS/EEUYovZgiCIMP/nJT1IUhb0yAowAI8AIMAKMQKMQSEwY4uwXJGGQ0xGqhkESBrmkkowe5ZJKOtZaahjUbaHJ6JEJQ6OqneNlBBgBRoARYATSIRAiDKrBo7phk4kwqPYLOmGgzZrklIROGNQ9GGyEgTZtYsKQrjLZNyPACDACjAAj0CgEIglD3AoJSRiILNRKGNRzJBYWFsCEoVFVzvEyAowAI8AIMALpEWg4YSDtAv1smzZJDQMThvSVxyEYAUaAEWAEGIHlQuCBehk8koZBtV+QUxJpCYN6jsSLL764XDhwOowAI8AIMAKMACMQgUCAMNjsF0wHTsnpCLrKKQlJGOShU2TDoBMGfZdH0jDQkkqpYWDCEFFb/IoRYAQYAUaAEVghBKyEIan9QrWEQd+0iQiDevAU2TCwhmGFWgUnywgwAowAI8AIaAjUTBikdkGdkpAaBqldMG0LHUcYaNMmJgxabfEjI8AIMAKMACOwQgikIgy2DZuILMgDp2hawkYYTLs80tHWckpCahjkwVNMGFaoVXCyjAAjwAgwAoyAhkDdCYMkC3TVNQySMMhNm0znSJANAxMGrZb4kRFgBBgBRoARWGEEYgmDacMm9YRKOSUhNQySMKgGj3JKggnDCtc2J88IMAKMACPACFSJwIoSBlohIackCoWCMHpUT6q8cuVKlcXiYIwAI8AIMAKMACNQTwSqIgxySaXULqg2DLqGgbQL9LOdI0GEgVZIMGGoZ7VyXIwAI8AIMAKMQH0R8AiDugdD0iWVkjDQdIRtSoIJQ30rjGNjBBgBRoARYARWAoFlJwzy4CkyeJRTElLD8Morr0BOSdDBUzwlsRJNgtNkBBgBRoARYATCCCQmDHFLKknDIKcj6CqNHnUNg04Y6GhrJgzhimEXRoARYAQYAUagmRBoCGHQj7VWbRiSEAZ5UiVrGJqpqXBeGAFGgBFgBO5nBJqGMLz22muQUxJMGO7nJsllZwQYAUaAEWhGBBpKGOR0hDzaWh48JbeFNh1tTTYMTBiasalwnhgBRoARYATuZwSamjDk8/n7uW647IwAI8AIMAKMQNMgEEkYTLs8yj0Y1FMq5bJKafQobRhq1TAwYWiadsIZYQQYAUaAEbjPEQgRhnrtwUCkIY4w0KZNcpWEtGFYWFjwpiSYMNznrZOLzwgwAowAI9A0CDBhaJqq4IwwAowAI8AIMALNi0BTEAbaFpo1DM3bSDhnjAAjwAgwAoyAIAz13BZa2i/Q0dbqlIQ8qZL2YZCrJOSUhCQMdLS1nJJ48cUXwVMS3EAZAUaAEWAEGIHmQKDhhIGWVNKPCUNzVHhjc1HGzP4MRi5VUJ4ZRO+x+cYmt+KxV1CY3I3eTAZdmQFMvFJZ8RxxBhgBRoARaBQCy04Y3nzzTaFhkOdI/OxnPxMnVdKUxP2kYShN9qFtcxbFRtXsCsVbzm1H284plG9PYUfrAC6UVygjy5HstXH09mVRXAJwZxYjj5xAYTnS5TQYAUaAEVgBBBIRBnmORNSSynfffVecJaFPSegahvuKMNwpo3y7jPIdQ81eHkZbXxYlw6tK2Q3XqAHrzSz6W1swcjmceH60xZqvsG+DS2UWQ509mLhWwcy+FuzI1Z8xLBzL4KFNJ7BgSN7odOUENm7ajQsmsCOwMMalOl4eRv+kH+nc/j5kb6oe+H65ESic2oyuR+89Ir7cOHJ6jIAJgaYkDFevXsWK2DC4wqOttQX6j4Sr0AoY3nl+NQIghG+U/5h3qjAyVV7VbhFC0k4YSsj2hXHxyh4oyxoMzZRRmRlG7/E8BO8hghTwY4mr8yCit+sqYGJTCzr2zzrxJgFBpG0R5kYsUpRV1TD0jAVJTCWPQ1sHcPJSERXSQqyavxTlb7XgmrKspXO7sXHTCb/ujfUSF2kREz0taBs4j/rT1Li0+T0jcO8jYCUMaTdtqqeGYWUJw7DfaYn6dzpPORoXpGHUF2kkYLecMU8sCOGr+E3enJw0IwnD7QJmjg9gS/eD6HAF8dpMN3bsG8dc3Cg3ojO2EwbA03yQ1sTyWzi1GW2tfcj5A2+n2EsVaxgnrlkc+tcJOvvFcWyMIR4jcxrSqQlDmrK2oONhsw1D5doUhnrWCKLU0b0bE5d1ULR8Vv1YQX60B1uOTKNQJ0mZpq7roVVxyLjy7UW0UStMNEUU0zb6zzaqDqy54heMwD2DQNMQhldffdWzYVhthMEm2BtDGCoonN6Ota0tWLt1EBO5E9jR2oItp+ZRvDqFkwPd6Ghdgx1nzSRGtNyIzjiKMCRp9U7HX8Wo082TDUsnbRKM69HWcwILBsJSzA2grbUbE4taTqsgDFoMxsekZS1dGsOWdaRRacfGY67GRY2xfB4je7MomKauVH+2+6UKijKNzm7smZxH2abRWMxi1+MnkL9tiyy5e9LyezHeKWBiwGwcWg/CsHBkPdrWH8ScoW2Uvjso8D90xcsN3zACjEBKBJgwqIC5QsukOjdrGILaBzUquvcIQ+zoWh2xkwLfrmEoTvahozWDPTmXEJTPY5dmj1A84/g5dEUxgogom6m8vls64V88QxoGZaSog2J5Lp+zCHvVvyhDO3adMw+jC6e6RdpzurBsEGFwyjqIGQVmNbuB+6US5g4P4KTB8KIyQ8IsSHRE24kaLWvTXyItSuPIZkEmSaNxwaBpcnDejOz1QO6qekhV10tFZLe1o62zz5h2zYQhhnA6beMeN8KtqhY5ECOQHAEmDCpWotPRhV2QFIiOzZtmoPn09ThqEAJqtBACyzJnHxIKEQJ6kVSu7eifVLQHrhANjpzKyO1scVYryIxUishfmsUc/XLDQq2/4yn358x56AAAIABJREFUWbpfmsVJCrdpGDnPLY9iEoHopiME3abxlKsFyrgw0IK29ZoNgMy7uJIRZTvaesZR0AmBeO/GsW0qbEjaIMIgymqyuViax9GeDHaMZpG/FgdeBXP729GmYyYNZg2j5Zn90YaplVey2LPXXb0RwjAO50CAyIfEdU2aBUEWenD0qhmP2ggD1X072jJjWIhqGyaSFVlCfskIMAIqAgHCkPQcCf3gKbJfqNWGwTQl8cILL6h5bfx9WsKwNIuRapcOGtOKKqIrWPRO78pBdBgMz5xRq2VEJdJuxCoJh1ylNjoTSzBb0HtaIUIaFFQe0qwEtCaqn8o0hlpbsPGUYWFjQwiDW1YTQaEpApoeerzHGe0/3IeRXMFspClWlUSXXS0m3QtBrbcD3ZPp2U1rw5F67I+RsK5L0xjpbkfbuu3IXjNlynGrhTBIrRu1jfK53ejVp3ei2oY9S/yGEWAENASYMKiAGIV4hIaBDPAiR8Vq5Nq9MS3Nj/q4lMdIZ0tIHe8Qg2GE1PARpAAR76oWRpTXKjvm4ukeYShpNZ67nkV/Zwu6Dhvm/12MKpeIUATV+h58jSAMblk3xG1OVXaMU/steXcE5XbkUtgUVFtHTlrrcfSqh0z1NwnqupjbjY2djmYtZIiqpSymN1RtTUQbVYNWLg+jS9G6lRey2CMIymYcnXMMHJ1pmASaQDVivmcEGIEQAlURhjLtE1AuQx5rLTUM6h4McmtodR8G2haa9mEoFovQN26SGob5+XlIo8eV0TCYpw5GLucxEpo+0P0aVge4kJNdQde+8766PC1hEKsDwnPPYm7WtAGU0H6ECYbITkRnXK0wEvFeHkZHa8qO2R31Ri2TLM0dxJadJhW7bM+u9qVn3LwRViMIgyhrC4YSGTDIfGrXSh4j61MuEa1Ww0AbS63Xpqm07KR6jKrrm7M4upVWh2Sw5/CgmP6SNkC2NELtztpGK5g7PeVsloUy8kf60KuTsaUSZg6Q8W87Nh44gUO01DLUNpJ8z+73XY02x1ZQdmcEVjECTBjUykslxMlOYD1GLpvnZNVo6Z46xMDyS5HWIGZCc9SW+ITQ0+0r3Hn7A7N6cpSiIDjGVQfWztiNr6p17K7QJo2LcR7ZkEUAhVOkXWhBx7YoQmAO67m6y+msm0RFEYaFMWzQjEa9eK03bllbExo8GuOpIH84I4wAcwbjxFi7l1RCjFaXZNDW2hNeQWLMW5yjpa5vzyO7z5mGWbt1zFnea21rwTQSEwbXjmdkzvKdKNGShqPLJfnhtlFGwbPTCdvyCFsf+f5K0TydpKTFt4zA/YDAshCGt99+W5wlsTo0DIpQLs/i0D45mtGaA3Vc69djQ+vuBNsfF5Hd3IKAWtbtSP3VCFJbYTF6NBEGyzSFyGlpSuzmaFxRYO3E53F0vcUOQCt+6FF05Onm4uGG6dq5Xayfj5pyCKXnObjGkCmJigzuqKstmEtP+tXN94ZR+xSJHkR/1lXp+ntErKyJM3rU43Lm+FvQb9kvRPcf+2yr6+tZ7HpkENkFZRWLta2pqZSQ29aCNpX4GsORvyjDVzVOmiJzNDh2Y0jNPz8yAoxAJAINJQxyOmLVEgY4I7Ne3ZCOloj1ZXD0HG2xrBAMG9TCqE8TSqJDTBBWxmkiDGJ0TNswS0/KNUplrHgL3F6l0XYVc9zekrlBzCTdS+BOHiOZFs+ynaZsSIWdVGMj8+0Iw/aqpwbyo+0xqzNkSu7VK2sfjJoBzbvpsTxH8+4t6HpCmaIyebS4hUbjFn9ABYVTtMS2BV37p1FKofmxRumVP2FdGwW/HruBqBrCSePG2FVJInqpVUnfpvTc8TMjwAg4CDBhUFuCLsTJ2v3iILoCqxCcjqiLjN10/2pcyr1jbNaCAPFIGNaLRpCDoI2E2KgmNDdLISwqYy8y0407UrcuTTOFcdJy1N0pOmZvmZ2yJl+QMCIQw8gnJB3OKL0FXdWO9O9MY6izBclXDUghpC1ttUGjuy+VseBuukVkQRxapftJ8JyIMJTnkX2CpiFoHr9OZMEl0KmInUHwh4oo7HPag2ebaOEqr4wLw9dkWpIKFo71OERJt28IJc4OjAAjkBSBB+7evQv5My2rlAdP0VUePpXU6DFOw/D6669DnlbZPEaPg5i5No/c8QH0rmvHxoETmPhCj3t2gdMRrZXz7ZrQL+WGMTKjbT0rjM3asWsyi6F1ioDUwsZWmGsc6M3Fus+mpYhSkBrtFywJOaO39UgyN+xFsVREzhVKgb0hPA+Gm3IeRx9xNvAJHQctpygSdPKlmWFhgb92p2XKyJB0wMkbKQ/gQpIVCmRIt58EcBUEhYjn5XHHep924TwdsRNjIJPmh0jC4G4ZLlYndHZj5KLWHs1Rxrt65U9JljTBb0rI2aFRs31RwkmykMjOxTN4rKKeTJljN0aAEfAQYMLgQlF+ZQoT+/uEAVzbuh7sOj6NghQklSIKr+TFiG2taq2vCX1aGhbcB8AdkboHFAlBvm4zjl4qJdZOeDUFgE5pbOvswaHcNCZIUGcOIq/ZfpUuOoI0UedKkdNIdK+7nbS6IZSasOHeW75GWxGfs++foAYtL4xjB22RvG47QmRBeCS81oupCava2ctvDSNnxYo/yRSIV1Yh7C37KagFdctSvDyFiQNEPMk+xSGfsed8yHhSbdxUxsLZg9j1iHuuSOeD6K/juRJ++ZUdRmU+466K4Dd6FSTRsHunG67/CWdpZqL2fNPd8yFVPRlzxY6MACNgQIAJgwuK2PBl4ARmFhWDLXpHauTJQfSuW4Mtx/PBPfpFp0Zb8NLWzgVM9LVj6JIrwZfKmDvcjY5125FTtuEtzTnnCnSsW4OO1h6M5MhCex7F0GqJMko3y0Hr7KUiLkgr9J5BXJDxVopYyJ3ALnHQUQJBWimhcFnZWKh7d9BQzdBQpFPpShYjYskcnWXhWsLLl7ar2BbZURGv3XoCeQ3iQLDb57GL1u7rqwAqRcwdH3DW9RPpctfYB8JGPSyVsHAxi5FtjlClrZOzr2hsSwuvllX4V435NL/hR1oF0Y2HHhnAoclZn3yGPRpdhBYhahmvhg+p4LseHcTExUKwjRpjT+aolj9xXetRRxGG6+exJ0MrZAy7c7rhEk2p3MxjQpDeFqSvJz3D/MwIMAI2BJqCMLz22mtoiikJA0qkFdhoFagl5AbkaZFr0LtPmZe+PYuhrbt9oa7GLXYCnEb2+DB2be3Gxk3deMjd4EZdNWGablCj8e5JyD7sbkV8PVoIijBkcNj9IHofP4Hc1XQqayJWXduGkbsaJfW9nDk3pP4fiNjtUPO+cHwAh0gLo/7dnMKODMVRpTqfjpruyWBLijLLsmYbdsqkWsDmu5flT1XXejEiCEP5yhi27Bw3H7pVnsZQpifZlMr1rGgbR+tIlvRi8DMjwAgATBi4FTACjAAjwAgwAoxALAJMGGIhYg+MACPACDACjAAj0FSE4ac//Snk1tBXrlzBsm8Nze2BEWAEGAFGgBFgBIwIMGEwwsKOjAAjwAgwAowAI6AiwIRBRYPvGQFGgBFgBBgBRsCIABMGIyzsyAgwAowAI8AIMAIqAkwYVDT4nhFgBBgBRoARYASMCDBhMMLCjowAI8AIMAKMACOgIsCEQUWD7xkBRoARYAQYAUbAiAATBiMs7MgIMAKMACPACDACKgJMGFQ0+J4RYAQYAUaAEWAEjAgwYTDCwo6MACPACDACjAAjoCLAhEFFg+8ZAUaAEWAEGAFGwIgAEwYjLOzICDACjAAjwAgwAioCiQnD+++/D/krl8ug33vvvSd+7777Luh369Yt8XvnnXdAv5///Ofi9/bbb+PmzZu4ceMG3nzzTRSLRbzxxht4/fXXsbi4CHm8tTxL4ic/+Qn4LAm1mvieEWAEGAFGgBFYWQSYMKws/pw6I8AIMAKMACOwKhBgwrAqqokzyQgwAowAI8AIrCwCTBhWFn9OnRFgBBgBRoARWBUIMGFYFdXEmWQEGAFGgBFgBFYWASYMK4s/p84IMAKMACPACKwKBJgwrIpq4kwyAowAI8AIMAIriwAThpXFn1NnBBgBRoARYARWBQJMGFZFNXEmGQFGgBFgBBiBlUWACcPK4s+pMwKMACPACDACqwIBJgyropo4k4wAI8AIMAKMwMoiwIRhZfHn1BkBRoARYAQYgVWBABOGVVFNnElGgBFgBBgBRmBlEWgYYSiVSsbDp65fvy4On7p27RofPrWydZ8i9QImth1EvpIiCHutAYESLjy+Hdlr8zi5bQwLSzVEtVJB7+RxdOtm7NjZhz1niyuVC06XEUiGwOI4+g/nwV1cNFxMGKLxuc/fVpD/Qh8mFoFybjt25Mrp8Lg8jLa+LErpQgFzw1j7yDgKCcLlR1vQNpqP92nJiy18/nA7+ifT5jyPkdYWjFwOZofSSB3X1TH0HplH4XQPdp1LiXsweecpKaYpcTIlRW6lyQEcvUp3FczsH0a+GUlPaQr9rcOYM+StNNkX367c8AlaH3Azi/51Ywj6rWBmXwuGZmLElKVOdOzNeaY22YfsTd23/lxCdmcPTl6JyYseLNVzCdm+FrS1hn/6NyOivZ7FlsyJRP1Aqmyonit5HNo2jsJSGbmd25G7rb7kex0BJgw6Ivfds/0jbqPO9OoYuvbPonJ7CnseP59O+Cfs6HTIF46tR0cSEgDAJvD1OGHJizl8CbltYcEfijPkkIYwOH5Nnad0e2jbFIqE++isGPkIgWDobKX/tn3T1hFSYkwT4xSX//UuYQDmRlXC4AimXcdnUaynbLqexa5tJ5BPw62uHETH5ixM+g+z8NUqnEhA50GNBGh+5OPCGDYYyHMiMmmpExm1vJrznJAwXBtHb+sg4riLTKu6K/U1wyG8KN+SMNB972m3RghfA2Yi7aUS5k4PYkdmjUtA1qBr6wBOzhlIPsVj+25GZ7FwJIOhSxWUc7ux67uG8NUV9p4MxYThnqzWehaqgInNg5hJ0xHL5BN2dNK7uC7N4+j68AjEEYrh0aBZ4AdidB4seTGHpzz4o7L8EdkpBfMlOzk/tTSEwQ9lujN3/iaf5FZEdnOEFiMNpqlwsuWHNAx9aFvXY5ySKC9O4+jWNWjr7MaeyXmUDSN8e8yWN+U8TrpxjsyYOv0ScvsGkbvms5TyuQG0HZg1RmjHP44oURsJC0VBWA2EzkQYRJu0CbjWNeja1I2Nx4O6CioE5TmsyUpGGIqne9BBAwMjGvVyTEYYvDLYCMP189iTyThtpzyNIVeDUr6axZ4MaQZNFDCiDIvj2LJvGtV0cRGx3pOvmDB41Wru7L3XVd00Is6qMrIMgSrIH+7DyCXls7MIn6jMVC4NomN9eN5edO6G0aBZ4BtSsOTFGL5CnVCYnBhidZwobmsHHyQZRmFiiNiYL4M/4VQ+j12t3WLqyOQlFaZpcDIl5rolyX/p0hj6957XOuoisk8MY64a1fBSGfljPehobUfv8fmg8FuaxUjrehxd8DNdONWNjado4suiZVuXwUYSzpt244KJg1iw8lPw72wEhHDyBKTvPXiXMJ3qCUMBE5vavVF+MPF6PtWBMBD5VUmB0B4oBO06aRN6MHGtnvnmuCQCTBgkEmiEcG9EnF6Gm+qmONmHjs4+ZK8r2UrY0fkhnI7b1IEKlfrh8KgqiWAS8VvyYgxPnRCRFj9jCe/M9Z1IKGgpzB1ocYWZ9sLwWJkZRJs1vykxTYOTIS/SifKfyLZEBpBXQX587Q7c79JIyCzTVqWZYYzodh80JaCp3EW9nDUxAVdDYolfZlVoDbZNedN0cwfWYMiiiiNh7pATL7S4SdQ2LHXixOS0OSM+BhJr+rZA2BhIejCn9XiyEDPF7idAegwaBrKl6hhQSCbZOWhtPz/absS6HiW43+NgwkAtgD5I7eNS1c1CqHjv1c6MAusfgfs+Jk4x4vDi1DtXvRMwp9k/mQ8YETl5DoZVy2Fq7MGy6aNh/zkqnuLkdqzt7MPEK5pCM7KjC+eGBF9HxrQaw1G5m4zDRP47H0Tv4yeQu1pExabetuRFhNcFg8VvOMe6S70Ig728eopAGRcGWrDh2Hz4FZkcpsXUUnYjTsYUydEyRbJwAr3bhpG7qmihtDiEJqln3GhXoHoV349eb6oH7Z4IZ5sqaBBtp5Io/kuDaMv0YIs3j96CtZntGMmFp1kcQVhE4fQgssrol3A1CnE1/5Y6Ub3QvZOGToCoTfYhpzsrgQkbE5lRvNT5lvKkaAWU2ANlCBEGauvtwt7AC2LARhBor66D/aHez/vP5vx46fCNQIAJg9cQ7J19YKREDdSdM6OgekdamhxWLJIj4gx8MHmMyM5PqNi0TkSkqRrhSZLiEwnRwQkCorul/RCcuKMIggeZpwLuw0mdLJAnw8fshSVB94UxLNxxXW5Oob9zPUbmNNJBrwUmA7hgkDMC//1TyE8Oo//hdrSt22zssG150etP5IbybZhv9vNuuzPXN422Y4WCGqWYEtkc1Nao79V7YaxmUcFWg6mlzow4qflQ70X+23HoiupI7KWI/Ond2NjZgo7u3ciG2gxZqrf4Rm9acPVRtHf5zagvTPfChkMTNILo26dxIuN32/3azna0PT6FIrVhGqX3nMDCtVkceqQdXdoSPSEIT41jKBOcbiNc9bbhf8s+YfcFm+Omh6Fik+APu1ObjOgDBDaW9mPCsi5ueYxsMq+CEjjJ1UkhwkBlCfYDxnqytGEv66I/icDE88g3OgJMGDxEDJ29sWE5AtX5MNV7LyLlxhanL9QVz+LW1jEH3U3pOmkFOwxD+nqCoWdndBhLGG7OCsO1jkwGG2wdUtSHuzCGrs5BSH5Qnhu2roMunLIbZAVwWaqgSPPiLnE4ellhGJa8UHh9dCVGuUmFUQA/E94uAZsLeIx8ECMkS4caDFhBfnQ92h711eLq+6owTYGTmpZ6L/Kvqf/V9yAL9yN9GNFN8t02MSNJZCBQ8MEoKIJevCdSY4spm4D2KY9DNIVmWW5oj59sdTLo2j+N0uWD6HCt+BeOrPeXHd+ewo7W4BK90lmasmsPkSFqf8Fv1su2f0Nqd9tqAd+XGLyE4hJTPBHC8eoYNjwyiKP7erC21SFyFyyYKEnVdivyFCRDMt+RhMHQHxuXP1MbtvVJlHPCM+p9baW7p0MzYfCq19DZi4YXbNiS6csG7k9nmD5KS5zWj98VLto6fpHFQEduJwxBQW9I3yuv7YbCGEaH0vtSyR0lrsGO0/MoCyMjU9kjNAzScMkyfyyTEtc70xjqzASM1dT3AcIgX9AI8PgAjl5WtBUB/KRHRy3dr+XDLixkONvVgLcwtkuoLRDROnXrLS2zJUUD9isH0dWaQZdqBBbh33sVhWkKnLz4AjdO/lNb3C8Vkd3Wjq7Q1IoTn/zuAtckpE6Utd2wlwXVlZ0wWEkjaXTWDzubmJEAI2JHBEEhv3KackQlibSEM5SeM50Uu88GpaPN0wcgdx+M5OOVE9hoMBaW4Wm+v621Hf2nnGkUIj5BAk2rSw5iTuHeMqy46n2ktW9TQpE2Rqk7lSSo90KzqMYXIgw0uAkasnp5UsMpSXvvky6H1cPe589MGLwGYOjsjZ2nFyBwI4SMmBJQhWfaOJ3OMSj03WQCeXH8eaRFeDGkVY0hp/gog2q/QEEXxtC7dQxzchQS+ogV34E8S3caFWfQsS2LYmDEJ9+r1wrmDqxHR8T0gJEwqFFE3QvVebjDodGgNw0VN0KLip/e0QguQWcvoyFB1dE5iNhR9p08RlyiUL48jC7d4FRGGLrGYxoOQqtGwjiF/AEQ+Scr9UXTW7ubMJo12q+YwyQidS4J6VAME/3YNA3DUgkzoz14qJMGCO146OE1aNs5hZLWRotnNvsCVZDBPuwa0KcCKph5osVAUvzUxd1SHiOdBlxdDYyTlxZ0rFsjyMbJBZvUduJVCUP+eEZoDNpa12CHbafNyiyGOlvQNervcCi0Q4HvzcEpygZCK1XsI9WdSpLoWdon0b3Xr1Hfogp+/Vuk5wBRc5Km1S9RU4qi7Xg2DrHZZQ8KAkwYPDAMAlcIQ/soxAvq3ehx6M9yPt4ep00ABt0bRxhI/U8dZXTX5BXYtS9QSZLyTicM1Cnvz6AtM4x8rNq5gsKpPnTE+A3ioqSd4FZ0HKad5CjfcgREbSBihBaZDAmsvmRz8hRPhXZ37MxgRNWMmBK4M4+jNE/udfSOmjyehCXDVE/SipPmsfLKOPpJAIW0BJpH7bF4xrDCRvOjP4o8yTrSX9IzYb9zDTq6D1raGn1D/ndI+xB0jc46e0IsVVA6txttne3oyOxGTjNS3HNRaq4cm4u2HtopUMmEsAswEAHFC92ScDYtIV44lkH/U77hJOG6xdUkbTwwHSIxMlqjel6+NFzFctvOAVxQl7Dq3yztZlnX0XgREz3B6RqyvTAOknTCgOD+KGLFhL53hNFeRSn8UgETPS3+9JHyim/jEWDC4GFkEsKOm769cZ52rhPhSsiOqlsf6wTBFKdrKBmYQ0ti9Oh3blLl6TFxkRc9bXI0uXkFDt1UaKSadnQoSJXEQ4tS6Xwq1x1jsI5HFENHzbv3SMTiQDc6MoMw7sHjeQwbnSqvIm/LVyKEs5JviFFNH05GWPYbE3LJUbwQd0IXc2QMGDEalImUpjHS3Y61O6eCGhqr6t0NmAJTmRRdI3FSPJYuDmNjZzs2asZ+ipfwbXke2b3d6Fi3PbzCJuw74BJFGMoLWewRGI2jYCWm9G36U29EPFWh5cQ/i+JZZwWQXC4s9m44Pg8sVVDI7UbXuu3IqUuJaY0IESCdRARy78yj93eapkooX+q3DmBxHBtJaC8VkXsiA9s3RHnecibppkXOttQbjmira2h+X7GfCWsc9IKke6b41mpCnrSI6v4YXowhwgDQlEnvUwVgqYCTPdpU5VIZc5HaS0e7GSJ4XoJ8E4cAEwYVIRIU7lJHv/NwSYOyBNIX1OF3fjg3YmOckjT49hGBcEII++/CBjxOun4+KC0TOTC5qQV278ku4Th1jN04ZJ2sNIQjpzjCsL4Pu7Y9iI4ku/q5Rotb1rVj495sRGfv5yWVhoFGjovTODnQLfJj3hHQtXhXtAqluTHs6H4QHUoboHYSqDOZpUoJhYtkeLkmURnKV6cwQjsUktCMUTlLodx7LG/cHVEIOX06owpMSRgmwokIhcw/1W8ugbAScc8iO9qHh4hg7M0istihb0H5LlQNA5XzctbBMklbA0CrV2QdBjQM5TyO9vjCfOH4bn/FCh2q1UM7f7bjoW1j8HYiVjEzkAi/eRQwc3zAIYenC8HNpYSnCub2t/sahqUyZmhaTgpZb5olPKUnNAZEspXdLGW6oasgwobVEWKaxJ1SKs9iJKMJ5VBEKRzI3mmdq9GQGhmhEbBMgZqMPe/Muzt6PohdEj+l7q0apZt5nHQ1Tmm7uBQlvOe9MmG456s4voDFc7vRS52ftEuID+L7iCIMZCD2cA92HZ9GIcEcR/ncbnTROv1ICeInTXdpCENlbhgbM9sxdDrmHIOoMgWTDz6RunOzsyfEzGKCApMdQo9lGWgwZuAOHZKzG9kobJbmcXJgDHlFxVwNpolxEvmn+o3BUykLGWpulG1Cyafipbrba+PYQnsgTOatKns9Ymo7Hum+U0DWXSnQ1vkg+o/MJo6H4qXzCB7qjknfbR/9o1nko741EoqP+jYIXY+e8JcfU2LUFvaGCQMd9FWYHMQWA7lVl4JTFJUrJ9D7hHnqkfoDWvpKW3sPnUtAAnVgLc+Vyydw0ptuo90lifytARFgOckjgpKhJpHzzgexy2Z/oaRBWouHLPtfCG9LRVzY25O6TpUk+NZFgAkDNwVGgBFgBBgBRoARiEWACUMsROyBEWAEGAFGgBFgBJgwcBtgBBgBRoARYAQYgVgEmDDEQsQeGAFGgBFgBBgBRoAJA7cBRoARYAQYAUaAEYhFgAlDLETsgRFgBBgBRoARYASYMHAbYAQYAUaAEWAEGIFYBJgwxELEHhgBRoARYAQYAUbggVu3buGdd97xfqVSCfT7+c9/7v3efvtt0O+tt97yfjdv3gT9bty4IX5vvvkmrl+/jmKxKH5vvPEG6Pf666+L3+LiIgqFAl577TW8+uqrePnll7GwsICXXnoJV69exYsvvogXXngBly9fxnPPPYe5uTn88Ic/bMIacnZZlDvEJc4g7XL28CBmEuzn45yAadluOZCgJS9i4yFte1kKRyfmqYe5BOKyPNBOlU+cT362hB7N5WF00CE+AXfatKXbfkAR5d94OAyV17IrnBL/wrFudG3ajqHDJ5C9OIuFa2WUrVsEKwHdjaC8zXyCryKeaEdNA94RIfgVI8AIMAKrDYEHpJAmQU2/559/3vv9+Mc/hvyREJe/H/3oR6AfCXX6zc7Oer9Lly6Bfj/4wQ/E7/vf/z5mZmYwPT2Nv/3bv8XFixfxve99D9/97ndx4cIFfOc738G5c+fw7W9/G1NTU3j22WfxzDPP4Jvf/Cay2WwT4mkR0jE5FcflJhXWYjvp+hOGwCmMMfn1XlNe1C14BRlRtufVtksO+HVPL9Td5FkYQdJVQm6nIV6BmbPFtdy227va8FyqoHxtHnO5cRw6PIgdm7rRta7FOxHPK5vhJrD7n+G92YkJgxkXdmUEGIF7CQGekkhdm9UQBvdUO124iufN/j71Mi8NIgx0Kpw3er4y5h5/qwlplRxQfnTCIPMIgM4u8OKz+CU/G08VlFB0G4Phwhi6DjvHewUDzuMoHYEcdKzhyUJEZD2ty2Djpm6cvOImEUeWZDhxTUL4asg6B2UEGAFGYJkRYMIQA3jl8kH0H5hVVPIxws4UH52p0Bo80lV4WxjDhtZhzMmDWGTYhhAG53S6kTmZSMKrQhgq5SIWLk57hwUlIQzmEbsBQ1FmjbxIwWt95x8eRKUR50oUYUwbAAAgAElEQVQEhLYaXzv6zwYnRkwImPNr8qm6ORqGXHz0aiC+ZwQYAUZgVSHAhCGqusjuoLMd/ZPqASwGYRcVB+hI1fXYMKodsCLV9dv0+X13VB84/tqWgCUvRhsG8ms5RtYUfaWM4tVZ5EZ70LbuQTy07kFsfHQQh45PeYSheGYzVAJCh8BsOBY8LpcE8NBM4GiZGA0D5bMHvQMHoZ8qVzi1Gbue2I0dgfowZV51c4+0zezGBe0YYtWXvK+eMLBGQWLIV0aAEbg3EWDCYKvXa1nsWNeO/lP6EbQWIW2LZ3EcvZ19yBlOp6PjdcPqekkY2vHQIwM4mZtHUZe3XlqWvBgJQ8p59ivj2HVgHLmntqPtwKyXonpDwlW1QwhpHNxR/8jlCmYOqwTAkm8AxTN92EJTGKVpDPX4Rz4Xc7vRK4wvK8gf7sEWyxHPav7ovjjZh47OvvC0j+7RfU5KGCqvZDEkjjluwdqeHnQlIniWRNmZEWAEGIFVgAATBkMlla+MobezBf1P6WSBPNuFnYjq6jhG5JGwlTwOZVrQf0bVULgJinPnLSN+oYIfRO5yFiPbHkRH6xpsGZ3CQug4YEterIRhEKHBvqH8ASdlSiLgjjIuDARXBlgJw+lx9O5Uj9I15HuphLnDPdi4f9o/Vricx9zVCpxpIcWdjvE9vR0Pde9GbtHKplC5PIwuIgvXgjn3n5x8eEaUxumMYBlF2Moshjr7cNI9arp8aRgbeJWEDyvfMQKMwD2JABMGtVpJaB3ZjLWdGXStD46efW8GYee9JCHajt7TDkGoXMti14Dp3HqA1PcdPeMwUAnH0FAZsVauz+KoJA5H8vH2FIIwaOSgfB67lDi9LMfdBAhDBaWb7rpQIjzrggaIRsJwuB0dnWswdEkV7AYM78wjlzMRtIgM3iygaFsueWcaQ50ZkHYjzR9NswQMOU2BCV91hcbSLIZa23FIGkeawrAbI8AIMAKrHAEmDG4Fli6PY093O9buHMdCuYhsX3rCQEsnO8iKP05GLRUw0dOOXecsmzIIDUN4Trx85QR2HVFtIQyCl8pD+y10BoU5BIkIxxnbfgOEgdJz90G4OoYN+6ahFlVMUWhGlWIpZ+cw8gHDznkcXW/RrsQaL7YEl3maCrBURHZbO4TmoLMbh1KQBiI9uh1GKAlXwzDhajdK3x3EhtaWREaVobjYgRFgBBiBVYIAEwaqqKV5HO3ZjKOXpJm7RRCLSrW8EwaSyUa0NE/f1jOOQkCIKi3GQhgUH5G3hVPdaNM3PipNod/TMJAmxEaItKgpL9KGoTyNocwYFkArLnStAUA2GapNgxaT/yjIi30DpvyoYRpAhqaw+tJP+c69LhzLoGObq9m5chAbbJoc8l+S2htaUdGOteva0dZ3wjPs1KL2HitXT6D/YSIl7Xho2xgOPW4y7vS88w0jwAgwAqseASYMxiq0kALhN/yu8sq4YTWFMWKUZgadefUoi/1aCEMlj5H17djzXV17QUaPUsNAZTDs/2DK8u3z2CMEYwva1vVg6FwR5cvD2Bha3UFxRgh6Je7CqR60BWwalJc1ahgcu4VBzMipiso0hlot5ISIYqYPJ6/KaZYKaCVGWyaDrs5ujFyUBDKYv9CTwNy+c6UgF93d2Njdjd5R1RYjFBM7MAKMACPQtAgwYTBWTZgU+N6Ud0tlLEzuRldrBnukoaPvMXhHfk9vx9rOPky8oiryg97EU7WEYamI3BPK6DoQtbpKwtEw9D81j7JNyxEI6z9Uro6h9+HtyIUITx6HOg17SvhBxZ0Q6K0ZHF3QXiiPVWsY7sxiZP16jMyp+NI21JbpD90WAQBpZzpo06hrU9iTaUfvsfnAtIuSTed2qYSZ/Rl06BodzyNprw56UzKkXQrac3ge+YYRYAQYgaZGgAmDsXoUUhB677zrfXQAvetasHbrGOYMSybVYOWrWcc+gvwmGbSmJQx3ishPDmML5WfnOApydK1mAmQ3oGgVSBX/aDce6lQ3N4qwD5AGodp+BhVXNlfmhrHBKjSByrU8sqNkUNqNkZloEMgWInLlgnFKgqZJ2rHhwGxIwOdH27HxeHB/CAGNttoBt6eFdsYT6MZ9OBxQaRMrD/OtJ7BgxJz8hgmD1XYlUF/8wAgwAoxAcyHAhMFYH1GEoYy5A914aNswspejBZ+IemEMvT0DOOnZRxgTDDqmIQzCwO9B9D5+EDmpWg/G5j5FlckYwHesFDCx7UFsOTLrL3kUb504Sbh3PDxg0Dq4UdCKhYd7sOv4NAr6TImfindXlYaB9m3YOow5k+C+PoVdmTUeCVFXQdB0wQ75bl0GO44HNQq0pHOPvlHUzSn0P5zBlsdPYGYxvkDqlER/CEOv2HzDCDACjEBTI8CEoamrhzPHCDACjAAjwAg0BwJMGJqjHjgXjAAjwAgwAoxAUyPAhKGpq4czxwgwAowAI8AINAcCTBiaox44F4wAI8AIMAKMQFMjwIShqauHM8cIMAKMACPACDQHAkwYmqMeOBeMACPACDACjEBTI8CEoamrhzPHCDACjAAjwAg0BwJMGJqjHjgXjAAjwAgwAoxAUyPAhKGpq4czxwgwAowAI8AINAcCTBiaox44F4wAI8AIMAKMQFMjwIShqauHM8cIMAKMACPACDQHAkwYmqMeOBeMACPACDACjEBTI8CEoamrhzPHCDACjAAjwAg0BwJMGJqjHhqbi8Vx9B/Oh459bmyiHDsjwAgwAozAvYQAEwa3NvOjLd7xx3RcM/36J7MYce+lm3/tQ/ZmTFNYmsXIw4OYiz8BOSaiKl9X8ji0bRyFpTJyO7cjdztlPHTMdl8WCQ7xDkQ8d2ANek8XAm7mB+d4bPW4abM/AJa8iHobzVuD8QtGgBFgBBiB+iDAhEHDsTTZh5HLruNSEdnNwzCJo/xoPGGoXBrE2v2z6Uf2SyXMnR7Ejswal8SsQdfWAZycM4jum1n020jN6CwWjmQwdKmCcm43dn3XEF4rf+DRIqQDfkIP8zi6vt3HMPRedWDCoKJRn/sUmNYnwXs8FgfPttVESum7FX1CfB91j1ceF6/OCDBh0AANEAZQZ5GQMHgfaVhT4Wslwu9Co+vr57Enk8GeyXmUy9MYanU++vLVLPZk2tE/WdRyHPO4OI4t+6ZRlZKjGsJwdQwbbATmwKyW2RTCzZIX1jBokIo2S9qxIDmkdu23Q5MgcQWjrDujZikf1LiZhKj2HXjkW88mAKo7PZ8GbyvstMoIgxhAmOp3hWHk5O8JBJgwaNUYJgxhIZ+IvS+Oo9fY6WoJqo9L8ziqkgLx8SuE5TppE3owcU0NVKd70qYMDCC7WPEjtAhp34N+V8Hc/nZsODKvvSjjwkALtpzRyc7KEAYhPNPWjVYi/bERceppJHsOY+qQBb8d6c9wSYY/ijYJSYcs+AJef3anjVyCK/IqyIMuvNy4XWLix5esdOwrBgGBuV/X5Lt52mZM3vl10yPAhEGrIvq4/FERdW7Bj096j56SKCG3rRuHrijCd2EMG3rGoYtMGR9dy7nt6Bg472sDrmexZf0YFhRP+dF2bDyVxD5ACRR7W0F+NIO2zDDydxTPaQmDdXTjTFMcuqLELW7Dwk334T1b8lKNhqERHWgj4vTKnupGx9QR7H6bpsg0PwYhA60ujeULhNPidPOs148fj9l/qqKy5zACgTpxXvuYh72zCyOQBgEmDC5apdx2RWVLWgUaGTmdmq/KVbUN+sjJjaicx8TeHmwc1VYlUAccOaqlUXi7sDfwKtAgJCszg2jzSIWmIpbq5NDVTHpEOktlzB3uRkdmEDNBLbbV0NDLX+Cmgpl97egyrcYg4tM6iBmFPzlBXXzXZbBjNIu5xYiJEwMWFIcukBxB16KQPjWThvpU60QISaWOdZW76Iz199Fxivwp9eELbkM415/nR8+PmldZLM1P/2Qe2T5F1W8QIDpuIQxF3CrRcPIa0gaItN3vQL2XeYsc3VriVMJ6tzruOg5e2sHvIZhfmZ6Dj/ymHayD4Tz8RQZkuODHIYSwUq+edkbiLfOs5NUaxiuok5bMm9MHeS+ptQenhFRtjvwW1Dz1ncRTfUp7pXdKftSYxb3Ms4wj4FfPW/gbk+1IbfNOHQTDBusllAt2aGIEmDBolUMftd9hUEM3C1ubhqF8aRgbNp1AYUmLmDq1wAeovRedwQAuKDJTdDAmoRUVj+g8zXnWU8RSEbknMmhbbyAL5Jk6EGtaZVz4whgWXI1E6WwfOtYPY07VULgJinJ4JEfNhdORbDk+jZnjA+hd14KO7gGcvFRERcfPkhfZSXmxivKHOzPvvU2IeUJH+nQ7OYl/6H0eI/JdRJwjqi2B6JAtRFMf9QsBoNajlh/KpqGssrOWnbLA3lCHvrsTr/QvSx/UQqjkwfchBZj4XkTZ1Py6/mzuhvKqMct7kU+jYFTScnFoa1XcQli7+ClxOXGTQPXrxHFT4jHk08FY9aO0BZFuCzwC4RYkHMbNj1I3elsuTQ77K7HcMgbqyU3L76/ktJCat2RTEmGcS8iOyhVSLlFR2rtse2p+ZNvz8iOxaFW+x1C9yJrm62pAgAmDVkv04XgNHulWSRRzu9GVyaDL7QT8Dklj+S6DVz825wMMfuj5w2TkGBzZCCGudoxa/iFG88F4dC/0XF7IYk93u8ivlRTQx610aIF4FsbQ1TmIOaE1KGNutA+HLodUCMBSARM9mubEi0gTVktlLEwOusRhN3IJ7Cmok9qYcopG1ItWLoonEmvR0dlxNcXpFdO7sQleV1Oi5ckL5t7oaegCxvEWxFQPI+P03YP+5fvmIAw2vDR3A3EK5p9KZSqnE0+w3rW49XAiLZ9g+Hi5dyaBaAsTcDflz4/dXNcGDZuhnfp17ccXvNPLHHxrC6+7h/PolClInqLLGUyZn5oNASYMWo3QR+ATBudD8lWEquBXO40KFo73YO0jNOLO///sve9zVMed/+v/4H4f+snuvXm4VVu1kh5E8qpYlnjZ8jXlyk6ob1aKN1px8w2EWFolBhNL5gZ9wUEiixSlLLgOEglBxpaU4IkSIjkY2caSYSU7FkMQGgMe2XgEMowtPLEWTyzX+9bn/Jjpc6bPzDkj8WvmTdUwZ87p7tP96j7d7/PpT7fQqev4pXPQnbfvb3Qe6oAkYmUdelUHBgmbaxC3r1d3a5eCGrdKxjB+YCNWV9eg82Qid3pe97KdM4+5xIxdFuVbplCqQj2Iui0GRhiPzkMsH7taMaLuc6HNi/iKlKHRRz6ULGmcwKyOzTbFOr7tOsmEcQ4wZsruzjN9P6Ne1XajvG3ZgYxOXm1P9gVrQFDzk25DZn4ybdWO42Tqla/MeWd4OxXnAOs1oCjnjTLYrDKpeAtcr/sqcbOeicw1h8Azwrn5udN3/5a0lPynk3afc8XTtsN0ZPN5cgt6zzhm2uk6NBhKW3FzdIVTbpfVH2jqIVPXakTlOAdnCeVgrURzv+R4CQbn8+LiqabH47ueAAWDq4rk4Wo/Zvoh9NpOevLWbpjUpbG7H2YrgaWUZUYvUDAkT6BF7Sjkd/oNPpPJ2As1qNg95rm3g9E5aM3/ZhrJ462o3xVG1J768OzMvMSJ6SBZ1RRGXCsCMnnF4gQ611WiPdt5wQq0zM4jJctONaJKyYLuMLsDzdEhZyVgDigiItWOMDtNe7BXBzL3YCSJ685lphvUtzPnPbzy7GKqGUCMu8pGZZaJObujd+fLlabNRB2o1WP7utdUjXHdI00lrntAUi85BjHtvd3pu39Lajr27nOueLmeF0lSx9szjpl2WjBYBTTq2RCJdl+jD2cEd6etub+z3Vg3Ub8oGFQaPM5BgILBhrOYQOx0GJ0bVmFtUw/GFQc8Wb1gDg7y4NoPsR3R/V2gYICsJMgMLsaKCfemT/JmLwPwaY3pX7JhmP/LsHXEVgPuvGl+uzscNYj72lIC43s0qynUOPbxYgwDTZVY73b+tK8b367O2HEt/w+jIwwdRtA1I7oOVD9oeufBnYb7t7/BSGNStm6ZnZ57LtpkZw/6mZyaA15azOQYTO2BSncv92Ct5eNoH+6B1syRY2DPZNJjisARwGNAlzCue+UoY5qDe2rBuJUrHe05VxvV3kvJt2bANllmnu106JxpOfOm5S8kFOFnpKu5v7Z+05mQA+e9HJdyiD53ull50TJ38XTfjL/vagL3fbhwEx9+fBPzxue/cfUj65NYxBXj8ymuXP8Uc9f/jLlrf0bc+CTxwYfy+QSX5+VzA+9fvYH3rnyM2Tn5fITZeAKx+HW8e/k6Ll2+hovvzeOd2at4JzaHmXfjOH/xMs698z7OzszizPl38fafLuGPkXcweWYG//XHczj15lmMTZy5bfBkSqGxK4yIagaXu8veByHbmU8auyIYEifQfsi1GkIevrTZWMm+dA6680qQ6IF1qH8uZgz8fXUh53SErGboCsH7zd5aGlknW0ErieY7dHT6rsDKtdTcBPZtqESVMe3iCuf+OT+GTvGP2DOGRM68FN55JM/2oL46hE6334TRCWvM/moeNZ2q+WboijcfRtppcapDmapyD966N8vsshkdquIAZnS4qlUpVx6tcjl8SoxyOPNs3yMzUFqDitL23B29PWBk4mTn3Rz01HtlDzJZ5dFxTpdRcw97cFKYmGk6B1ujjEp59AOyO333b8lIdhmyz2XHMxkr/YCkYzsEepQ5O46ZbkbwqU6GmrxZ9Z+pI7vNOdl4WjgUpkbqIjQUhtmc1fyYnDJ5zVjAbNGZTtPmICcoGAwKxfQfBYNXbS7GERlsRW1NK0bn7EDykCvLA892G8sI7avGd2LYFAZWZ673f8jMaTs6gMUZ9G1ehYrqB9EyGDOnHZZSiE+F0bl5Fapqup37JNg3no+gb5t5PfDfrZB8Kh2HnaTxLdfWNaCl6UFUVdeYu0/mEgCpOCYt/4idQ1b+HQm6f2R3xu4Qjt9LKSRmx9DXXGPkpzNrHai+I3OkYfywOmsx+6plz6ozZVBwX1PjeaVpD/KWD0LnlDJAua6p7cTuhO3B37jWEEZEdmt039eVr84pPVN3WtneJ9agYOXV0S5tgK482/m0L8u3OfDY7VvhpwYyjvX5zBIdWWlmplLSSRr5cg2cWYOV7n5KfaQTc5/TxbOnm+xyKkLKqA99uR114JrSsgdXXTtIZ83FP9vXwRYR7vubZbDbkdS9kRdXW3LWnXPKzRZSmfy5eWusHVl1ICXR80yXkQd3NQEKhqzqMR0Y125oRt/JGJKOATKFya4HUWV1qqvr2hQxYSUkD/Wj/YHN5FnZsE6I0+Da0BZ0jsy48mIFWIpjdFcdGg9M5Hmb97iDdHCujiMd8nI/6h+qQ8uhMcTyznIkMbojhMau4Yx/RDohr4NgnUdqsgO1oS1oH5xA3GNWxutOPE8CJEACJLA8AhQMy+PH2CRAAiRAAiRQEgQoGEqimllIEiABEiABElgeAQqG5fFjbBIgARIgARIoCQIUDCVRzSwkCZAACZAACSyPAAXD8vgxNgmQAAmQAAmUBAEKhpKoZhaSBEiABEiABJZHgIJhefwYmwRIgARIgARKggAFQ0lUMwtJAiRAAiRAAssjQMGwPH6MTQIkQAIkQAIlQYCCoSSqmYUkARIgARIggeURoGBYHj/GJgESIAESIIGSIEDBUBLVzEKSAAmQAAmQwPIIUDAsjx9jkwAJkAAJkEBJEKBgKIlqZiFJgARIgARIYHkEKBgC8Uug9yeXcIp/WjkQtcIC/xm/fzaKI1euofsnMbz9RWGp3NFYN69ib8cMvrU/ii2vfnxHs8KbkwAJkMByCVAw+CKYwqkXouh9fwkLY1F8a+zPvmJlAl3F00/O4Mi1zBlfR2cu4kt73sN5H4FPHTmH+45c9RHSIy/nLuG+Jy/hVFYKn+L3z57Dlrc+y7qiPyHpn8PT55xXJX9fG73hPJnvVzSGh3/1IWLDM3jsjU/zhc5/ff49fO2HFzGaLylh0fEe3DT9MzazcnX0AvZGlwB8htFfXsKpe1H05KeaCfHpHJ569rLC7VP8/uAMet/PBMkcLeHtozN46q3FzCkekQAJ3NUEKBjS1XMDRzrO4b4ndZ9LOBWN4YFfXsHNG5fx2LMfYCEdz8+BxyCdJ+rbR6dxvy8RAPgfzDzy4ikYAMnHV44l8uTWvhxEMJhh9czNevibn15GTJgfuYqbAK6OznjUkVVvv5gzwtm5Ub8X3rigFQJqGOPYt2DIl/9pSzAs4dQRVTDcwJHuGTz2myu4mhJBsUL/5t/Dt8QakywgzcQV9P4iige2Wxy3T+Nrz8Zw6uPstLLrwBaaIozO4am3LXF57T18rfuy/lm58QEe+5FpOVpIfIybX1htWPv8ZQvQFSLGZEiABAIQoGDwDSuB3v/08XaqTc9jkNaGtU5+8SH2turEi5y7mPW2eisFw823LuA+3yIpiGDIBcASBz4FE/AxjvxnLivGn3G024vnDI7MK3nxLRiUOJpDY2DdrpuS+BwL789hrwjUlmlsGb2GhZWwPiQ/RLeV5lNvfaLJ0Q0c/cVFHL2izqktIfbGBTyw6wKOXPgzFqSuxbry+Z/x9ugFPNASxZH5bNGgSdw8deUynj75EYAlvP2rGUswKaFTV9H9mzkc/cU0nj7/GZC6iqd3mfeQNmxbpk4dyVjk1PNKSjwkARK4zQQoGFYc+CJODUTx1NvqtEVwwXDz7Yu4vzV77t54S/7P9xBz5ftWCga8P4uvtFzC2/Y9P7+B0V9FseUNpYyGhcJrQHaft99I7QT13/7LBCD5AR57ctrD/A3gyiwefjKKo+5ZkQsxlLsF2AoJhvz5/xxX376Ebxx0W6w+xpEDFxF0Bseg+MWnhqn//ifP4eHfXHNaW764gqeenMbeCwrvCzGHKDBETlqkLSF2fAb37ZnNtLdrl/GtH03jK23K50fT2Hv+Kp7+oXKubRpfevIcHrDC/c2APcHzOWLHo7jfsDwsIXZsBt8YNf07VGGwXMEw9d5nWPOjDxwfpdQ8JAESKIAABUMB0LyjLCE2GsX9WW9lQQWDOT2im/M3pinSnW8mJ/kHJzusR16MAd9rIL+Kp1vkLdwc4L62/Ry+cvA9nNeavlfKwrCEU33nfE+FGFYQEVh2MR3fn+HUkWmUW9Ma6iVDgP1UnXcHsCKCwcy/P78SNUe2+Mm8YQMmU+3UTXpwV9NYwsJbF/GUKujksiGOLmA0bWAwrS6PKeFEIJQfVZxtvpC6zyHE1NumjyW/Xm1JApnPyVcOXMA3fvoeYpZ1ZSUFQzorAOp/No//sfGSeorHJEACBRCgYLCgGQOux/yp2lHbJtNs1p8bYuFLLVH0zroduTwG6exEjDMy+N2/6xLeTnfsdkDT7K5zQDTy33IODz8bw9EL5pywHcv57ZGXnILBdHx84EfT+NKPLuL3ic+dSTp+mYObm5PkTyeAHFEdP7zL6ghm/DDz5xjo1EDvz+LhlijUcdC87CFKVkQweEyRXIjh4Z9cxNELinVGzSsAQ8Sob/Wu6/ZPpzXAPuv9LWLTMbUkVpmWi4qAMP0InPX0GUZ/cc7pdGq0FcVqlOUgmk8wAPjiGrrbZCriM5w/+YEhGm6FYBCx8IvXP8E/Pv2BNxheIQES8EWAgsETk/mW7x74tMHTZuAZdGeJBYnhMUhbiS28cQl7o5bIuHYZ32iZxlNn3KIDgDiRPXkBv09m58IQDL+8jFOjF/GNH57Dfdtn8PTYNSxkje0eeckhGG7OzuJb28/hW8N+5tp1gsEcmJ0DUXYZHGdSc9giK0tU3wJHAOWHMd0wg94ryjn70JgjP4evHdcsa7Tenh0meom3EoLByP85PO1e4pL6GKeGL+ArLedw/48u4EhWezHf+h8eFj+A3P8CCQbLJybtkChJSzkdvin6Nu9X7J0aOJeeqlCnI76yK4qjDp9Zayri1RvA5zdx/iWZwhMrkCJCXOLd6zkUQSBiQP18r8+0kNhiQYpKwZC7LfEqCfghQMHgScl8Q/TqqNLRElcM57X7d02j3NMM6zFISyJfXMPeXRnP8oUzl/CNAXNFQPoexoHZyd4vKzWcF4xfRmdrm6e/+MycG7eEw95z6tusR15k8GhT5qrte8y/h29sF+c1jYCxwzi+dYLBHIieOuPfec6YYtDlx3Ev+WFON9zn5Y1/5T18a3/G7K1GNyw5ujf5HILB72oRI/9PquZ/9c4ALD+QrGWFhk/BBYzqKtmVRBDBIMuB73P5xGTHt6aelBkJuaWjbckJ4aMO6EEsDInL+IYad7vp9/ClZz/A7wtwemx1KhGD0MLiFxDRIH4M9j+xMvAfCZDA8ghQMHjyswY+9xuiHf7zG+k3RePNW9b4BxYMshZ9Gve759Dte6jfN+ewpUUc1vSDblanLnHF8vGbKPaey3ScXtaOq69GcZ87H18k0LvHw9qh5s1xrBEMhrOdT2uBkZYpMPy8Zd88fwkPPDmNB3adSzvPObLj9cMom5jaVTFlBdYKhk9w9Kfn8I1X/Qw8Zv69xJ1XlvDFxzjy03N4IGvuxEzPMUjbg64tEj0TBWC0neyyZgkGacMaPxBpW4GsQ4ZFzcuHYRELiU+xkFoylsia6d7A0SPvoXcFBIOIBbEmiFiwP7nQ8BoJkIB/AhQMXqxymP+NKDIX3XEJo/Z8vhHeq5PUv9XfPHfJ4aHulRVgEaf6pnF/jj0GtILBO0HXFXOeOssHQJzkdG/grth5f0ZjKNcMRF7xZA7//hYfb9k3ZUmeKRQWfLOUuyre/36XMxpTDK4VBh4FMPL/pGxYpBd3+miWw6zWd0UfI2vA1wWzRIhOlBq+EorgMPKdZcFKoLfNuXGXcV9bsMi3WIIsq8PfWCso1CkJc28H5dmIxvCtVz+2BMNHODVg7p4qbdi26PldJeG2MKiWBbn26vn/1lHhORIggQIIUDBooZnmf08ztxIZmpQAACAASURBVC5OIMFgerHLm/HT5/KZ+hdx/ljUcII8lcNMvSzBYOR9Gt2zzoIZVgdlQHFe9flLBqyOc/BjLZAUb8ruji0+uNz8EHv/8xweSK98+AxvD4i1Rj/9kMmtxT5rJUsmhO7IGCR3xfLuuin+Ht9o0VkJdKna56ylhoXkKVf9fP4RjnSLr8QlaNuOCML0dILpO+HwcZDsidhzOUYKC3tgNyxW6TTs8ohAVgSCfdr6FmEiO3dKOmJhkN/iyLsSgkG9FQWDSoPHJLB8AhQMGobGm3/QN0S/giH1MUYHZnB/iw+/gM9v4PdiWdh1EaOaHffUrBcsGJLugVdJ9fwla728ci7I4RefYPSXfgZxSfRzxMZMZ0B5+8z57+M5PPWjc/hS9+X0kjwjvIfpPZ3WF5/i/HAU+pUs6VCugyUsnPcjYj7H1cmLhjPjV7Q+KK5k7Z/JazhycBr3b9etrrED6b8NEaMVDEtYePc9bDEYzeK8l9A0HCHFUfdzYHYWD+9y7fuRvJK24Kg5WJ5gEGuWuWTUFgyQqZCBqxQMKmQek8BdSICCQa0U8Uv4rQwo03j6TL4/OKBGtFcweL1VyRvXNL6xP4q/acm1h4GVpuW0mN7vwKvDV7IQTDAs4ebHCfz+N1FzgOub0+80aDlkPjxwBbGbWcstlLu7DlOf4PzkJWO1hrFfQ878f46FC5fxtOxQKIPmu7m4Zwblh49+qM2zMYhmTWfIPawBtOOSdrtjVwmALz4zdmPs3j+N+2XVinbnRIml5F92bRzLv7rBTPsKjhzx2R4MMeqxgkAVDJ/fROzceyZLnztIikVH2tn9P1QEi6zkGL1onNeJH4OxOiWRtZFYDgtD6hp6f2FuPJYWDFjEwo3PC1olYa+IyKo/wHB8nL3+F90lniMBEiiAAAVDGpq5Re7DP1H8EtLXfBzktDB8hN7/NPdI+P0HuQZE8z5ion1A1urnHDydeQokGG5ewVM/msa3fjGL0XnVIdKZpvEreQ1Hj0TxFVlxoQ4ScpxlihZHS9lC239ZIX4IbV5LQF35kbA/uYAjubh88SG691/CKXVHR/E3abuA7rfVk660XT9vnrkIWQ64ZTjP33uw8h/k70KIo+ZXfih/S2IO528EEGKuPGb9vDKLr+2K4unRq7hacLKLxr4LD3R7tz8Z6DNTEtfQ2z3rmqrJIRiUTGcEg3lSnZJQgjksD+p5Of7JyIJjSaW9vPJffjJnXHOH528SIIHCCVAwFM6OMUmABEiABEigZAhQMJRMVbOgJEACJEACJFA4AQqGwtkxJgmQAAmQAAmUDAEKhpKpahaUBEiABEiABAonQMFQODvGJAESIAESIIGSIUDBUDJVzYKSAAmQAAmQQOEEKBgKZ8eYJEACJEACJFAyBCgYSqaqWVASIAESIAESKJwABUPh7BiTBEiABEiABEqGAAVDyVQ1C0oCJEACJEAChROgYCicHWOSAAmQAAmQQMkQoGAomapmQUmABEiABEigcAIUDIWzY0wSIAESIAESKBkCFAwlU9UsKAmQAAmQAAkUToCCoXB2jEkCJEACJEACJUOAgqFkqpoFJQESIAESIIHCCVAwFM6OMUmABEiABEigZAhQMJRMVbOgJEACJEACJFA4AQqGwtkxJgmQAAmQAAmUDAEKhpKpahaUBEiABEiABAonQMFQODvGJAESIAESIIGSIUDBUDJVzYKSAAmQAAmQQOEEKBgKZ8eYJEACJEACJFAyBCgYSqaqWVASIAESIAESKJwABUPh7BiTBEiABEiABEqGAAVDyVQ1C0oCJEACJEAChROgYCicHWOSAAmQAAmQQMkQoGAomapmQUmABEiABEigcAIUDIWzY0wSIAESIAESKBkCFAwlU9UsKAmQAAmQAAkUTuC+mzdvwv7893//N+zP4uIi5PPpp58anz//+c+wP8lkEvL55JNPjM+NGzcgn48//tj4fPTRR0gkErh+/brxuXbtGubn53H16lXMzc0hHo/j8uXLeP/99zE7O4t3330Xly5dwjvvvIOZmRmcO3cOZ8+exZkzZwovGWOSAAmQAAmQAAmsGAEKhhVDyYRIgARIgARIoHgJUDAUb92yZCRAAiRAAiSwYgQoGFYMJRMiARIgARIggeIlQMFQvHXLkpEACZAACZDAihGgYFgxlEyIBEiABEiABIqXAAVD8dYtS0YCJEACJEACK0aAgmHFUDIhEiABEiABEiheAhQMxVu3LBkJkAAJkAAJrBgBCoYVQ8mESIAESIAESKB4CVAwFG/dsmQkQAIkQAIksGIEKBhWDCUTIgESIAESIIHiJUDBULx1y5KRAAmQAAmQwIoRoGBYMZRMiARIgARIgASKlwAFQ/HWLUtGAiRAAiRAAitGgIJhxVAyIRIgARIgARIoXgIUDMVbtywZCZAACZAACawYAQqGFUPJhEiABEiABEigeAlQMBRv3bJkJEACJEACJLBiBCgYVgwlEyIBEiABEiCB4iVAwVC8dcuSkQAJkAAJkMCKEaBgWDGUTIgESIAESIAEipcABUPx1i1LRgIkQAIkQAIrRoCCYcVQMiESIAESIAESKF4CFAzFW7csGQmQAAmQAAmsGAEKhhVDyYRIgARIgARIoHgJUDAUb92yZCRAAiRAAiSwYgQoGFYMJRMiARIgARIggeIlQMFQvHXLkpEACZAACZDAihGgYFgxlEyIBEiABEiABIqXAAVD8dYtS0YCJEACJEACK0aAgmHFUDIhEiABEiABEiheAhQMxVu3LBkJkAAJkAAJrBgBCoZCUc72o35zP+KFxmc8EiABEiABEriHCFAwBKys5Hgb6vdHkEIcA3Xr0DsdMAEGv+cJxF6oQcWeCaQ8ShLpKsP6QzGPqzxNAiRAAvcmAQqGoPW2cAIt1VswsgDEB+tQ1RUJmsLKho/2YP1DNegLIlzmw2gsL0PjUMJ/Xs4eRu2jrRjVRbHS65zyn1ygkFMdqFjThvGkEmspheRCMv9nUYljHKYwvrsSaw/q6i2CTh9cEkMNOdmJYPDLNjG0Besfb8PAyAziSS8J4i4Df5MACZDA7SdAwaAyl4GpvCzHpwHh+RQm91SifjAOzA+j5fHhgqclZOCpKO+AbuhSs5Xr2HjbrW7DZJCxphDBYLCR8mtyczsEw7oeRNVbW/fMXV9lqMgSdAmEG8qw6ahuMimCfdW6wd6Mo7+XySRxTOrSq+3kqOP5CML7m7EptMqMvyaETds70Dc0hshsAqkltdA8JgESIIE7R4CCQWXv463V6MDP9qPzeMzTJK0mmet4+YIhhoFHvQYp6/zeiews3CHBkJwdQ9/2jah9qNIaXFdh/aNb0D44gUSugVHESkMYOuOGWThzQG885gwhb/rZgsEUBS3HVXOFjchKJ4/lxbAguO5lpwCIBaMMBVlbFhOITY0hfKgNWx+twdqQSyRlbsIjEiABErjtBCgYbgfypQTG9zagc9w5oC1XMKSmOvBIeR36pjWm+blhtJSXofYFzVz67RYMizEMbJM36FXYtLsfI89tQUX5RgxE44iOHEZLTSUq1mzByJxHZegEw2JSefs2B3r3IK0VDEsTxrSDO6x5ZzMdLbN01pIYbc4lCOIIb6zBwGw6Ag9IgARIoCgIUDDc8mpMIdIVQkV5CJ1TznmD5QkGc3Craj4B3bsyZvtRW16GzklNAW+nYFiKI9xUiYpQK0Yum3lJHm92TsWkw3Qj4kRkRhDB8GgHRkb6sW/3lrSFIjPoewuGrMHfKLvXgG6m47ZKmPXkbclpHIoY0xzeUxIuS0dqDO2e0xfKfUIePDRVylMkQAIkcKsJUDBYhPMNCtmDgcd8vlpjYlnYY4qFncez58yXIxhS422oKq/zfJM1B+UGjDiNGmbubqNgiL1Qh4rqBoQV64FR7upup+/GwjC2lpdh64gtf+IY37MFtTUPokoG1+oHUb+9AwMjE4heVq0LUiRzaiYjIMxiap0PjbJ71Z1eMKhVmjrdhqpQCLVNYcQ10yjxow14pKkB9aEORLIcLjMppTwcNhOzEYwebMDa8jJUNfUjliONTGo8IgESIIFbT4CCwWac0pj1pVM/2WaZz7Ov53RIs83w1TXYN2kPgvbNzO+CBcPiGNqry7DeWN7pTNP8Zc6jVzzaD82EBGAJhqqHGtA+OIZYQvda70q3EKfH1ISRT/eKgcj+So1PgpXntMUkicixMMan40iO5/NhkNUN2SJgcq/GgTEtGFKY7GpG+LJa9jyCYTGCzlAI+86mEB9qwNpt/YgqVStTROurmzEqK2iGGrC6kAF/LozGaooFV+vjTxIggbuAAAVDnkqQN/kKzWCUK1ry7GFsWmOalvXe+GZsX4JhaQYDe09k3mbzme8laWugzjLH25m2BMMjGxpQb+VzdV0z+k7GkNS8NRvRChEMUx2oKm/GqDKo2k6BFRpnTE8eOh8GuyzynRhGY3kbxtWxH+bg7xYrplhqQHhKBuY2jDve4HMIBhGATZVY3yV7cMi/FGIvNKCqpgfRVBLRoVbUrqlD77SdCet6qBVhVVWo+XYfG4KkDFUbehB15MsdkL9JgARI4PYToGDIw9wcxNyDnkek5AzCu2pQVV6J+v0dhok9a8BSonoOkEoYmVowph6s+X8kJrBv8xaHiV8JbhwaZnOZrrDjuANYgsHI21IK8akwOpss0/+ajegcmckWDgUIBmPJ58awa9mpOX2gFVKTsqxVw1onGFRhc7YbVVnWFEswuFczGGXfiK3b1uGRAzMuMnrBkDzbg01rKlF/cCZ7ZYyVj/jJMCY1S04T4x2ora7MYQ2ysmAJwaqa7pxTGa4M8ycJkAAJ3DYCFAx5UMePbnQ66OnCp+KYPNCAtWJKrrHfKPNvApRXMCxOoHNdGapy7CqYnR3ZgbIMFduG9c6QEkEVDEoCsuyxd7O5H0BVnWs6I5dgiPbgEXGwdG3cpF2lkDxhrN7QOmN63SNLMMQwsLE1vZGTCJPsDbT0fg1IOxzqBJUZJ0vkLc5gfNJyBjHyqDgm5nBeTPNIxpHIaTEwN5OqyOP3oFQVD0mABEjgthOgYMiDXObBPX0B7LiLEezb0IDe06qH4XIFQwqTe9ehwpoTt2+V79t0hsyzZbWHYLDTTpzsQMug1vvBDuL4th0s3Zs6aQWDdprCTM7c/MiHhcFYGmn7LIhAqkT7aXsqwM6ayT89aNunLQdJbZ1aSy7d+zmko8qBIRhybMRkBDYtFdn3dqSU/iH+DoZjp4iPNRvRl57WSAfhAQmQAAnccQIUDLmqYGkGvfKGn7VbYK5I9rXlCQbxtq/SLMW0U9d+2w5zu8eyTedqhDyCQQ3q5zjSVYkK906MAHSCIXpwHSrq9H+0yysdyJRDdRtG503H0/hIM6qs+xkCSY7VKQrJtGHJsEWFn1IAMCwl69Dr2FLSFXeFBYPhKFleicYXZpBYSGBSluCu69AvL3VlhT9JgARI4HYSoGDIQdvX27pn/EIFg+UsJ4PIUPZSTM/bWQ5zvszaKykYrBUb2f4AgCEOmoYzOzRaAszYVttdEMtRU5cOlsTh0PKxKC/D6tAW8y3cKHMltLs2zoWxKcsR0n1T5+/oAbHodCDiFh9qsEKmJNT46rEl8DKOlIC5f0Yl9p1VA/KYBEiABO48AQoGrzqw/QfSy/y8AnqdL0AwLMYQ3iH7NsgbZ4CtpxNj6My3W6KazZUSDPaKDY9pE9P50vxDXXJ7b2dMe3OrABYB20nQy5oiA7vG6qFiUI9T0z2oLy8z/0aIesF9vFIWBhFBdbJ80rWfg59pEXee+JsESIAEbgMBCgYd5MQY2kNl8PW2rotvnPMvGCZTcUQG28wljtV12Gc72HmmbV1YspbzGc6WHXDtPO0deyUEw/yE5SCZvYNl+sZiUQjJMsFujJzsx86QZu8IY9tsc2WJb4tKMoLeDZXZg236xoCxQsOn2Euc7ka9sfeBa/BW0ksfrohgsASSa0Mr8x6ytXQZKryEUDojPCABEiCB20uAgkHlvZRAZLAVtUEHYDWN9LFfwWB73K9C/e6wYyOgdFLuA1kKedr6Gwzy9xkO5PnjTe74hQqGpQSiJzNLMI0VIRfdzoaum82dQHud+Xck6ndn9pNIzc1g5FCzJZJqsv7OhisV82daIFWidu+Y8w9WpRKInp5BfCGJxHQ/Gqs9pirshJMxROTvWFh5881wBaYkzKmuSrQ7N46wc2ZO5ZTXoX1oDJOnJ8zPRcdmFumwPCABEiCB20WAgkElvRTH6K46NAYdgNU00sf5BUMqehibQnVoOTSG2EI6oo+DBEa2hdDYNYxooHhW0oUKhlQE++rkzy8fxsi0uiLER5ZdQWRlxdrQFnQORRDPoznsqPHjrahNL1u1z9rf8mae+SuY9V0uQWEHs78XTqDloTq07A8jotk/wQ6W9e3bwuDlh5BE5GAD6j136QSwOIO+x0NYrS7ZLMjxNiv3PEECJEACBROgYCgYHSOSAAmQAAmQQOkQoGAonbpmSUmABEiABEigYAIUDAWjY0QSIAESIAESKB0CFAylU9csKQmQAAmQAAkUTICCoWB0jEgCJEACJEACpUOAgqF06polJQESIAESIIGCCVAwFIyOEUmABEiABEigdAhQMJROXbOkJEACJEACJFAwAQqGgtExIgmQAAmQAAmUDgEKhtKpa5aUBEiABEiABAomQMFQMDpGJAESIAESIIHSIUDBUDp1zZKSAAmQAAmQQMEEKBgKRseIJEACJEACJFA6BCgYSqeuWVISIAESIAESKJgABUPB6BiRBEiABEiABEqHAAVD6dQ1S0oCJEACJEACBROgYCgYHSOSAAmQAAmQQOkQoGAonbpmSUmABEiABEigYAIUDAWjY0QSIAESIAESKB0CFAylU9csKQmQAAmQAAkUTICCoWB0jEgCJEACJEACpUOAgqF06polJQESIAESIIGCCVAwFIyOEUmABEiABEigdAhQMJROXbOkJEACJEACJFAwAQqGgtExIgmQAAmQAAmUDgEKhtKpa5aUBEiABEiABAomQMFQMDpGJAESIAESIIHSIUDBUAp1PduPxv0RpEqhrCwjCZAACZDALSFAwaBgjXSVoaLc+WkcSiAx1JB13gzXgPC8koDucD6MxnU9iOqu3epzqQj2NfUjtpTEyLYtGFkIeMOpDlQ0hJEIGG1y7yrUD8Z8xEog3FAGYZz3n0dejDrriuSNnj9ABJ2uuu+csmJJHarXgjC5k/Wfv9AMQQIkQAK+CVAwKKhk8EkPEnJ+qiM9mKnX1GMluv5QBowgA4ykspTA5GAbtoZWWUJlFdZvbkbfpGZgdQ9m6sDWNYHogRDaT6eQHGlFyyua+Ppcm2c9BulcUYAZ9K6rdHL0jHCLBUMQjro8LlknhXFalETQGaQ+C6l/XV54jgRIgATuMAEKBqUCsoSAp2DYiPCcEtE4NAc/t4Ui9+8OZL0bz53AzlAIO4dmkEyOob3ctGIkp8PYGapE41DcfePcv2f7sWn3GJK5Q+mvFiIYpnvwiCpa1OO9E6773ELBEJCj1H1WXdnC4Gw31h+csfKuCIazh9F52ia7QvXvIsSfJEACJHC3EKBgUGpCN2jY5vKMmJCBoQEjWS/r5vm8UxTp+4kJ3CUYlmbQq4oCw3qghJkT03gdBi6nE1m5g6U4ws3NCM8qng6BBUMKk3sq8cgBe3C1s5fEaHMZNh11i51bJBhWmGPsuTrDSmOWJoLOR/shEy6pk61oPGY3hBWofxsXv0mABEjgLiRAwaBUSkYUWCe1FgYxuSuDeDr+8geM5MgWVDWfyFgD5sLY5PJ/iHRVovYFP/4B6Yz5OEgh0hVCRagDkUUleFDBYAgcnV+HOU2x76yStnF4awRDYRzNvGSsDGY5Uhf70VjTg6g9PYEERraZU0VVD7ViNO0Xsvz6d9PhbxIgARK4mwhQMCi14UswJE+gxTZVK3Ezh9nOc5lByDZ76wZVeQuvVN5kTR8Kt9NharwNFWlR4edeck+dwLFyvJTE5P4aVIXaMG6/LNuFCSQYUhjfXYn1utUYInzK2zCuGC/MW1iD9JoQtnaFMTlrm/ftDCjfHnkxrEJp/wIJXwhH5T6OwxQih3qyuTjCuH/4qRNd/bvT4W8SIAESuLsIUDAo9WEMPuqce7l48IezvOdVAeBwklTSyhxqph4yF5UjCdeMUWXMNFZnOAZDvYhQEgHc0xiOi64fS3GM7AihYp1GLEhQj0HaTCWJ0Wd6ELUsEoljDaha14FJ1UJh3c4oR1rkqHkwBcOmQ2MYP9SM+jVlqKppRt/pOFLpN3orvEdesgVDoRz1FgZdmzDrP4Tes1kKSC2cdey3/jVReYoESIAE7iICFAxKZcjg4BAA7kELQOyFBvROK5E0h8njrahPTxv4HDA0A31kvzg5ul77ZeDMZTEw3uZzWBSs/CajYeysqcT6UMh76aTHIG0kEe3B+uo2TBpjZhKTXQ3YN6UZQJdiGKhzWU7SzMxBOl3GpSSiQ22WcGjFiA9/CqkzxxTNSnFM5xGQKY76QcX/YuEEWhzTFEpgsXEUUv/OJPiLBEiABO46AhQMSpWogiE12YHatGe8FSgVQWdTHepdfgVKEsZh7IUatKft7yIY7KkI+1tjks4a6OIIb1yHXvcGDrkGcbm7XK/uzl59YWcyGcP4gY1YXV2DzpOJ3FYEr3vZToVphz878exvmUKpCqk+AGoYl2CwL4nlY1crRtQ9LrR5SWCkqUxxPITGwuKXo7ueajAwa2VI6j3UYK2MkamXGnTqxJEVvKD6t8vObxIgARK4SwlQMCgVowoGQAazusygAXEMrEPn1FiedfiySZK67NKnhUF8I1TLgfxOv8FnMimDUcXuMc9dG73N/2YaxtvvrjCi9tSHdiC27qe9ZjpIVjWFEddYYDI5BbA4gc51lYp4clyFydjnxk3uqPI7JctOXaKqYI7Oeop0OUWdCMhHQm3o3VuHTYdmPPmLD0VB9a8rH8+RAAmQwF1EgIJBqQwRDO0n44gMdaAxFELj7lZssubeE+Nt2NQl2ysr6/CVuOlDsRRUVyrWCedAlA6XdSArCTKDlOHpv2fCOTDJm70MwKc1pn9JzzD/l2HriK0Gsm6SfUIrCqxg7mtLCYzv0aymyE4VWIxhoKkS6w1mugByzsPC4BXcdd4QR6HDxhLHzKVCOTrryS0YAFky+iAq/qkVo65Zosy9LQtHQfXvSIU/SIAESOCuI0DBYFRJApPPtWHTmkqs3dCMvpMxJI235xSSCymIWKhNv1ErgmF+GO2H1L/RIObqVWgfj2O0uQadkzJwOweiXC0gemAd6p+LGQN/X13IOR0hqxm6QvB+s7eWRtbJVtC57uK65hYF6mXlWmpuAvs2VKJqQ8bRUQ3qOJ4fQ6f4R+wZQyJnXgoXDMmzPaivDmmnBgrj6Kwnt2CIj7SitqYDffvrUFVdh32ndaphefXvYMgfJEACJHCXEaBgsCokMTWGaHpNvXUyOYPwrhqs3aaa3yPo3BiG4QJ38TDq92f2aowfbUCt/Ua9OIPeDauwtmkj6mVJ4UIy2/Pf3RgWZ9C3eRUqqh9Ey2DMtC4spRCfCqNz8ypU1XQ790mw489H0LfNvG5oFPu8n29FFGQFl2vrGtDS9CCqqmvM3SdzCYBUHJOWf8TOISv/WYmqJwIKhqUUErNj6GuuMfLTmbUO1Eq7II4iGGwfE/k2rT3J2TH0bl6F9TvCiNkrQsY7UFtdhtWbezB+OWPtWXb9q2h4TAIkQAJ3GQEKBq8KScnOh3XIHvjUjXuaMWJtEZ2a7kH9tmHnvL4M9tPDGNjbjE2P1qD2oUrX9sPOZZS6rIjT4NrQFnSOzFhWD1eopThGd9Wh8cBEnrd5Vzz7Zy7BcLkf9Q/VoeXQGGJ5ZzmSGN0RQmPXcMY/wr6H53cwwWA4ooa2oH1wAvHMOO2ZunohL0eXJShyqAEDJ4extU6WeWqsCckZjHQ1o89ySr1V9a+WgcckQAIkcCcJUDDcSfq8NwmQAAmQAAncIwQoGO6RimI2SYAESIAESOBOEqBguJP0eW8SIAESIAESuEcIUDDcIxXFbJIACZAACZDAnSRAwXAn6fPeJEACJEACJHCPEKBguEcqitkkARIgARIggTtJgILhTtLnvUmABEiABEjgHiFAwXCPVBSzSQIkQAIkQAJ3kgAFA4Dr16/h+ef68OP23fyQAdsA2wDbANtAug3I2CBjBP8BFAyAIRam3v4j2wMJkAAJkAAJOAjI2CCigf8oGIw2IJYF/iMBEiABEiABHQGOESYVWhgAw/SkayQ8RwIkQAIkQAIUDGYboGCgYGBvQAIkQAIkkIMABYMJh4KBgiHHY8JLJEACJEACFAxmG6BgoGBgb0ACJEACJJCDAAWDCYeCgYIhx2PCS94EYhho6kYk5R2CV0iABIqDAAWDWY8UDMsQDJGuMlSU5/80DiW8n5rpw2g8FIE67qTGO7DpQARJ71jGlcj+SuRMO0/8QJcnO7B6Qz9iPiMZbLoiPkMHDxZ7oQYVQdM/242qjWHEg99OiZFC5JkGDMwCyZEt2DqSr5aUqMZhBJ3lDQjPu8/n+R2Av3/2HnmZ6kBFeQfctVdYe5N7lKFzylk+yWPgtrs4gc7NbRjP8Tg57xLw11wYWzf3I6Y+jAGT0AVPDDUEb6u6hHjujhGgYDDRUzAsUzC4O0J3i5bOwrNjXIygs6YB4TkllnSKoTaML8q5FKLjE0gsKdfThwmMNGV3xOnLWQdmx51f4FRi39msyIgeXIeqAAO0/0ELMMLmEF61L2TLlIIGHBkIm4aRf7xJINzgJQQ7MDndg/V7JpBaGMbO7Sd8pKfy9Bik1SCa4yD8/bP3yItWMARtb3YhVkgwLEawr6YS67sUcS3nmloxctm+1zK+54axdY0IcEVOzoXR0nQYkaCa0JWN4aIySAAAIABJREFU/ILB+9ms8tVeXTfkzxUnQMFgIr3vSvwy5DP3wfvpT/zye7A/H7w/C/lcfi+W/rw/+y7k817skvGZffci5BO7eAHvXnwHly5Ejc/Fd6K4ED2Pd2bOI3r+HGamz+H8ubM4dzaCP0WmcPbM25j645t4+61JvDk5gcn/OoX/OjWON8Zex9jrr+Hka6+seMXrEiy0MeQb6OzBWSsYkhPorKnBvinrdWZuDCNTMwg31aDTOpea6kBtUxhxrWCYQe+6zJtq5MAqrbUjn6Bx8JgLY1N5M0bdHeSS3CvHAKrJX9agtZRCfHoYA7u3YP1DDRjx84a9NIHO8sqst1PJcyGCIX/H7aCR40cMAxvbMO7mlCNG5pLHIJ0JkH0UkH8W++wUrTMeedEKhkLb2woIhkWZ/qnE+h0nnM/CUhwju2pQVb4KWwdjDiudXeTIwQb0ns1TUYkxtIcqUX9wxplGMoK+zatQUV2DTq1ZI4GR3W0YuWw+w377A+kXtH2CnWkAifEO1K6py593JQ4Pbx2BQseIW5ejO5MyLQx3wsJwOYxNaxowcDEFzA+jfc8YEosxhHeEsHb3mDkVMRdGY00HIoalQdM4UmNoL+/ApGaw1oTWnDLfolVBYQyoDeGsN+bU6TZUretB1HWv5PFmVHiY+I3Oc0c/Joe60bI5hNXllVi7oRmdzzSjtrwOA37eCqM9eKS8DeMaE7FvwWAMfl5iJyO4NIBW4FQKkf0N6DytDlgeg3SOuwXlf0sEQ9D2lpO7uz6ypz/SOJITpmVBnhFX+7PDxEdasb68zBAUTutRHOGNZWg5rvK3Y1nfl8OmZeEFveDAUhKRg3WoKq9E/SGXoDAE7Tr0Rl1pun7Kc1W13z3B4wpk/7Tut7qm49ZNvdj3KoLv2dnZgksRJC4Fg4mZgmGZgsG2IuT61r1NpIxBMIXx3SF0TtojYgrRg3Wo3dOD9rotGJGpisQJdHZpOsv5MBplEC/4cXEJBpkKWVep6VzNcLoyGGZytSO0rQh7m1G/pgwVa0LYursfI1MxJKwiyrx/hUaU6Iph+Ck0n9D6cvgWDOmExaSun25JB1nhg7gMFNWuKScEFQwB+Fv5vyWCoeD2VriFIRntx1ZpRz58PlIX+7Hz0IyzBpMn0FJeY/ibOC+YvxInO1BbLennECxWRHnj73QLjxyCVr2fCAbd86OGMY6TEfRuEEvKsNOSkhWQJ2wCq1evRn19vf3T9/e///u/Q+L6/UfBYJKiYFiGYPDb2LzCpSY7UL93wmkGXZxAu0w1WH4NqYUEIofqsH6/MncrCcobnM+BV39/RTAsJTC+J4QqzfRHarwNVSHdagDz7a1def1PDG3B+sfb0Dc0gYEdZRpHrzgG6sp8Ogqa0yBeb4fBBUME+6obMGK8gkbQ92gNah+qVKZxMoOGMeDm8KmwxaFqnXEzjg9twepqy4rkuBhMMAThb9/GyH/1g6jffhgj03GkPN7M4SVedFMSBbe3AgSDvGUf2ojV1XXYNzlcmJMoAMMCphPV9lRGqBXhk4fR6EMw2GzVbxHMFTpBu5TA5IEGrBUxIvVQsy6vYBDBs/Whdaht2IKtGx5ElbQ/Edxdw4h5WRnVzJTo8cLCAv7u7/4ukGgQsSBxJK7ffxQMJikKhgIEg98BxR5Y0t+K06B0EI3V1lzm2cOolQHs0RqsX7MK663jrbu7sW9/N/YNhtGr+DYYVScd+O4xp9jw2/qNcIpgmD+BnbJE0N0xzQ+jsXqdYgFRbiBvnDp/ByuIwUgpr5wWn4xHqtuQNqgoybkPDTN8jrCSvq+3Njth8c9QBo/UQhJJ27Bjh/H8Vlh5hrEupE3YDeiTKaesf7kFQ/J4N3qnrXgF8jfY7xlGZKgDjSKK1mxE58gMklnCwSMvXoKhoPamFwyTe/X1l4yGsVOcG3eEETVmEjzymMXVfSKJkW1lqB9UnBjFYHe6B5vWVKJ+v+VMbLTjjFh0p+L52/ArqUT76ew6jg/W4ZHdJ8wplKU4BsSB1vUsqOmaUyqrsKkrjMjlZEbgLcYNIV+hFexqCqV9HEQ0FCIWhC4Fg9nGKBiW0RgiXeocuAwq/jqe1HQP6mvaMLB/oznoLaWQtEYvw+qgWhPsTn7+BPpG4mmBYLw95eiE8nchMQw8mnuVRXKyA41qXpREYy/UoUpWCijn1MMswbAUM6wL7g5cjZM5Ngfotep0R+aicSTp53rDdwWHvKkXLrBMa0re+81PoHfzKlSFQnjE8601xwAog1AoMwgVyt/BXqaJTvekhUPvlDqf75EXEQyPOpfQFt7edILBEmCTrlqS8tdtRO9p1RPBI4+uqFk/p8X/ZQtG1JfIhRPYWdeKsKlEzCgFCgZjak3j1yOJutumCAiv1TnJqW7Ub+7GpFpktTDWc+NlaVODlvKxH9FQqFgQrhQMZuuiYFhGYzA6ZofpugNhWXPtOCdzpCH0XVQe57kZ4+0pa25TllmG3A5hlWg8lt2bGA6KyxEMhhPbxvTUh5K7/IeLY2ivDuV09nIMWgCM+Xyfb0qJYw2oWhfC+upQesWIM1Pi+xFMMES69Byd6Xr9kkErh//DUgKRwVbUVou3/gyS4rBagGCIHpRpIR/LPvPwd7M3SmWY+ZvRa6/KMU7qB2Ph7x7gCm9vGsFgOAv6bXv6PHrVlFlWU5yuP+jyadBFKkQwGPx1/j7mDQwLw94x06KTnEGfWBiqu7P2tdBlR3dO6vMRP2XRRS6hc7lEw3LEgiCkYDAbEgXDMhqDl4VB3sYaj1qmUOlcNvYjZlsKlAfYIRhkaVdNHTY9rmxMo9unwYpvdOq2YDCcu/xZN9K3n+owVz6kT/g9SGFy7zpU5TFPOwetJCIHmjNLSHPdSgZbQygkLZGhWymSZ4pgqgf1z0wozpLiD+Ht/JYrO8a1PNMviPagfnMPJu2lojkHIf0AKNM167McJHU5y8/fyV6XRq5zphhzD1DLbm/qLeXtX5keUi9lH+t5ZYezz6QQ6QrBtxk/Z13ZaSrfS3GEmypzC7ulOEZ312G14YdQh/YDbah3WWyUFM3DxRn0NZm+C1UPNaDPnpYqcAlxVvolcsIWDWVlZWkfheWKBUFHwWA2IAqGZTQGo2N2WBPsQVs63Rp0TsYwsr3G803cFAwxxI61or7OWkYlImFzK0amI+jdvDEzn+1+4MVsbAsG6fQ8lje6o5m/kxhtroSvNzBHAinEXmhAVUg3iDsCmpsx2flzXvL+NXcCO0Pq5jnmygbHZj1G7NyCIXpgnfONbLYftekBSuKqU0ne2bGvyPRLxbZhRYDYVzy+cw5C2QNgYrwN68u9rCnqPfzxX5ZgMPLusohJFpbV3pQyyIDbkO1boIRwHWbzcgXI/FxKYnJ/DarWWCuMMle8j3LWlSua5H3bKlTVaPx9XEHVn4Z1Jo/AFgfKRsvfQqaiRDwae5UYq5fWoXdaTZHHuQiookFWUAR1cNSlTcFgUqFgWJZgyAw8qYUZDGy0BYN4+E2g85/KzH0VNNYFwW9bGFLzcYdDWuJ4K9aWl2H9njHEvZwEpAO3V0kYFgZ5K1Hnp3XN3jwXPyom/w5Mup0cvaMAspJibw2qZBfK7BmSrJhBBy3DS3xNJWrdPhOz/agvz57+EKc57byuMR2QqRfJmJiIM7tUBhMMxpu/7BsRZLl3zkFIGQBTcUzur0NVdZ23MLTJBuAflL19C9jL+tTdFO2Ly2hvdhJGG/JYjZMOk3Wg8Mq6ppyw/UeC7l+Qs64y6dvOmKu39QdatSBLQ8Vilm+vBhEM9bIdvNFXpDC5pxK1u7tNB1BdfWSyxiMNAVs0rIRYkOQpGEzIFAwFNAbjjWFNKL2ywVzN0IZGYxCOIzLYhvoN4lwVR3SoDfWhOrQcGkZMdcBSBINURWo+hknxag+F0HjA9OBOTPWjvS5kLFUcGIkgNq94UMsacMWqkJjswdYaazmWYvVwOOrZg452uZ/mqZNTltOceJbX7gr77iwNJ7m6w4jmEyVLSUQHt2B1eQg7R5we7WaOxMS8DhV1zmkdcz+Hw4jaTNP5XIWtx9R0zKWcmeWfZmfcKDsDegg5477il3BIlkbWYN+kPyGWJphzEJIBcB0am2XZnclU9cFLp2EfpMvln39QwZBKxDB+qBm1kp+9mj0/JC+FtDe7DKkEYifF8XJVoDZkRs8hGJZSSMyOoa/Z3O1xk/Xc2Lf19Z2rroT9VBid1m6PO4d0K000d1HzVV2DncfV9qgJL6dk47bddeZSTHl+qx9E7eNtGHA4gHrE5WktAREN8lmJfxQMJkUKhgIEg74ByptrB8anwxg47Vr7vpRE7PRE1mBrWhjiiD63EZu2dyN8OuawNNj3kQ59UnZM7FI2McrV0dkR3d/G3vg93h7Z7vDGWvZWrG/qwEjOUU0TcSmO8a4trr0OLIdO2zIi0ew82fP/mqSwcAKdu4adfxRInPgGm1Fv76VgdLCafCbH0BnqcO4WuTiDge1K52wILMU6JFaJ462ob1L8EnT58jqXs27iGNhg7pEwPptfiCSPB+cfSDCIybvG3GBrcs7LnAUgZ5m8QIjglG20/Zc3O6UcgkGseIYYH0MsP8rspOVMrnJd7sem0BZ0DkU8d5nMTlR296zB2hoznqeFMDsiz9zFBCgYzMqhYFgxwXAXt3ZmjQRIgARIoGACFAwmOgoGCoaCHyJGJAESIIFSIEDBYNYyBQMFQyk87ywjCZAACRRMgILBREfBQMFQ8EPEiCRAAiRQCgQoGMxapmCgYCiF551lJAESIIGCCVAwmOgoGCgYCn6IGJEESIAESoEABYNZyxQMAJ5/rg9Tb/+xFNo9y0gCJEACJBCAgIwNMkbwH0DBAOD69WtGgxAVyQ8ZsA2wDbANsA3YbUDEgowR/EfBwDZAAiRAAiRAAiTggwAtDD4gMQgJkAAJkAAJlDoBCoZSbwEsPwmQAAmQAAn4IEDB4AMSg5AACZAACZBAqROgYCj1FsDykwAJkAAJkIAPAhQMPiAxCAmQAAmQAAmUOgEKhlJvASw/CZAACZAACfggQMHgAxKDkAAJkAAJkECpE6BgKPUWwPKTAAmQAAmQgA8CFAw+IDEICZAACZAACZQ6AQqGUm8BLD8JkAAJkAAJ+CBAweADEoOQAAmQAAmQQKkToGAo9RbA8pMACZAACZCADwIUDD4gMQgJkAAJkAAJlDoBCoZSbwEsPwmQAAmQAAn4IEDB4AMSg5AACZAACZBAqROgYCj1FsDykwAJkAAJkIAPAhQMPiAxCAmQAAmQAAmUOgEKhlJvASw/CZAACZAACfggcN+pU6cgnzfeeCP9GR8fh/0ZGxuD/Xn99ddhf06ePAn5vPbaa+nPq6++ildeeQWjo6Ppz8svvwz5HD9+HH/4wx/w0ksvYWRkBMPDwzh27Bh+97vfYWhoCOFwGC+++CJ+/etfY3BwEP39/Xj++ed9FIFBSIAESIAESIAEbjUBWhhuNWGmTwIkQAIkQAJFQICCoQgqkUUgARIgARIggVtNgILhVhNm+iRAAiRAAiRQBAQoGIqgElkEEiABEiABErjVBCgYbjVhpk8CJEACJEACRUCAgqEIKpFFIAESIAESIIFbTYCC4VYTZvokQAIkQAIkUAQEKBiKoBJZBBIgARIgARK41QQoGG41YaZPAiRAAiRAAkVAgIKhCCqRRSABEiABEiCBW02AguFWE2b6JEACJEACJFAEBCgYiqASWQQSIAESuJcIRPY/iN6z91KOmVchQMHAdkACJUAg8Uor1m8bRqIEysoi3u0EEhhp2ojwXCaf8WNbsPN4MnPCPpruwfqHarBpewf6hiYQm0/ZV/h9BwhQMNwB6EASIztqsO+05gG5I/kppZtG0FlehoqG8PIHz7lhbA21YnThbuWXQvSFjVi7ewyp1ATaq9ehd/o25zV5Ai1rQqjd3I/Ybb41b3d7CES6gj5PM+hd14HJJSV/0z14xOOZTC0kEJsaxsDeZtTX9SCqxlOSwFQHKuTZ1nwahyiVVVSFHlMwFEpO4s2H0VjegPB8wERm+1EfytHw8yUnD0bocGEd8NluVGkeqM6pfDe1rk91oGpzGHF3cONh7UDEff6u+718wZA83Y1ao+NKYXx3JR45MHPHSml01pr6NDvNDkQWTqClug4Ds0D0UB3qXwg+bCeGGoxOuJBON3W6zWxvIlp8UAp2rwRGd9Wg9tFWjLrHA3vw8BiEfGSFQfwQkD6woQOdDT76wVQSidkIRgabUV/9INaukcF9FbaOSOXFMVBXh4HL9k0TCDdtgXHJPlXIt7SDPG3gyJEjOHuW8yN+8FIw+KHkFUYrGFKI7G/AzpGsIdVMZSmOcFOlVgXrlLFxrss5DBudavMJrIx9Io7wxjL4FQzGvZs0pu25MDaVu94avLjd8vOWKPAcSHVvIXqxk5rqRm11GVZvPozoopXxpRgG6sqwdSQJTPeg3uvteTGJ5EIc0dMTmBzpx7793Wh/XAa4Gqyt9uhg5yMId21B7UN2G6nE2pot6ByKIKF5s4q/0m2kK2lnf04Ywi6yP4RNg8GFgl1NwQZxO5Z8pzC5xy6Hjnkldr7ibMXB7pVAuEHS1bCkYFAr4pYdS32JkDTqzdVPOW+awEhzDbbu7sfIc1tQtXfCvJwYxtZHTetT7IUa1A/a/aZphXD2fM4U8/+SfkDTNpSIIhb+6q/+Cn/7t39L0aBw8TqkYPAi4+e8VjAAybOHsWlNGdbvGEbc0cmnEOkKYX1XxNfbllcW5K3ykYP2W20EvenBxdUp53yA7dTNwbVFN39oB1G+5aGu0KXrwUKJehsP4xjVDqAyqDajXoTEuga0O8KYg6szk/LWk2G6Ps0cSI60Yv3eMYdoi7/SgZbNNagNrVIEoQz4dah9tA71IUlrFdY/ugXt+/sRcYyVKUQPbcTq8jJU1TSjc3udkUbt3jDCXeb5Cpn+UOZ9nXldmV8ikBr3jjnESbBBXMnHwjC2CuvQFnQ6WHejxeLqbnfB7kXBoNC+A4fC3xqQjedfL7rdGZM+pH3ctjdJ/2PFi6rTEhF0Vncvy2Ip/WQuq5iIhe985ztoa2vDsWPH8PDDDztEw/vvv4+xsTF39kv6NwVD0Oo3HozMIOK2CqQbaHIC+2oqUdUUTouG+NEGrN7Qg+ii3dF5p2OkqzWlicNQGRqPuW2wQQtihU8Mo7FcFSC505GHsFZn1r6rBEOuMljWBy1bVzyZVxU2u/vRa7zJmqZ9V6j0z8TQFqx/dCNa9h5G+GQEsfkkUksJjO+tQVV5JWp3hRF1iIR0VMSHGoww9QcjSC7BfGMrL0t3rKmpDqyXwbch054ysVfoaC6Mxmppk5WWmdhMN9ggbudFxPE6Iy23KADMNlxRXmNMldgx5DvYveznSPMWSQuDivXWHMszn36OzLrIb6lMYrRZrS9FMCxNoLO8DYaWEN8XSXspiehQG+qtl6LVoS3onfTR9/mcihAwIhhEGNy4ccMQDjYsOSfX+C9DgIIhwyL4Ub5BcjGCfbvsDj6F2Mhwxqwd/G5WDDHV+Z9CyHsb8Wmoq0O9bppBE3lyr4dqz8dCk9adOeVXMCQxsk0GT2teNdqTHrB9dFdW0UyLUkV5CDuP26ZWTakNdmWoUub540c3GhaGTAecGYDtc7n9F9xiVO2kNXmYO4GdhgWkEo1DzrwGG8SttMVPx7AuaHx1UmNol2uaN8hg96Jg0NTkbTvlfoM36k5nfVRzJHVvTUGYpxXBIEJydzNGxY9BnoltPejbFsKmAxOIW9OBqdlhtKwLoTeqJuo+Np9x+zlxX3X/tgWD+zwFg5sIl1VmEwly5o4MkvIw5On8A5RBzIObjo5h4FFL2eeMa3bQYkWJH21FX9Q2Ky7DATTn/VbiYgoxxxtKyDD753OEgj3gbRu2ph1MB0d5+85+Y9bn03b4y+doGD0gb+KqwxdgigHn0jPxAheH1ar95syu1n/BmsqoqGt2+TS4p0AyeU6e7UG9YVlYha0usSCh8g7iqQn0HlCm2RYj6DTERwj7ziptxLqlzaVqz0TW1Jx9r0eauhE+HUMiO3om46BgUGDc5kNLeIvwc3xy901S9+rUHqAKBqUIs/2orda3RxHTm446Ra0S03x28gkXJQIFgwIjzyEtDHkA5bwcVDDYZlLHA+Z+4JTfukZv3XPZ3sNGwWIYeNQ0C8uglZlX9Cq1bXaUeK6OISgLr1us8Pnk8WZrOqAf46fHMLBLpgfyLQOzxcE6dE4pI9b8sGmyr272sZTSslBUt2FSSSK7eKbFqMLx1mUPhC4RZzDOk3e7jenajvvmSwlMHrD8I4SJ7YjmCmcP4unpNtf15MgWY+phk4gNxal3/X5FRKTj2I6QlWg/nQ3GvldmEFqF9Y93IDyls+vYnFxtUe5lc/BpOUtnjwf+CHiY/N1WB3dika5VTgdre+rBHXBhBuGhiMNHyA4igkE7LSoBjHr350thp+cWDPb0hGphEH8H/qOFYXltwOjAa9B+sNtwdltvLBMqQ8WaELZ2jaV9F3zdZCmFlOIgKR2ntoM27hnsgfC8v8zR1/WbSyTlOP027RVD5h/LsHVXK9a73w7vUsFgvqkrqzeMeVIxh3cgovB2lNi2LthslIvihyKDmTp9oFzOHEpHKIOwMs2Quagc2eHUAd7Oo0NE2FaclREMial+7KwxVzBUVVsrGdQ8KFm0B3Fte1ycQOc6EbkZ/w6xWGzaZk/FKQnJoS161mmmKhRrxqZDYxg/1Ix6+5mynEH7TqvCwYdg8CiTK1f8GZCApzDwEBJG8rIXyBrXcyeWhCArvpZi6KvTi03TWhF8ulaEgTg42v/El0GcIcURUsSEHFMwmHRoYbBbSdDvxAR6mx5EVfk6NB4cRvSyOLhZiSzMYKBJHB41yw8lSGIMfYOmc5sZQ5ZihlC1K+N1L520bXp2ZG3FBIPZ2RpLA40byIoA1xu148bmD3MA1jyw8uCXN2PUw6lPk9RtORU9KOb+BvRZ3oaG+d2w8GjeSo0c2dYFj6kHa0mlTE245/odBbIGRs83ITuwPYCqA5vBUvPGb4dNO5rZiWS+xaIigsbbZBvHSJO9imOVMT+cmLQ2vFHzkEkyx5SE7aNRhkf2Zk8vKElYhzZbDz8YRTCkxclSCnFF3DiXUOYQDHnKlJ03nvFNwGiHXs+Pt/+AMR3h2rNEBHjeZ2QpZS5PHjmMlppVqNVaruxpPMVCazzn5u90e/JZSBENsmrir//6rykWFGYUDAoMv4cpWXtfvQqbdjWj1sufwFhSVuk0v9k3EFPw/jqsrunA+HwKyckOrA91IGKv8wdgdPy6Dtx4WDMWBkNYKELDvkW+79R4G6pcm0fpzrnTMZ3xXKZyWXE/3qZ1YnPHv+2/521nPrsjqcQj6x7Ur92XzM0eRq10NB5vwEb+bQuE7KXgtczRGtwzy189Sm6LAKWu7Tf6LF8JWXYmefMSopBO07QW5JpeMpZONh/GpL3hmG2+V/Kg5tbOj7vTTZxsM/Mju/YpbVeNqx6bK0FkmaXeuiBhve5lXDvdja0eg4V6Hzk2lv/mFE7uGPx9awmkMPlMXXqn0ch+y7r1UDNG7HaYlQERmGINfBC1xuqjfozP3r43EveqiazsleAJCoaglW7snBdC52Qyz06P5tuPu5NVb2e87a6pRJWIDvfAI524zpztEgye+yKoN3If22VQ5+eNMLLcrbKgfSIMx70gpkV3nm7lb3lLnZ7A5OkJROfi1uqHbNFjZyEx3oHOPPtSxF4w90mocAk9Ow3YKwHq+hGzLU/pi8qBPf2Qrmvvt+bYczWG9cDzjWxxDO2G8+IWjATZrroAwWCIXOMNLuT081CKph6ml4WW5/ZwzyUY1PRyHi/NoNdwusxetpkzHi+SAAnkJEDBkBNP9kXjzd+e6zcGby/TnLmDYi7BEJfNf0IbsSlUifqDM06PcUnbnsNOziAyazmIWYLB3ofdEAwezmrZuQcgSz1rKqF3SANgiIlKNObwQs5K14qjc2LLCnuHTyTG24zlkVU7lrlTpuLcp+61kSme7dxXhvVdE8beCplr6pEiEEQ0yh/bkYHYbmN20PQeCR7tbSmJyb0y/VKGR4JuDBZEMMi6+MEt5kqT8hDax1WfAjuzzm+jnVviIl/45QuGzDRJ1d0qYJ14+IsE7hkCFAwBq8owvdtzyLkEQ64pifkJ9G5ehdXb+s2NfBZn0LuhEuv3qDvsife89aYopmi783Pd01iiVl2DzqEZxBdkK2Llk3R5oVubSTnvkw0gdbEfjdWVaHwh5hQx2UGBZMTIu6e/hi7OnTi3MIMRe8fEXFMJQfJmD+JeVgb7ujjsPdSATuOv7Sm+Lta9zJUc9pSJfCtv4WIdOd1tLXv08JtYimNkR8gQC54Wj1zl8ikYaps70GI5Slas2Yi+aVf7ct/DaufGiofqOvSezW9OXo5gSF02nyvzfhqrnTt//E0CJBCIAAVDIFwAxOltwyrU7h1G7Gw/Nrl9GJZSSMyOYd8G5y6PcpvUXAQDu+uwes1G9Dq8veXNP4aBplXYeTLTqYqZX95OI8/VKXusi1ORamqVDaE6sLVGHDDVQcfpTZ8wBp1K1O7P9babgWGKBtneWr87YSoRw+RgK2qrZQdD9xbYmXTu7FEc43u2OLZqXr25B342ivOb7+TxDvRq9hpIx788nF6NYAxkUkcb3X+8S7aFbsBamU5YU4d2Y5OnFCKHNiK98qa6Rvv3ScRiIn/rQtKuEp+Y/C/86aylD3wKBjP/uXesNNOMY3RHnWWFkL/D4Z95cMEgf5FT/dsbwe6XZsADEiCBvAQoGPIi0gRYimO8y+zgq5TO315BIH8sqH1wwrEfv6QSP9aBzpEZb/O0e657MYLeulWoWKP+CWXZA6FMu4Zdk1PzlIiRbXXoPBlwNEmMobOuDeMZDWOlF0FnzYMHQ75AAAAgAElEQVSo3374tjoheZYvxwV5e18b2oiW/WFE5vK8EedIZ1mXDE//MPp2m+JFu/pFd4NoD2ofqkPLoTHE3HVgh5epkW0hNB7Ibm92kLzfeQSDWJH6NoeM+p70yVB8Furr2jCg3T/BO0fBBYM4qvZj00M12NoVxuRtdIrzLgWvkEBxEqBgKM56ZalIgARIgARIYEUJUDCsKE4mRgIkQAIkQALFSYCCoTjrlaUiARIgARIggRUlQMGwojiZGAmQAAmQAAkUJwEKhuKsV5aKBEiABEiABFaUAAXDiuJkYiRAAiRAAiRQnAQoGIqzXlkqEiABEiABElhRAhQMK4qTiZEACZAACZBAcRKgYCjOemWpSIAESIAESGBFCdx36tQpyOeNN95If8bHx2F/xsbGYH9ef/112J+TJ09CPq+99lr68+qrr+KVV17B6Oho+vPyyy9DPsePH8cf/vAHvPTSSxgZGcHw8DCOHTuG3/3udxgaGkI4HMaLL76IX//61xgcHER/fz+ef/75FS0sEyMBEiABEiABEiiMAC0MhXFjLBIgARIgARIoKQIUDCVV3aVR2NaXPwQ/ZOBuA6XR+llKErh1BCgYbh1bpnyHCNz35DnwQwbuNnCHmiNvSwJFQ4CCoWiqkgWxCbgHCv6meJA2wH8kQALLI0DBsDx+jE0CJEACJEACJUGAgqEkqpmFJAESIAESIIHlEaBgWB4/xiYBEiABEiCBkiBAwVAS1cxCkgAJkAAJkMDyCFAwLI8fY5MACZAACZBASRCgYCiJamYhSYAESIAESGB5BCgYlsePsUmABEiABEigJAhQMJRENbOQJEACJEACJLA8AhQMy+PH2CRAAiRAAiRQEgQoGEqimllIEiABEiABElgeAQqG5fFjbBIgARIgARIoCQIUDCVRzSwkCZAACZAACSyPAAXD8vgxNgmQAAmQAAmUBAEKhpKoZhaSBEiABEiABJZHgIJhefwYmwRIgARIgARKggAFQ4Bqvn79Gp5/rg8/bt/NDxmwDbANsA2UQBuQPl/6fv4DKBgCtAJpOFNv/zFADAYlARIgARK4lwlIny99P/9RMARqA2JZ4D8SIAESIIHSIsC+36xvWhgCtHs2mgCwGJQESIAEioQA+36zIikYAjRoNpoAsBiUBEiABIqEAPt+syIpGAI0aDaaALAYlARIgASKhAD7frMiKRgCNGg2mgCwGJQESIAEioQA+36zIikYAjRoNpoAsBiUBEiABIqEAPt+syIpGAI06OU0ml+8tYB/PDCL+548h//ROoN/Ofw+Xn330wB3zwS99noXnh6dy5ywjxbfROdjXTiZtE/4/b6G3/7v76P/A7/hGY4ESIAESofAcvr+YqJEwRCgNgtpNAs3lwyh8NXD72Pqys303cLTSfzdTy9BhETQf3PHW9Fy3L2RyCJO9zyGp3v2o+XQGdxY8kj1T4dQX/dvAT6t+O11j7R4mgRIgARKgEAhfX8xYqFgCFCrhTSaHS9/iH8fjGvvImLi/2x/ByIegvzTCQY513RoGosAjOOfvob3vERD1s3EwkBhkIWFJ0iABEgAMHb0JAhu3BSoDQQVDCIIZApCvr3+iYVBrA9+/okQcFoHDuGtpUWc/00rmn72Jq4pt7k20YOmx7vw20s38Bcl8ew08lkbNuLnl5QEeEgCJEACJUYgaN9frHhoYQhQs0EbjfgorP7ZbN47iKjw/+8vOLn/3/DdIxeB5DR+vuMxtBx9GX3b3QN/K46eP4Of79iAb//8TFo0iGDIms64cQYjb19Lh1Hz8tYhWh5UHjwmARIoPQJB+/5iJUTBEKBmgzYaEQx+rAeBBMPSNPpbvo8nth/CiRuLuDYvkxD2P5laOIS37J/W918Uy0O2YBDfh6fwTMRM5y/nf49nJzL+EW8d+jc88ydXgvxJAiRAAiVEIGjfX6xoKBgC1GzQRjP78V8MH4VctxBHSHF+9PvvL28dQl//ITzz+mvY03MGi9dfRksOJ8bOCXVCInOXv/zpEJ746cs4+Zvd2GE7UCbP4JnHW/Hb+Uw4HpEACZBAqRMI2vcXKy8KhgA1W0ijkSmJXCshxALxk/GEz1zcwEj384hEDhlv/ZEjXfjt9TN45n+/DHOR5TSeqctYGMSakMs6cCP2e+z43m789gqAxWlFLPwFb/U9hWcmbvjMF4ORAAmQQPESKKTvL0YaFAwBarWQRiMrIGTfhS6XKBBHyPpfxX35OKSz+MFvsEN8F/5kCgbIVMOSIhjUY2u1RC7BYKT70ZvofPz7aPpBK/reuYEbyUXcuP4eIm/9Bk9/ZwN2jGamJ9L54AEJkAAJlBCBQvr+YsRDwRCgVoM2GplusJdNiqXh/9rzjrFhk2zgJCKi6XdXA9z9Bk7sfQr9Yg2wBYPEDjglcbpHcY781kY0PfF94/PdjRvwRPchPNt3CM8OvoyTb5/B6fNn0P/09/Hsef20RoDMMygJkAAJ3LMEgvb992xB82ScgiEPIPVykEZjiwV1sybxaRBHSPnkWmqp3lM9XvzIWiIZ6dFONVz8zVN4YsdTGZ8ENbJ9rDhALv7pV3hm3LQgZFZDvIf+lt04KsJE/i3e8N4EygrCLxIgARIoZgJB+v5i5kDBEKB2/TYanVgIcJu8QcU3Yceo07/gRuQQmp5+GXNLi3jr0FPY8/qcdpmknfi107JPw36c/Mg8kxEMAOZfxo7HnsKzEec97Lj8JgESIIFSIuC37y92JhQMAWrYT6O51WJBsutYGvmXazh95Cl8d8evYK2MBJYWEel/Ct/e8TxOfqAuuwRwYxp9e7+Pb0t4ZYNJh2CQm3z0Jp55fAOa9r6Mi5yRCNBKGJQESKDYCPjp+4utzLryUDDoqHicy9dobodYkKzZgmHx/CE0PdaKn5+e004b/GX+jCEOWl5SHBeXriHyJ/cmTYs4sVez38LSDUTOK3E9uPA0CZAACRQzgXx9fzGXXS0bBYNKI89xvkbzf7TOOP7AVJ7keJkESIAESOAeIJCv778HirAiWaRgCICRjSYALAYlARIggSIhwL7frEgKhgANmo0mACwGJQESIIEiIcC+36xICoYADZqNJgAsBiUBEiCBIiHAvt+sSAqGAA2ajSYALAYlARIggSIhwL7frEgKhgANmo0mACwGJQESIIEiIcC+36xICoYADfr55/ow9fYfA8RgUBIgARIggXuZgPT50vfzH0DBEKAVXL9+zWg4ojb5IQO2AbYBtoHibwMiFqTv5z8KBrYBEiABEiABEiABHwRoYfABiUFIgARIgARIoNQJUDCUegtg+UmABEiABEjABwEKBh+QGIQESIAESIAESp0ABUOptwCWnwRIgARIgAR8EKBg8AGJQUiABEiABEig1AlQMJR6C2D5SYAESIAESMAHAQoGH5DsIJ988hn4IQO2AbYBtoHSawP2OFDK3xQMAWqfnUTpdRKsc9Y52wDbgLQB/uPGTYHaADsOdhxsA2wDbAOl2QYCDRZFGpgWhgAVy46iNDsK1jvrnW2AbSDAUFG0QSkYAlQtOw12GmwDbANsA6XZBgIMFUUblIIhQNWyoyjNjoL1znpnG2AbCDBUFG1QCoYAVctOg50G2wDbANtAabaBAENF0QalYAhQtewoSrOjYL2z3tkG2AYCDBVFG5SCIUDVstNgp8E2wDbANlCabSDAUFG0QSkYAlQtO4rS7ChY76x3tgG2gQBDRdEGpWAIULXsNNhpsA2wDbANlGYbCDBUFG1QCoYAVcuOojQ7CtY7651tgG0gwFBRtEEpGAJULTsNdhpsA2wDbAOl2QYCDBVFG5SCIUDVsqMozY6C9c56ZxtgGwgwVBRtUAqGAFWbu9O4jlO9P8C3vvosTq3kX7U8/xJ2/sfX8cSv5viXMleSK9Nie2IbYBsI0AYCDBVFG5SCIUDV5hYMc3jhO2WoKP/xygqG8R+jorwMm/spGHLz5xsQ+bANsA3cujYQYKgo2qAUDAGqNtfDuLlcxIL6UYTDpXHs+49/wT/I9b9/EN9sHcTZ+UzDvn5mCO329fJVCP3HIKKffIZTe9T0zGNVOMyOPoum//kgqqx0/3XXK5izFfPcWby453sI/aMZr+qfv4knfjaO2Y/t+2YEzmvvvISdj64y8v8Pj/4Yx2c/w/Uzg8q5p3HsHTsev3O1A15j+2AbKM42EGCoKNqgFAwBqjZXR3BqdAjtNTI4fw89o+N4bTRqDt7vDGLz35fhH779LF6U8y924Zt/X4aqx4YwK4P75ZfwhPyu+zFeGBnHayODaK/rMqwUc2fG8Vrv94yB/F93D+G10XGceieJTz5J4tQzXzeEwj98+2n88kVJ9+d4otVKc/5NtH9VxMnX8cTPJN4Qeraa4UN73sR1Q1TYguFfEPr2D/HLkVfwy//XDFPxne9i8z//L+x7cRwv/uSbpiB59DlDxORiwGvF2VGyXlmvbAOfBRgpijcoBUOAus390NgDsGJZ+CSJ13Z9GRX/97N4K/1m/xnO/uLrqCj/On75p8/wyekuY0D+15+dzcwnKmE/0U1JnH8O3ywX0TGIqBrWsi5ED38TFeVfxs7jIi7szu46Xvy+CJrv4oVLcs7O79fRc8YOE8UvDdHzZewctePa4X6AY3N2OH5nuJIFWbANlEIbCDBUFG1QCoYAVZv7obAHVlUwvInOvzenBJzTFea59vHP8MnHUfyy7svmdMBXv4f2/jeVaYPPoBMMc0M/MMI7BYHdac3hxcck/R/jNZeYmO3/rhHPuG9aMKj5tcvwNI5ft9Ozp0ZsoZE5n5sHw5EP2wDbQPG0gQBDRdEGpWAIULW5H357sFUH4DfRLv4F/89zeOvydcy5PtftAf3jJKLjg2h/zPJH+OqPccr2cdBYGNID/2u6h3ElBINaBgqG3PWuqwOeIzO2gWJrAwGGiqINSsEQoGpzPwA6wXAdx7Za0wBeToO2aLCmDmZ/ZfosPDF03ZxO0AiGT/74LNbJlETrK5Y/grNzemv/w6gofxjtr9nTCnI9ieMtkpfv4cXL8luXX905Cobc9e5kz7DkwTZQnG0gwFBRtEEpGAJUbe6OIInjrTIgfxnf/MkQju8fMhwXr5/uQkisDP/4v9De/4rhuPji4aexef+bliDowr9u/bnpEDk6hE5jeuJfMn4Ff3oO/yrxvyqOiYP45TFZXilCxJrG+LbpLHm8vyvj9Hj5JWyX1RFZTo9fRsZXQicOdOcoGHLXe3F2jiwz65VtwNkGAgwVRRuUgiFA1eZ9gBzLE5/DWctqMHf6OTxRZ003lH8Z//Q/v4f249a+CueHnNfqfoCe19Q9F5J462ffxT+JL8TfP4idI5bl4eM5vPazH+Cb/2wKh6p//jqaes9mLA6z4+j5wTfNeOVl+Afxj3gxmrlOC4PiEOrsGPLWc9qRlPHIim2gVNpAgKGiaINSMASo2lJ5MFhODgJsA2wDbAPONhBgqCjaoBQMAaqWD5DzASIP8mAbYBsolTYQYKgo2qAUDAGqtlQeDJaTgwDbANsA24CzDQQYKoo2KAVDgKrlA+R8gMiDPNgG2AbuhTYwe+W/IZ/l5DXAUFG0QSkYAlTtchob47JjZRtgG2AbuDNtYGjiBuSzHP4BhoqiDUrBEKBql9PYGPfOdBTkTu5sA2wD2/s/xPaBDykYAox3uqAUDDoqHufY8bDjYRtgG2AbuLfagExFbHj2ivFZzrSEx7BQUqcpGAJUNzuKe6ujYH2xvtgG2AZkKuK7B68an+VMSwQYKoo2KAVDgKpl58POh22AbYBt4N5qAz968Rr+vz98ZHw6f2dtfFfA5msBhoqiDUrBEKBq2VHcWx0F64v1xTZQ2m1gPnHTmIoYn05CPjI1IecKaRcBhoqiDUrBEKBqC2lkRRPn0iA2l/NPXK9YfRo8y2D+qfF7o1M/tUf+VkoZKr4ziNkC3tBWjB3vXdCAV6z8RQgMvLGg/YhlQUSCXXY5lnNe4SUtO6z7O8BQUbRBKRgCVK27AZXUb61gsP9YVa6BxPoT3zLQyGeP9Ue31E7f+oucxvVy/SBq/0lvM0wu4SL3y3X9Lhmc7zHBYPCnUPAcTEqqL1Cf3bvgWCwGtjAQX4X/v73ve/Hj2O78l2bmxQIRzOWyEBD3QfhFxiB8X2wrjPASG4NMIMEGWxIaoQfbD7Yv65UuSDKEb5TcWJBcZ8la8Y1lb5SvyV1r1xc5GGnxJpMYT2Li2RWpcKrqdJ06daq7a6Ylj/v7EYy6u7rq/Pic0+ecrur+Ni1ByL93/ts/d3ajfXmO9mkMFxJ9sw8NqWK2XVEwNJi2PyiE5Hniivxw1H6T04OguUeZioIhFgtdAaCPiU8oFhIm+vg7940vFkSC18fffOdCsXDWf/2TbKCPvV1iAh4uKPao/wEIjP3+92D18rMLna2J1wHyzRW3zffpFweJNz3QSIn/v4oCoU8+WWiMeRiyIVXMtisKhgbT9jnfgwmgBygo64LBJ/aUxD02qo95V5qNs/XLk1MoMvKpez1OHCsZ+m32YJPsnHjnNkHBMCfbzkmX//n33/oZA/rNhb5XKKkf9aHZBdofg0FDqphtVxQMDabtc6oTPOUet+mumu+I45S8MeXerQ3HsT45ZnfMYWyiGZIoT+FvrMvErc8x33QXH+7QuX3NJbopgeZ9fsddvpE/w1AmEBork7tI4vIOUCZ0uS/6ZIVGVmAk+Wz+37lvKjQt2+U6GsslzFvZIitemJ/HhzGN9vDjVRvryeN+k3TiojPZNS3PsL7sK8lmAWdrTKezkr94BiGTUz+jUPrTibf+i+vz945v1LUfZ00/+Wmgw370sbv8DGPJuORjM7swztiOSobaZj/kY5o54KWG//H5vxb603MKvHTRtwShMWhIFbPtioKhwbTagfJjDmz5kkSW/Ch4xeDNwa04f+OseBCuRvOsuywSjU8i1fVlmcRjUpdTy0oe0ikEeKsI4WBuy8UJLyQzzZcTo2jnhKyDumgv8Il9a+1jC4aQeKWOQacsmXIiFdgW2HAy7vpEOlT86bYCd8Yz2oXGyD7CF7hQYL8JvhcTphwT5UkFhcDbY3fPXT6THloM+kg5vnMlNrFN8hm5JFHS+tidZjqFrLxExQUB4cJ4JhmDzFQ86DZpT/Y3bPM4tTp40PLEn//tN0XBQG10rhWXhlQx264oGBpM2+9gVhKlYJ2CGo/3QTQGTbnP59PWomlc8CLBprHULwZbDtA6MXMCeUbOMugEE/n54M661OSS7RU6chaiJrdorxUGtfZRBUOmi8BTt3s5WGfup/TSYwhTa5zQydtIjavqE23m/aQrQIIstTFZu+KT+4fSpfOPsr30U2lrxkZte3lbRUgYn/Oy+AT5UlFE40qZc12VbJ2uaJ8jTjSzQEUBL0vQTALPJvAvP1qzD31YNKSK2XZFwdBg2j5n4uScBTEfMNM0qpw27u4kuz46MVEgs4JlCHA+KcQljEC3vLsKfcp2Dq5Snk5uL48xJgv+Nblkey2Ai3adRDmIi/Ys+fF5ngVRCdTbJ5OzkgyIvjU24t3dxQs5ku2F/CSPxc8ap9vUOEqSnQ2Ensw3T6JBr+oYTzvZ0I/Vsxed7Kkf86Ktpl3yl7ZuxZn6h/Ed1lLnzD4WH2UDP9Zqq8gleWG/+U5b+slB3ae3Iej7ESQfP9cgn1egc/LtiTF6NKSK2XZFwdBg2n6nMgKbCty9431CyadZOajmiSQExizh6WREQVAlJObNhUYK1ErumsyKXplAKDjLoK3ocmCWdOQ+n9fFgKVbTGhd0SXG1vRm/f02S0gyqQSZO2xM3lLHCs7WON2mdNcJOpO3om91jKetC4Ggmy8SecbJ7Bfw0LRLe1fsK21RxZl4KKyr4yw+ygZ+rNUmbYt97VNzPn7u0lf+65T85gT/0iPNOvzxzfDlSurTgkFDqphtVxQMDabtd66xga0vcGka+pinu1Uy0MmoOjNh0NN9fRKRa8hRXs8jzYKYd/4qAZVJJsrf3d3bQT5LVp5m4htsEPToErtMNmZ/hXmtj24vcCU6SmY9hmSxxuk2Nc7EU+hlYVkbU2v32GVyKF06fmV7yd/ypZE4Rz4lzTA+b7f4lPIVdul0UTKhvSlJ9se8g4ktzShQYcBvQcjnGGifZhroHPUZ+4YE4YB/zqFgaPCCoYsnD3Qi+GVvMdBDhemhxQ/PyORfBseCpko0HCjlmxJ+TJeU84ta0/PJZT2fDvd9MplDgJYPmTHfNPtRyh7u9mXxUQb6wF9gkCU0gaHQpzchFvjYNEodg/zZrIUhC+vdFSsWP2ucbivGRYz57p8Sm37oUZ7zic8Y4+kKzH/zrjstfxtEyRHwzwsyy3+039C1ULYFeZJPxD7al1iPKKvsXz7/YfiVLtoEFp1dUBjMvjCoxWOeVaBlB6sgoDaaXaCCYczvLzCfhlQx264oGBpMy45T3cYASNO+MgiG5CSeZeCAyUFXPIsgx3k+Bk1O8t2zCzIJ+H3Bq6PNSSEmmdh+4kp4XU3zzWU+6z70cjANLkI0rfwNES0/yWsF9EIfI9hn8ojiobCFKWdMXGpcRlPZzNOVuHYyBZ07PSx+1jjdZo2LiTDYlWyYCikvq/CbpHdug7yo4yUT6Q+JJtPI8VdvakS9Tf5eh0A7+E+Qpd+XlA8IGp0/d1iTn6FgYDthy3Gnf0uFAn1kih9ytHCjc9SHZhqs81ZbQ6qYbVcUDA2mtZwIbf0XL/ABPvAB+MDD8gF6A6Jl1oD68psUQzI2pIrZdkXB0GDaIYfCeQRG+AB8AD4wTx9oSBWz7YqCocG0CATzDASwK+wKH4APDPlAQ6qYbVcUDA2mHXIonEfQgQ/AB+AD8/SBhlQx264oGBpMi0Awz0AAu8Ku8AH4wJAPNKSK2XZFwdBg2iGHwnkEHfgAfAA+ME8faEgVs+2KgqHBtAgE8wwEsCvsCh+ADwz5QEOqmG1XFAwNph1yKJxH0IEPwAfgA/P0gYZUMduuKBgaTItAMM9AALvCrvAB+MCQDzSkitl2RcHQYNohh8J5BB34AHwAPjBPH2hIFbPtioKhwbSTBALxU7jdzwtnP4X7PV9s3U9L65+B/p7lGsQofgvC+ozz4NiDrhvkm+Tagx+M/hlk4F1ecw2pYrZdUTA0mHb/F5H6DkFDAMt/779M5vq7CNlHlMbyMb9vIC6cWOzobwX04ZLLVcrNY/v7iWKACgL1TQiiYX7rYJTe8VsM6jsNOd729xVY9vBBqrpuvp/HrvyOQ6IhcO7kVt+JUDLqsQHDPh62rpIO0WixL39gLH3/Iv8GBtPO8RzAqtPfwoQ+3vY7btC/R/hqkEnLojBfV+e7glp+nyPuG37J+lvbJkxMfdR1UflWi8UbbbZv9eHSkCpm2xUFQ4Np+5xp1Dl/0asANBAciW4ILCkR6GMK2tkXCeNHjJoCP8mhP5CkZOOkPpau7y+CaCG3px+DXjUZ6vP6mC780DZWLmmrLmgr/h9eedd90elfSbQxiIdkWbFrlmCSDaUM9n7gmXTSxyrgdbLUedR0Zfw46SeeikeHh2j3fOs8R/mvRddoY//zcip7aQy5b10XLgyU3X7zrrt8I+kXMFN9CtkCrZYZQ30t6ONx+nzsLhdfIlUf9ypkTbppHjjux6YhVcy2KwqGBtPu+4LaU8FgBaPhBOkDkEjWo2TvKxjo3DNn3elnRt6BmrqWcns5+4K/JVNBu6Q7St+Y7E6fGZpBiEVbhqfgWcjDgUfYztKjL5gb/es2DbKcPnM2+8JlhkGPromu0KlPNnnOkDPja36Ken98fDEw5DMDvko0Tpw5607oGQSpm98XNizOBTsn/NjuQ1tL/x4+hPGAPgFzi+6QLDif+2sdj4ZUMduuKBgaTDvsWOGi5zs1OXXug0r3qWk1beuDuZjilMGwEpCHgqYZxHr48B2ZJXuacm8ISDFBfaiCrJer068nSMZxtp5inNZp9LRs0IXuCm0eeeAw8WTdvAwDd6EVO1Z9yuhfk6HD1BgjE8mwrg32Zd2JZ1ZI5bjVZq1KzOvXjsaoHCt5Eh2yRY8uLPMYu5kFj+Zn3NVrv8wwsmQTPs3Y+u0Ifbr+Fl0pK/a1L7UcN6SK2XZFwdBg2n7nKi94H9hkoLACVNEWLnpeo+1NEpJ2FzQoKBiBY4CP181MOJKW3B8IPgW/0D/DxPc56z7021QwpWnkGj/dro8HZFPPPPQnoO8cr9NXp5wrumb+YmLbJ2fQif0gFG3G7I6kK/eFP0j95H4mn+/fjqP3z1ohzMtphp/mfj3i2qnok+sg5Zf7AmdpK7kv6Euamb8afXI9Ep8Pz8hlGm1LXv5LRWbAUY4hWlIHuZ/4SFltGnZfOQ774zBqSBWz7YqCocG0fReWv1i7O+fogDog6eOYuFKCjONE4K8FpFo7yeiD3HoefKitj4/XTfBlXfMEMxy0eBwHu+zu09MXDy3qYwrIHiO+Y6vx0+36uD8AaOxyHXlsSGJhxiXHMulYsbORWGp32gWtbGzQi2d9CvtpfzLsN05X1rkNR0t27XuaP4+R7X5/6NoRuNj20jNFli6qMNH4RR5enlgEFZgLOdjHq4Wk6Cv1ZQyCT3ChXPpYrqelDxcekYbGUPDveKJtz2+KNKSK2XZFwdBg2r6LLgRKvvjlNt1FhGQojuMdBCeEfBsCiBloqnduMckVd3R54rH4eN1Uwil5G0GLkz7fZWa8Fd8zH+dPuPuxEo+QuDyWno7Bzwc83a6PVSAl2VgupSPpnQdmTp5yW8M19qkknsxfDL6ccKQ9uuRj0Ey4EF+V/AgXzUMfD+pq4NjRFT7NWJrJJ6dR+lDATLaPunYEL8tekl7APZeDsc4KAAPjzGZ8ndWWuQx85fhCL4FboYOXhQvlgWdmBBaSHxcgmY61vmhvLhwaUsVsu6JgaDBtdnGqC44CwOCFWgSoENS6JKFoen6VoFQLOLYMI19jxcoAACAASURBVPgQ74xXTJJcCBTb8o6oDx8+l+FU4FFJJsWdk06WOjnERF7gGfrJBJ3vl8ULy10We4JHRY9ubIGtGFvIGM5lOHV9kt4+QRY2SUn9xJW/c5efSce5ntRu6ToWxz75FY3Mp9I46b+2rqlvhqNZ9IzwVS9HDx6FjyX+UlYpS62dZ8nScpIqALy/lNdPKnpG6NP5RJKTZEs08nYpN/b3hk1DqphtVxQMDabtu9BGXahGYqkGHQ4Ixhi+W+oKDd8n3Z1Ycg7yIX6V4J7oqWTAMo7dFrqkBJh45Hf8Jq6ejgy4+5NrFDaF7CLo9J1jbAaxFfSytWvZbuPVYTeCR7+u+8MxyKFkNLEJfNh/TRszbsa2XwfGa4Qupmw8Pm1tfkpPIaelT9ZWsVPWR9ALuI7QBwVD86xBd+0UeCf7c5+GVDHbrigYGkzLjmNuffDRswwfu9PyzsUKUD54qGSvflfBBywxnakDiz+WfCznH8Fn6oLB+i0DPQPiZZfPW3g55d1vCMxpnBU4rbbygjftZt2xKvy5QOuWNTS+ll11n0qSqMkUbCFxsJ9NycaP4GEnP8aqHcf84T5bxiH/5TvyZGOSR107As9+HRp0Meym9Ql2UNcnydKHtT4XY0Pyn4CznIGwMWBdaFva5osrZ93l34g+kU+OozgvMMz8Bu2jCo2GVDHbrigYGkw7eJFxYOimivOAX53W9gFGTpfKu+dwwfsgyXRF8UAyZee4T9zyXZyXfYiPDnRFICmDVh8mWq5MFkE7FA2sv8LM9wtFA0+rlwGxTS4tc5mAcn6eb19BZiQezaM3wQgssnFD9tLjBu2Xz95kvDytdhy1jVNSzBNV1k/5r5dj6NoRupb2ynkFvUboYtgt98Xa0s3w1L/W90P6dcpM7yAf+zRtS7+Wehn6FP5hFDYCt9Lekj72h/BpSBWz7YqCocG0Qw6F8wg68AH4AHxgnj7QkCpm2xUFQ4NpEQjmGQhgV9gVPgAfGPKBhlQx264oGBpMO+RQOI+gAx+AD8AH5ukDDalitl1RMDSYFoFgnoEAdoVd4QPwgSEfaEgVs+2KgqHBtEMOhfMIOvAB+AB8YJ4+0JAqZtsVBUODaREI5hkIYFfYFT4AHxjygYZUMduuKBgaTDvkUDiPoAMfgA/AB+bpAw2pYrZdUTA0mBaBYJ6BAHaFXeED8IEhH2hIFbPtioKhwbRDDoXzCDrwAfgAfGCePtCQKmbbFQVDg2kRCOYZCGBX2BU+AB8Y8oGGVDHbrigYGkz7ySefOPwBA/gAfAA+sHo+0JAqZtsVBcNsTQvFgAAQAAJAAAhMhwAKhumwBCUgAASAABAAArNFAAXDbE0LxYAAEAACQAAITIcACobpsAQlIAAEgAAQAAKzRQAFw2xNC8WAABAAAkAACEyHAAqG6bAEJSAABIAAEAACs0UABcNsTQvFgAAQAAJAAAhMhwAKhumwBCUgAASAABAAArNFAAXDbE0LxYAAEAACQAAITIcACobpsAQlIAAEgAAQAAKzRQAFw2xNC8WAABAAAkAACEyHAAqG6bAEJSAABIAAEAACs0UABcNsTQvFgAAQAAJAAAhMhwAKhumwBCUgAASAABAAArNFAAXDbE0LxYAAEAACQAAITIcACobpsAQlIAAEgAAQAAKzRQAFw2xNC8WAABAAAkAACEyHAAqG6bCcN6VfX3SPnXrP7cxbS2gHBIAAEAACFQRQMFSAaW/edXc//cjd/JX6+/Su27m3LNtjv+W93X5WXy3cyfU1d+iNZX+/B3X23nvu+eNvudv377hLTxxxb/+6kdGtLbexvuZOXttuHLjtrr/wY/f4iYtuOQCRc0t3fn3NbWwu3CCXmjyx/fytRjHRHQgAASCwIgigYJjM0NtusbnmkyMlyO5vc+GW1zbTsTyXJdJKwXF9yz2+vuYeP/eeXXR8btzz399xd/7yonvxpz92hyK/R48+5V585yO3fd9QOCbLTmYh48lrn7nrLzziTv9q1939w0339Lt3DAI9TbUE3TPEn9r5pXuR5BhTBKBgGEIT54EAEAAC+0YABcO+IWQCsWAQCW55ISW8Yv/way6fM6gUHCJ5Wwl940JOxX37mXv7p4+4jcM/didfOeWepPEvXHTX3znlHj+85jaObrnltyxz3H59xy5GfvWRoxmQ3Rtb7rE3PnKDN/qKrD/cY8Gwc/25apG1cfSiy8sWzDBY0KMNCAABIDAlAigYJkMzJvwnttz1uNxw6QW7YLh5LrUn9mXBkc5ZezFJZgXDtrv+LBULm27xJY0JfbrljM8v+gLi0Jk9Jn9LDNl2/zP39ok/cIvPRWmxl4KB6BxdcxuHT7mr2RLPRfc8FUBPLdxdyRczDBkaOAACQAAIPAgEUDBMhmplhiDOOKQZhrtu8dSaK2YGXCoYbn+unoPIkmY4t7z3QVi3FwXD7q9edYfWH3Gnb8SEHZ9/SM8P7LqbZx5xG+un3PvGSsa+oLh/1y2oWFl/xJ28JtL5HgqG7V9s+qWUJHeU7N7CPb2+5n7ys8+UqLF4euqKu2MtucjeNXliO55hkGBhHwgAASCQEEDBkLDY515K+PzgXSgSrribn37k/GyDn30Id8ndMwniGYTdnR23s7PrbtJSxsBSBCXl3a933E53M7/rbryy5jaeuJKm62+/5X6yvpYKCOfc7o1XPe0uMcZEOcSPzndjNFJULLzwW6FYuHwnX7qoJWhPY9fd/PlFd1sukdxbuJN+6YQetMwZhWWKRww5YsHgMfst9+TvXXTXf33X7arxnlpNHhQMOdg4AgJAAAgoBFAwKED2fhgLhmJJ4jX3+rM9BYCYIbB5l4WI3W/pXj+c332H4uCIe/u2GKETpvH8wvVzx3xR8fzP85mOO18LOrz75XvupWM0s3DEvfgLMbPA5zU/bqctvwFyLi6RfLt05/1SxKZb3JMdaX/HXaclnsOvuptdkcR9YsFwZNO99HvH3aOx2Dr025vu/PXP3I4sHGryoGBgMLEFAkAACJgIoGAwYdlLY0zsemZAPARJVG+/ecRtHN5yS5nEFLvtP3vVvXjuilv6BD2yYIhvFchp/Ns/O1IuP9QSppBh27/VoQoNcd7v3t92N998qkvOG+ubbvGV7uScq/KjGZFQaHSvat7fdjfObbrXbxUVgXO333KP0XLEm3o5gnjGgoGx3r3rbvJDnvRK6ssfpN+PqMgTdO6ZRTFUQxMQAAJAYJUQQMEwmbVVYt/ddne+4MWJyCTeUW8c2XSXbtUfIli+QYn0VRceRYh0xcyF/62HT+/mU//F8wrxWQm5REFicML8hZJN4BAKjUoB4Hbd3b/Yck//iGZNHnGPv7xwN35Or41W+jM/9TsMuze3/HLJoVc+yPUQcnS7tORBr6wePuXet2Y5dMHAA3fv+gLkkpxh4XNqe+cyzaocc1e/UCdwCASAABAAAh4BFAyTOUJeMOze2nKPrR8XCWjHvX+KCoGwPCFnAnIR7rirT8i3KCLdgZkLvst++g/jssDX7/k3CvQDgiEx9s0eML8td7M2C3Jv4V58dstdvx2KnnB33lAwfMnPKRiveOZg0FMXbnnhqMftJOtW9FEzDMX5oYaos7ncMTQW54EAEAACq4EACobJ7ByTzlMX3Y1b77mrr8Tp+hfCzynfvRae/H/sjdfcaf7Bpq/vujvb+fQ7FRr0oGL6vYRIl6fbq/LGfpFft6wgf5nx24/c+SNrbuNI+UAhk+3u/BtevWwpGHY+fcs9SQ810qufxXMKLEXc3t9xy58d929MHHp24e7WCpjaDIMiVztknX9yYTk821EjgnYgAASAwMwRQMEwkYGXP48/jBRnAuiBu9MvH3eHfrTpXn/jOb/WH5JeuBumGYbwUOJW+gEn8dDf888+4g799DV3896dMB0/WDA4x+vwjx49Gp4tkGN2luEHneRrl0r3ndtXwhsKhzfddet5BNWfD8cUDE+/84G7wc88/Og5d1X+VgMTktuvPnJvn6A3L9bcY7//y55igQbtcYbh/q67+5db4QetqssdUijsAwEgAARWFwEUDBPZntb9Hz36nDv97nvuNn8fwifpkPQOPXvF3fGvD4bk9pNTb7m3Tx1Jr0F+e8dd9b9jcNSdp4f++BcbeSni8HH30huvudfV3+kz76UfMbp/173/SnhL4NHjW+7GtnO7X/7Svd69OXDUvXTdeJNhZ+kunToWfkb68HH39q/zWY8hiMYUDGEpJjzzEFcyTLK7X33kLrG8h4+5l66p1zTNUY0Fw87SXT13yj3pn8NYc4eO/YF7f2i2w+SLRiAABIDA6iCAgmEqW5vT5bvu5rlj7ul3luLVPvqoUigiNn503J3+i/jwIb0hcOYp99KfiYROd8C3Fu7SuVPu6SeOucd/Oz0Dwc9CPPqm+mlorc/u0p0/dtQ9f2HhltVZA3pO4Lh78pWF60vmmjQf9xYM9++6679/zP2nZ99yN76oP+jJtJz/TYej7uSbH7g7I7qHcY0FA/1I1rM/do//7pZb3Kr8XkMnEHaAABAAAkCAEEDBAD8AAkAACAABIAAEBhFAwTAIEToAASAABIAAEAACKBjgA0AACAABIDBrBLb/5b6jP/zbHwIoGPaHH0YDASAABIDAAUfgl3/3raM//NsfAigY9ocfRgMBIAAEgMABR+DlxT+5l//onw64lAdfPBQMB99GkBAIAAEgAAT2iAAtRTz9s//r/7AssUcQ4zAUDPvDD6OBABAAAkDgACNASxH/+dI/+D8sS+zPUCgY9ocfRgMBIAAEgMABRuDcn/6ze+e/f+P/3vhz8+t1B1j6gyUaCoaDZQ9IAwSAABAAAhMh8O3uv/uliFt//52jP1qaoDb82xsCKBj2htvDG+U/Dy2+N/HwOP9wOHmMKl/L/KFooXU46HaPn1M/f+uHArBzywvhS7Eb8hsrPxzxIWkFASoE/uRv/tX8o5kFKhL4H+1TW60/0cK/OgIoGOrYHIwzBz1xHASUdLI9CDK1yqB1OOh2/4EVDP7ny1EotHrlD6I/zRhwYUDPKtAShPy7+tfpN+ZpX56jfRrDhQRmH/pNjoKhH5+HetYMagc9cTxUhEYymwNmc9BhpLkeRjc/u3BBfnclfA6evhqLf/NAgB5opMT/rigQ+jSThQYehuxDKp1DwZCw+N73UDBMZII5JNs56DCROacgg4JhChQPPo0vt/+/nzGg31zoe4WS+lEfml2gffwbhwAKhnE4DffyU7S0jh6/nBg/S13cwfhEENdSqY+/6wl3O/wFSr/l6dMucQzQdc6Fr0Zq2ix6Pn5jXa/58x3X0i02E42wRp2Pzdet9zqOaGoZ4jqzuBPkQJ/rpp7p6DAS69T8WfD1LbfsbMNYxK0YF1pyPck2zJ9H8rHfZjbObVjY3SnaJBcTpa2WRR/LvnE/x4R9SXRkGnH5gP0rsx9jc2vhTkrMOpnYF5S8PC77AqrWke1b+kiSIceNZEznoi5K/uIZBK8ny7nm8vNapjV38tIloWsYV9qLcRyQr5e3c45xasWX2WPbjADNHPBSw//6P/+vGE/PKfDSBZYgCnh6G1Aw9MLTcLILaiKw+mDCQVMEjy7ILt15kRzrMwwU1ATdyEsGuZDARB9KUEzb6B8SlAzOHBiTvCkh6TbJZ6/jKJAnuow0J+TseH3NJV0jP9aNOnJi5EH6mD5nvSlphI45r5BYEh9RgAleXCh0SU0kjLwt12372pZbdHaPhQ0XhaN0YOWE7NInoo5ZsmTZBJ9gU2E/9tuuD9tTJl4Dcz9O6Gj4WNKZaYr+Xo2YzAW+IcFKW4U+Hbak54WF44WEoE9Ot7wWykLUVXxCoezOd0V9PHNrqytoRvHeK765IDjaAwK0PPFX//vfipHURufwrx0BFAztmNkjYmBIgY26qURVJLKclA9AXeCO5/yYPCB6ytc2052UDt452eIumU/nCVPJ6juVSdTFO+Wk517HEe1Sr1wmI7GSXBrHoWMek2Gb8zexd2Wi0fKxjcNMESNrYcLn4nZIZn1eDq/ZW7d7GhpjlYD1GOJjjdPyqHElLlLggEeOUSzIMpuEMZktFB9JtfRFPqt0NOzIdpMFIo/mbSYHN3bbkkc4pdot+cfg2/HBzl4QoJkFKgp4WYJmEng2gX/50Zp92AuvVRqDgmEqa1uBQRcM8ZimXa1AZQYoHahZXtlO+0bgDV1DsE4JngnExNCNs5KcCn5+qG7b6ziio5PZmATNCU3cJUssSEZ93Mkt+CnMKOFZNtGJUB/bicfCRMxY6Kl/S2ZTB69I0K+zW2zzG2Vrk4ayn+W31jjdlo1TfKVIQi6Nbw3zMMuQ7Osx13f6RNfLkPpJtpr2OLtJCsEXtcxdj7G8M5ziaI0lNVttHTPstCJAb0PQ9yPoHz/XIJ9XoHPy7YlW+qvaHwXDVJa3AkNRMDCzELR14YCC4UEWDHkCoAQiiyidYDpL0bv7Ysp8XOLRBUO0t0zyOkEMHbNAtKW+klZ3TiVuTdP3++EVDEG9oJt/DoPtMTZp73GGoeYTXp6xvK24YNnFauvsip1WBE5d/Uf/dUp+c4J/6ZFmHaiN/l68ygtbrdRXtz8KhqlsbwWGasEQmOoCQR/7XpVAkiUuk3dSLOubmtVShU5y1FElFz9Wt+11nKZDxGNS4IRgBnrjbkxjpI9ZZ8LJJ1rind+ZeoyKJDxGHkt/1WbJo9uGjlkH2tbsrds1TU9D4a7HUB9rnG5T42o+FsRWeITG8JBugXl9qcIPy+RQukS6lt+W8tkydST4IWJDvtBnJG+FU6lD5JjpJaXAfisCNKNAhQG/BSGfY6B9mmmgc9QHb0i0oYuCoQ2vem8rMOiCQTwwRYSKAsEKGr5NPoDGAb28Q84ejBz10KOYoteyek2toKjbrMCr+xCxsk0naY+HmnouAz3rLxK+xs20hUfcLTY33eLaVjZr4FX1Y/JliXHyWPqrtkKegEVmL62DOtZY+eOs6Ak85WyImfi1HQrZDHwJICVPUbSY+PGDngoPDzj9F3EQBWKgK3z7q4U7L38rQckRbCT9OM5SqURv+VHZFuRJyxCGfOIaHsV7r/h2GGGnFQGeVaBlB6sgoDaageDZhlb6q9wfBcNU1rcCg07CPtjVXv8iQWLQp6TJAY8DpBorp9NZhZBEEv2sTwzofkrXr6GLhOsJWEE9BMyMjk44WkdPa8w46hgDspcnJGsdxPWxJ8+Y+AMjmfHMhKGnFeSZDCcrxogSh+avj9lmKckQtRLLrvhgmYZ0UOc9X/aJKLBvi9jp5S3fRdEIw5RtLL+1xuk2a5z2sU7eEo+oQuEDxeu+mmZWJAUqObb5EhLzKe3GMzXytcqATW7L3EezIo+LfmGDrGAj5hZOGkvqZ7Wx8Ng2IUCFAn1kih9ytAbTOepDMw34Nx4BFAzjsULPGSDgk0uXyIYVMhPN8DD0AAJA4HtAgN6AoBmGsf+oL79JMXbMKvdDwbDK1l853fvudC0w1N241QVtQAAIAIEVQQAFw4oYGmoOTPvS1LFcS+floYbZCGAMBIAAEJgzAigY5mxd6BYR4HXo/OG4HB7uk54B6Z4jyTviCAgAASCwkgigYFhJs0NpIAAEgAAQAAJtCKBgaMMLvYEAEAACQAAIrCQCKBhW0uxQGggAASAABIBAGwIoGNrwQm8gAASAABAAAiuJAAqGlTQ7lAYCQAAIAAEg0IYACoY2vNAbCAABIAAEgMBKIoCC4UCZvfWHhR6S8P5na+l1w77XEh+SLGPZiJ8Uzn/aeiyBsl/3U8z4bYYSnIPYYv0s80GUs0+mB+DHfexwDgj0IYCCoQ+d5nPqXf7sh4DGEGstGBQ/nchEsDG/NZB9c6FSEPQE3S6B+t/SH1lMKJlqRUhOW3/3YgjLgMueCoUoX/49AeNDYUqE8hsVyjbyewPfU+EVMFVYFvYgP1B9lK7moafTP85j1HxNCG5a1iFavn/ul6O/OyHtNcRHiBh2w3XM3yShremLXSEefvtD+xx/a8UcW/BEAxB48AigYJgM45Ag0kWvj8cwaigYYvCsBhN9Xh9zsSCKjBBMVdA3P4oTA2JzIKUvCeb0LZ4+sQm59PEgkkaiGBwTO3ChkuwYTvj2qr5cHOTJyeLZT8caMVFbtH9RDPj23CZNHLOkZ9NhTH0CrWI4wNXzGcY3o2L4wfLawm13naLdpEz665jxA2naHzoS5s7SLYovbKqiQesT7ZNdz4b8Jjs0AoGHhAAKhqmANhKrT4Yi8Q2zGlswhH5ZcFHELd5ZsjKDkcG/ppcMsop322EI2kkXfVz54l8fE1O3vgHxHOm6ueXOb+afuaazGXaKFJ07eWHLnRyaOdirXIpf+2H0lwtb5eyBYd/x9IWtanREex+G/TyJT2OxQARH4G1dJ1qWMX30mPxYX1f6OPQu+IyQP+eDIyDwYBFAwTAVviIwMskiANAJHwTCFGR5x5UCiR/bTYuqOzeDF/PkrcU7C9heDkWXP9cbiwHfv5OBP7ktkgQz29dW09PHjJlOGAErPe2b49Yyvc5JKdkgqBXkkXyyu02yBRWFI4J7hv8IzLQuGd84PreRxih08nTIppbfsPwj5OntYtFWA/r079PD8mVF2h/meG26xa3FYBE3hrbVJ5dXzR4UwmmfCsepSI4DxDWZ6yL9WPtjeQ0X7NEABCZCAAXDREA6/lhRd+cdLuwsyBdJJSa9bkw8Xs/vcENwSoHBB5MLS5cHFZ0sFH/PWwS2QpYAhOclZ0V0IuCgFulxIs30bMFU0+eiRayjFzLFaeKNDrfwYakuAFd0q4slA7rcTyO8DJIfnZJ85H4alvaGzqeecW/pzkt+frywnzXr4bFUfiDxlfuRS+5DMjEVAvU3GLT1ABPDEXrQOPIvP74rYNP1QHyCHrKNE6vCQwplYCpPh33DH/SyhYW7IFTKZtCk/pqO4TPb17bc4qtE3GMir9d0CntAYHIEUDBMCmkIBLUkyoEvY5kF2jheJgrfOQQ/TogcOGWSLoMSDeSgGWY0eHzgH3nJYONl4ZmEKGUmHwc11WdU4I305CaOk3rw6SyRSRk5Oag2Hue3RqDNzqsDj2eHuR3M8z5EILdJVjwo+nTo9el4GB0Gm5RcXkeZID0Xt5DLKRoHbUuDZ/AtTdfoqJvG0tYYDOoR/VQ9OOjl7HxA2YJl0/r7dnlNDOs5Dg+DP19LVOBondkfsmUWlksUOKb8rFzcjsBdjcAhENgzAigY9gydGmhc3HlQS4GPC4q05cClkkLHIm/P6XKnEHC65FsEksg/C15KJp61kH00HX8sglpkn8nk+4QixevYBXaWle8I8zvmcDbX1bcpnsSr0zORTHuGLbICRARx357JZ/Av7oKNPgbPJJCRUPxJhb9KilyUJD8RemuMuztv7mPw9GPY15J0+Z7WjRMZ27O0vR8/grb3EelbNHBQj4iRHufxjv7j9w29em1CzKNumf0Zjb5zPLvEmFgFOdNJOmqfzX1yyy21HhX583HE29BdsMcuEJgKARQMEyFpJzEZtEPgy+/yNXMdrPl83l4mOeon+1R4VQIQc6FtoYdOBBUatkySctr3iaMW5IifEcBlsilkTKTDXkVG3a1LGCLZyuQsA7Hk35fk/Hid3DSGpSBFCyeF5C/SvjEJGTgxIR6f65MSnE5ePC73o9Q6uDdCxwxDJlixN5+mrTlOzvB4extJc4wfWH18GxdeUpKw7+UxZgeSrcoxo64PjUUhm1HEjMC9lAYtQGBvCKBg2BtuxahsKrg7KwuGWuDrOqukL9p14DCDhOQl93voiFN+V/OhxoKXTdsO6ppBxGAo0RnnJf3B4GvpUYpSaVGJOfaS/M2BPTwHxxYELRlUWw+/ghw3FLbkE3Jr21f2MPdH0DZxGKGHaW85zu8bs1VepsqMCCsh6VBbjRb3l4VKb1t30u+YOmRdlH3pnJbNwthqy+jiAAhMhwAKhqmwNIKTD5DyTtr3UYEte4AqBA26K0x3K7EtS6KxTdzJel6ijw9Qkjc/lCn6WO+kF3eeRkAqaBu627BSMhoI4DEgZ3IUuIWklq0N39pKmOlAawtTaTUCd/UuV5Co8txbAtbJNWAu73otv6CCzLjTZjENW+r+hc/y2KGtQVsP0TqF82P0CBgmn6j4f+bv0Uekv2XXGnEveXucxXWldeAxSZZYBItrVj+YyEWIHONuLYYfXtQ+pY95SSXTu5QYLUBgKgRQMEyFJNGJiS1NAxvBu7dPCGAnry39w2sdHZHkk7gx2PF0utGHk0yNTkgOaZo6FSmJSznDEM7ltIeKgEjPB7zEr5OLdMjk52Cf+pay6T4C6yKwCn0Gd9kG6ed9aIid7ASxGs9auxhq7+b6sU9kSYcTHvuAerumoGskde0DuR0KCvUGg7buXMdQ+bKpR45HVixGRrku/EyA9E1Fg3BTxUFOI/kf+Wrng8qPz98KdLvzxTUuxjIouo+Sw3czfCe/7rbccgTuzBJbILBfBFAw7BdBjAcCQAAIAAEgsAIIoGBYASNDRSAABIAAEAAC+0UABcN+EcR4IAAEgAAQAAIrgAAKhhUwMlQEAkAACAABILBfBFAw7BdBjAcCQAAIAAEgsAIIoGBYASNDRSAABIAAEAAC+0UABcN+EcR4IAAEgAAQAAIrgAAKhhUwMlQEAkAACAABILBfBFAw7BdBjAcCQAAIAAEgsAIIoGBYASNDRSAABIAAEAAC+0UABUMDgp988onDHzCAD8AH4AOr5wMNqWK2XVEwzNa0UAwIAAEgAASAwHQIoGCYDktQAgJAAAgAASAwWwRQMMzWtFAMCAABIAAEgMB0CKBgmA5LUAICQAAIAAEgMFsEUDDM1rRQDAgAASAABIDAdAigYJgOS1ACAkAACAABIDBbBFAwzNa0UAwIAAEgAASAwHQIoGCYDktQAgJAAAgAASAwWwRQMMzWtFAMCAABfl9/MgAAAZRJREFUIAAEgMB0CKBgmA5LUAICQAAIAAEgMFsEUDDM1rRQDAgAASAABIDAdAigYJgOS1ACAkAACAABIDBbBFAwzNa0UAwIAAEgAASAwHQIoGCYDktQAgJAAAgAASAwWwRQMMzWtFAMCAABIAAEgMB0CKBgmA5LUAICQAAIAAEgMFsEUDDM1rRQDAgAASAABIDAdAigYJgOS1ACAkAACAABIDBbBFAwzNa0UAwIAAEgAASAwHQIoGCYDktQAgJAAAgAASAwWwRQMMzWtFAMCAABIAAEgMB0CKBgmA5LUAICQAAIAAEgMFsEUDDM1rRQDAgAASAABIDAdAigYJgOS1ACAkAACAABIDBbBFAwzNa0UAwIAAEgAASAwHQIoGCYDktQAgJAAAgAASAwWwRQMMzWtFAMCAABIAAEgMB0CKBgmA5LUAICQAAIAAEgMFsEUDDM1rRQDAgAASAABIDAdAigYJgOS1ACAkAACAABIDBbBFAwzNa0UAwIAAEgAASAwHQIoGCYDktQAgJAAAgAASAwWwT+A0TOyWfwjQbtAAAAAElFTkSuQmCC;" vertex="1" parent="1">
          <mxGeometry x="20" y="40" width="524" height="754" as="geometry" />
        </mxCell>
        <mxCell id="g6JMP2Gnu98_ucFOvaJN-2" value="AAAA@xxxx.onmicrosoft.com" style="rounded=0;whiteSpace=wrap;html=1;fillColor=#dae8fc;strokeColor=none;fontSize=13;" vertex="1" parent="1">
          <mxGeometry x="294" y="50" width="196" height="20" as="geometry" />
        </mxCell>
        <mxCell id="g6JMP2Gnu98_ucFOvaJN-3" value="yyyy.onmicrosoft.com" style="rounded=0;whiteSpace=wrap;html=1;fillColor=#dae8fc;strokeColor=none;fontSize=16;" vertex="1" parent="1">
          <mxGeometry x="206" y="270" width="257" height="25" as="geometry" />
        </mxCell>
        <mxCell id="g6JMP2Gnu98_ucFOvaJN-4" value="yyyy.onmicrosoft.com" style="rounded=0;whiteSpace=wrap;html=1;fillColor=#dae8fc;strokeColor=none;fontSize=16;" vertex="1" parent="1">
          <mxGeometry x="98" y="624" width="312" height="46" as="geometry" />
        </mxCell>
        <mxCell id="g6JMP2Gnu98_ucFOvaJN-5" value="xxxx.onmicrosoft.com" style="rounded=0;whiteSpace=wrap;html=1;fillColor=#dae8fc;strokeColor=none;fontSize=16;" vertex="1" parent="1">
          <mxGeometry x="98" y="710" width="312" height="46" as="geometry" />
        </mxCell>
        <mxCell id="g6JMP2Gnu98_ucFOvaJN-6" value="自アカウント" style="whiteSpace=wrap;html=1;shape=mxgraph.basic.rectCallout;dx=30;dy=15;boundedLbl=1;fontSize=16;fillColor=#ffe6cc;strokeColor=#d79b00;" vertex="1" parent="1">
          <mxGeometry x="380" y="-10" width="136" height="60" as="geometry" />
        </mxCell>
        <mxCell id="g6JMP2Gnu98_ucFOvaJN-7" value="yyyyテナント" style="whiteSpace=wrap;html=1;shape=mxgraph.basic.rectCallout;dx=19.6;dy=20;boundedLbl=1;fontSize=16;fillColor=#ffe6cc;strokeColor=#d79b00;" vertex="1" parent="1">
          <mxGeometry x="440" y="220" width="156" height="60" as="geometry" />
        </mxCell>
        <mxCell id="g6JMP2Gnu98_ucFOvaJN-8" value="yyyyテナント" style="whiteSpace=wrap;html=1;shape=mxgraph.basic.rectCallout;dx=19.6;dy=20;boundedLbl=1;fontSize=16;fillColor=#ffe6cc;strokeColor=#d79b00;" vertex="1" parent="1">
          <mxGeometry x="370" y="564" width="156" height="60" as="geometry" />
        </mxCell>
        <mxCell id="g6JMP2Gnu98_ucFOvaJN-9" value="xxxxテナント" style="whiteSpace=wrap;html=1;shape=mxgraph.basic.rectCallout;dx=19.6;dy=20;boundedLbl=1;fontSize=16;fillColor=#ffe6cc;strokeColor=#d79b00;" vertex="1" parent="1">
          <mxGeometry x="370" y="670" width="156" height="60" as="geometry" />
        </mxCell>
        <mxCell id="g6JMP2Gnu98_ucFOvaJN-10" value="" style="rounded=1;whiteSpace=wrap;html=1;fontSize=16;fillColor=none;strokeColor=#FF0000;strokeWidth=4;" vertex="1" parent="1">
          <mxGeometry x="70" y="420" width="420" height="70" as="geometry" />
        </mxCell>
        <mxCell id="g6JMP2Gnu98_ucFOvaJN-11" value="サインイン時のディレクトリ切替の設定が可能" style="whiteSpace=wrap;html=1;shape=mxgraph.basic.rectCallout;dx=19.6;dy=20;boundedLbl=1;fontSize=16;fillColor=#ffe6cc;strokeColor=#d79b00;" vertex="1" parent="1">
          <mxGeometry x="410" y="350" width="220" height="80" as="geometry" />
        </mxCell>
        <mxCell id="g6JMP2Gnu98_ucFOvaJN-12" value="" style="rounded=1;whiteSpace=wrap;html=1;fontSize=16;fillColor=#dae8fc;strokeColor=none;" vertex="1" parent="1">
          <mxGeometry x="680" y="230" width="220" height="200" as="geometry" />
        </mxCell>
        <mxCell id="g6JMP2Gnu98_ucFOvaJN-13" value="" style="aspect=fixed;html=1;points=[];align=center;image;fontSize=12;image=img/lib/azure2/identity/Azure_Active_Directory.svg;" vertex="1" parent="1">
          <mxGeometry x="755" y="260" width="70" height="64" as="geometry" />
        </mxCell>
        <mxCell id="g6JMP2Gnu98_ucFOvaJN-14" value="Azure AD" style="text;html=1;resizable=0;autosize=1;align=center;verticalAlign=middle;points=[];fillColor=none;strokeColor=none;rounded=0;fontSize=16;" vertex="1" parent="1">
          <mxGeometry x="745" y="340" width="80" height="20" as="geometry" />
        </mxCell>
        <mxCell id="g6JMP2Gnu98_ucFOvaJN-15" value="既定のテナント&lt;br&gt;&lt;font color=&quot;#ff0000&quot;&gt;xxxx.onmicrosoft.com&lt;/font&gt;" style="text;html=1;resizable=0;autosize=1;align=center;verticalAlign=middle;points=[];fillColor=none;strokeColor=none;rounded=0;fontSize=16;" vertex="1" parent="1">
          <mxGeometry x="705" y="370" width="170" height="40" as="geometry" />
        </mxCell>
        <mxCell id="g6JMP2Gnu98_ucFOvaJN-16" value="" style="rounded=1;whiteSpace=wrap;html=1;fontSize=16;fillColor=#dae8fc;strokeColor=none;" vertex="1" parent="1">
          <mxGeometry x="980" y="230" width="220" height="200" as="geometry" />
        </mxCell>
        <mxCell id="g6JMP2Gnu98_ucFOvaJN-17" value="" style="aspect=fixed;html=1;points=[];align=center;image;fontSize=12;image=img/lib/azure2/identity/Azure_Active_Directory.svg;" vertex="1" parent="1">
          <mxGeometry x="1055" y="260" width="70" height="64" as="geometry" />
        </mxCell>
        <mxCell id="g6JMP2Gnu98_ucFOvaJN-18" value="Azure AD" style="text;html=1;resizable=0;autosize=1;align=center;verticalAlign=middle;points=[];fillColor=none;strokeColor=none;rounded=0;fontSize=16;" vertex="1" parent="1">
          <mxGeometry x="1045" y="340" width="80" height="20" as="geometry" />
        </mxCell>
        <mxCell id="g6JMP2Gnu98_ucFOvaJN-19" value="新規作成したテナント&lt;br&gt;&lt;font color=&quot;#ff0000&quot;&gt;yyyy.onmicrosoft.com&lt;/font&gt;" style="text;html=1;resizable=0;autosize=1;align=center;verticalAlign=middle;points=[];fillColor=none;strokeColor=none;rounded=0;fontSize=16;" vertex="1" parent="1">
          <mxGeometry x="1000" y="370" width="180" height="40" as="geometry" />
        </mxCell>
        <mxCell id="g6JMP2Gnu98_ucFOvaJN-21" value="" style="rounded=0;orthogonalLoop=1;jettySize=auto;html=1;fontSize=16;" edge="1" parent="1" source="g6JMP2Gnu98_ucFOvaJN-20" target="g6JMP2Gnu98_ucFOvaJN-16">
          <mxGeometry relative="1" as="geometry" />
        </mxCell>
        <mxCell id="g6JMP2Gnu98_ucFOvaJN-22" style="edgeStyle=none;rounded=0;orthogonalLoop=1;jettySize=auto;html=1;exitX=0.25;exitY=1;exitDx=0;exitDy=0;fontSize=16;" edge="1" parent="1" source="g6JMP2Gnu98_ucFOvaJN-20" target="g6JMP2Gnu98_ucFOvaJN-12">
          <mxGeometry relative="1" as="geometry" />
        </mxCell>
        <mxCell id="g6JMP2Gnu98_ucFOvaJN-20" value="" style="image;html=1;image=img/lib/clip_art/people/Suit_Man_128x128.png;strokeColor=#FF0000;strokeWidth=4;fillColor=none;fontSize=16;" vertex="1" parent="1">
          <mxGeometry x="870" y="40" width="140" height="120" as="geometry" />
        </mxCell>
        <mxCell id="g6JMP2Gnu98_ucFOvaJN-23" value="管理" style="text;html=1;resizable=0;autosize=1;align=center;verticalAlign=middle;points=[];fillColor=none;strokeColor=none;rounded=0;fontSize=20;" vertex="1" parent="1">
          <mxGeometry x="820" y="170" width="60" height="30" as="geometry" />
        </mxCell>
        <mxCell id="g6JMP2Gnu98_ucFOvaJN-24" value="管理" style="text;html=1;resizable=0;autosize=1;align=center;verticalAlign=middle;points=[];fillColor=none;strokeColor=none;rounded=0;fontSize=20;" vertex="1" parent="1">
          <mxGeometry x="1010" y="170" width="60" height="30" as="geometry" />
        </mxCell>
        <mxCell id="g6JMP2Gnu98_ucFOvaJN-25" value="Azure 管理者" style="text;html=1;resizable=0;autosize=1;align=center;verticalAlign=middle;points=[];fillColor=none;strokeColor=none;rounded=0;fontSize=20;" vertex="1" parent="1">
          <mxGeometry x="990" y="40" width="130" height="30" as="geometry" />
        </mxCell>
      </root>
    </mxGraphModel>
  </diagram>
</mxfile>
